<svg width="17.000000" height="11.000000" viewBox="0 0 17 11" fill="none" xmlns="http://www.w3.org/2000/svg" xmlns:xlink="http://www.w3.org/1999/xlink">
<path id="Vector" d="M5.3 8.91L1.38 5C1.19 4.81 0.94 4.7 0.67 4.7C0.41 4.7 0.15 4.81 -0.03 5C-0.22 5.18 -0.33 5.44 -0.33 5.7C-0.33 5.97 -0.22 6.22 -0.03 6.41L3.88 10.33C4.07 10.51 4.29 10.66 4.53 10.76C4.78 10.86 5.04 10.91 5.3 10.91C5.56 10.91 5.82 10.86 6.07 10.76C6.31 10.66 6.53 10.51 6.71 10.33L15.97 1.08C16.15 0.89 16.26 0.63 16.26 0.37C16.26 0.1 16.15 -0.15 15.97 -0.34C15.78 -0.53 15.52 -0.63 15.26 -0.63C14.99 -0.63 14.74 -0.53 14.55 -0.34L5.3 8.91Z" fill="#1785E5" fill-opacity="1.000000" fill-rule="nonzero"/>
</svg>
