<svg width="30" height="30" viewBox="0 0 30 30" fill="none" xmlns="http://www.w3.org/2000/svg">
<path d="M4.17818 9.72244C4.46087 9.03998 4.87521 8.41988 5.39755 7.89755C5.91988 7.37521 6.53998 6.96087 7.22244 6.67818C7.9049 6.3955 8.63636 6.25 9.37505 6.25C10.1137 6.25 10.8452 6.3955 11.5277 6.67818C12.2101 6.96087 12.8302 7.37521 13.3525 7.89755L15 9.54505L16.6475 7.89755C17.7024 6.84265 19.1332 6.25001 20.625 6.25001C22.1169 6.25001 23.5476 6.84265 24.6025 7.89755C25.6574 8.95245 26.2501 10.3832 26.2501 11.875C26.2501 13.3669 25.6574 14.7976 24.6025 15.8525L15 25.455L5.39755 15.8525C4.87521 15.3302 4.46087 14.7101 4.17818 14.0277C3.8955 13.3452 3.75 12.6137 3.75 11.875C3.75 11.1364 3.8955 10.4049 4.17818 9.72244Z" stroke="#959799" stroke-width="1.5" stroke-linecap="round" stroke-linejoin="round"/>
</svg>
