<svg xmlns="http://www.w3.org/2000/svg" fill="none" viewBox="0 0 124 36"><g clip-path="url(#clip0_1_2356)"><path fill="#DE1A12" d="M36.032 18.196C36.132 8.252 28.152.11 18.207.011 8.263-.09.121 7.892.022 17.836c-.1 9.944 7.881 18.086 17.825 18.185 9.944.1 18.086-7.88 18.185-17.825z"/><path fill="#fff" fill-rule="evenodd" d="M10.15 9.283v6.185a4.23 4.23 0 013.372-1.724 4.06 4.06 0 011.819.392c.487.205.908.542 1.215.972.275.395.47.84.571 1.311.117.741.166 1.492.148 2.242v6.597h-2.928v-5.91a9.423 9.423 0 00-.159-2.252 1.438 1.438 0 00-.592-.75 1.798 1.798 0 00-1.057-.286c-.46-.01-.912.115-1.3.36a2.04 2.04 0 00-.836 1.056 6.245 6.245 0 00-.264 2.115v5.635H7.22V9.283h2.928zm11.502 0v6.185a4.23 4.23 0 013.373-1.724 4.06 4.06 0 011.819.392 2.96 2.96 0 011.226.972c.272.396.462.841.56 1.311.117.741.166 1.492.148 2.242v6.597H25.86v-5.91a8.682 8.682 0 00-.169-2.252 1.385 1.385 0 00-.592-.75 1.798 1.798 0 00-1.057-.286c-.46-.01-.911.115-1.3.36-.387.251-.68.622-.836 1.056a6.524 6.524 0 00-.264 2.115v5.635h-2.908V9.283h2.918z" clip-rule="evenodd"/><path fill="#0D0706" d="M52.62 25.374v-7.083h-5.889v7.083h-2.685V9.283h2.685v6.64h5.89v-6.64h2.674v16.091H52.62zm13.121 0l-2.728-6.068h-1.977v6.068h-2.675V9.283h5.551c2.77 0 4.684 2.008 4.684 4.98 0 2.97-1.544 4.228-2.971 4.577l3.098 6.534H65.74zm-2.22-13.744h-2.485v5.286h2.485a2.358 2.358 0 002.347-2.654 2.359 2.359 0 00-2.347-2.632zm7.506 10.69a4.535 4.535 0 003.172 1.448c1.205 0 1.924-.55 1.924-1.449 0-.898-1.057-1.395-2.189-1.829-1.649-.581-3.573-1.28-3.573-3.721 0-1.808 1.448-3.33 4.007-3.33a5.381 5.381 0 013.838 1.5l-1.058 1.64a3.689 3.689 0 00-2.78-1.238c-1.057 0-1.787.54-1.787 1.28s.973 1.279 2.115 1.691c1.67.603 3.668 1.332 3.668 3.89 0 2-1.617 3.469-4.229 3.469a5.72 5.72 0 01-4.229-1.66l1.121-1.692zm11.916 7.505h-2.41v-16.08h2.41v1.543a3.52 3.52 0 013.002-1.84c2.623 0 4.23 2.347 4.23 6.111s-1.618 6.122-4.23 6.122a3.425 3.425 0 01-3.002-1.85v5.994zm2.273-14.262a2.696 2.696 0 00-2.273 1.596v4.78a2.78 2.78 0 002.273 1.617c1.67 0 2.485-1.766 2.485-4.007 0-2.242-.815-3.986-2.485-3.986zm13.248 9.811v-1.173a3.776 3.776 0 01-3.066 1.47 3.584 3.584 0 01-3.574-3.88 3.489 3.489 0 013.574-3.817 3.743 3.743 0 013.066 1.395v-1.692a2.05 2.05 0 00-2.252-2.188 3.912 3.912 0 00-2.886 1.332l-.941-1.692a5.984 5.984 0 014.229-1.691c2.431 0 4.229 1.131 4.229 3.986v7.95h-2.38zm0-4.419a2.548 2.548 0 00-2.2-1.3 1.989 1.989 0 00-2.019 2.177A1.987 1.987 0 0096.265 24a2.57 2.57 0 002.199-1.28v-1.765zm9.768-7.517a4.285 4.285 0 013.553 1.575l-1.237 1.639a2.453 2.453 0 00-2.115-1.057c-1.829 0-2.865 1.765-2.865 3.986 0 2.22 1.057 4.007 2.865 4.007a2.53 2.53 0 002.115-1.058l1.237 1.64a4.315 4.315 0 01-3.553 1.564c-3.108 0-5.117-2.601-5.117-6.122 0-3.52 2.009-6.174 5.117-6.174zm9.897 0c3.172 0 4.853 2.675 4.853 6.206v.698h-7.401c.095 1.903 1.163 3.352 3.045 3.352a3.593 3.593 0 002.632-1.248l1.153 1.448a5.29 5.29 0 01-3.997 1.777c-3.172 0-5.233-2.506-5.233-6.122-.053-3.383 1.839-6.111 4.948-6.111zm-2.58 5.191h5.086c0-1.448-.667-3.235-2.527-3.235-1.861 0-2.485 1.829-2.559 3.235z"/></g><defs><clipPath id="clip0_1_2356"><path fill="#fff" d="M0 0h123.722v36H0z"/></clipPath></defs></svg>