<svg width="332" height="278" viewBox="0 0 701 550" fill="none" xmlns="http://www.w3.org/2000/svg">
<path d="M457.356 323.928C457.186 323.928 457.016 323.919 456.846 323.909C457.346 320.969 457.866 318.019 458.556 315.059C459.216 317.909 459.726 320.739 460.206 323.579C459.272 323.8 458.316 323.918 457.356 323.928Z" fill="#222222"/>
<path d="M460.575 325.749C460.555 327.449 460.555 329.149 460.555 330.849C460.555 332.709 460.565 334.579 460.555 336.439V389.869C459.945 393.439 459.355 396.999 458.555 400.559C457.755 396.999 457.165 393.439 456.555 389.869V331.099C456.555 329.319 456.555 327.529 456.535 325.749C456.605 325.349 456.665 324.959 456.735 324.559C457.939 324.7 459.157 324.677 460.355 324.489C460.435 324.908 460.505 325.329 460.575 325.749Z" fill="#222222"/>
<path d="M392.706 235.388C392.706 235.388 392.916 235.759 393.326 236.339L393.306 236.359L390.366 239.509C389.166 240.359 387.966 241.209 386.676 241.969C387.356 240.638 388.126 239.388 388.886 238.129L391.116 235.759C392.086 235.559 392.706 235.388 392.706 235.388Z" fill="#222222"/>
<path d="M410.275 216.789C409.585 218.109 408.815 219.369 408.055 220.619L405.105 223.769L404.565 224.339C403.846 224.098 403.111 223.908 402.365 223.769L403.645 222.399L406.595 219.249C407.795 218.408 408.995 217.569 410.275 216.789Z" fill="#222222"/>
<path d="M442.963 241.015C443.118 240.668 443.357 240.366 443.658 240.134C443.883 239.964 444.147 239.854 444.427 239.813C444.706 239.775 444.99 239.809 445.251 239.914C445.602 240.054 445.911 240.282 446.15 240.574H446.153L446.165 240.593L446.153 240.611L446.155 240.611C446 240.956 445.761 241.256 445.459 241.483C445.233 241.651 444.968 241.759 444.689 241.794C444.409 241.828 444.125 241.79 443.863 241.685C443.512 241.539 443.203 241.309 442.963 241.015Z" fill="#222222"/>
<path d="M402.227 246.426L380.346 249.13C373.052 250.026 365.755 250.897 358.456 251.744C343.855 253.422 329.265 255.198 314.653 256.78L270.832 261.64L226.986 266.27L226.981 266.27C226.859 266.282 226.737 266.27 226.621 266.233C220.37 264.207 214.112 262.202 207.878 260.122L189.159 253.934C182.916 251.884 176.682 249.802 170.459 247.689L151.789 241.35L170.67 247.031C176.963 248.926 183.246 250.851 189.52 252.807L208.353 258.639C214.636 260.566 220.895 262.568 227.16 264.549L226.796 264.512L270.618 259.66L314.465 255.037C329.076 253.458 343.709 252.073 358.331 250.59C365.641 249.846 372.956 249.137 380.274 248.463L402.227 246.426Z" fill="#222222"/>
<path d="M151.787 250.668C157.983 252.825 164.14 255.084 170.315 257.295L188.778 264.09L198.006 267.498L207.204 270.983L225.6 277.952L225.131 277.896C233.897 276.712 242.682 275.665 251.46 274.565L277.799 271.315L304.162 268.243C312.957 267.278 321.747 266.275 330.552 265.388C321.807 266.745 313.048 267.987 304.293 269.268L278.006 272.931L251.697 276.415C242.925 277.56 234.159 278.758 225.376 279.818L225.365 279.82C225.21 279.838 225.052 279.818 224.906 279.762L206.569 272.637L197.401 269.075L188.262 265.436L169.992 258.136C163.923 255.648 157.835 253.209 151.787 250.668Z" fill="#222222"/>
<path d="M224.508 368.413C224.321 359.818 224.26 351.227 224.327 342.639C224.366 334.049 224.522 325.463 224.701 316.877C224.917 308.292 225.158 299.707 225.516 291.126C225.845 282.543 226.303 273.964 226.891 265.388C227.081 273.982 227.143 282.573 227.076 291.162C227.036 299.751 226.88 308.337 226.699 316.923C226.48 325.508 226.239 334.093 225.881 342.675C225.551 351.257 225.094 359.836 224.508 368.413Z" fill="#222222"/>
<path d="M492.737 172.825C491.506 172.275 490.377 171.522 489.396 170.597C488.424 169.645 487.584 168.568 486.896 167.394C486.221 166.214 485.663 164.97 485.229 163.682C484.792 162.38 484.476 161.04 484.287 159.679C484.278 159.617 484.28 159.554 484.291 159.492L484.313 159.38C484.621 157.982 484.78 156.555 484.786 155.124C484.796 153.698 484.646 152.276 484.337 150.885C483.724 148.111 482.572 145.485 480.945 143.156L481.054 143.272C479.324 141.618 477.397 140.183 475.317 138.999C473.206 137.84 470.913 137.047 468.537 136.655C463.661 136.039 458.716 137.01 454.436 139.425C453.36 140 452.322 140.645 451.33 141.355C450.835 141.709 450.349 142.075 449.882 142.456C449.663 142.637 449.387 142.862 449.241 143.015C449.055 143.215 448.864 143.449 448.68 143.676C447.249 145.583 446.171 147.731 445.498 150.018C444.821 152.294 444.465 154.653 444.442 157.027C444.466 159.409 444.752 161.782 445.294 164.101C445.329 164.267 445.332 164.438 445.303 164.605C445.076 165.855 444.832 167.079 444.555 168.314C444.291 169.573 443.956 170.816 443.552 172.038C443.364 172.61 442.915 173.608 443.016 173.4C442.974 173.329 443.039 173.516 443.392 173.762C444.193 174.25 445.109 174.52 446.047 174.546L446.142 174.542C446.352 174.535 446.56 174.579 446.749 174.671C446.938 174.762 447.101 174.899 447.225 175.069C448.627 177.009 450.108 178.922 451.579 180.816C453.012 182.698 454.567 184.483 456.233 186.161C456.439 186.348 456.645 186.525 456.846 186.678C456.941 186.746 457.042 186.818 457.125 186.867L457.236 186.929C457.269 186.947 457.262 186.935 457.274 186.949C457.314 186.971 457.187 186.928 457.153 186.963C457.122 186.981 457.252 186.942 457.294 186.935C457.424 186.908 457.554 186.874 457.681 186.833C457.944 186.76 458.217 186.663 458.486 186.572C459.581 186.169 460.642 185.678 461.658 185.105C463.739 184.034 465.53 182.476 466.878 180.563L466.911 180.513C466.938 180.47 466.973 180.434 467.015 180.405C467.056 180.377 467.102 180.357 467.151 180.346C467.2 180.335 467.251 180.334 467.3 180.343C467.35 180.352 467.397 180.371 467.439 180.398L467.481 180.429C468.079 180.935 468.636 181.489 469.146 182.084C469.404 182.382 469.636 182.702 469.837 183.042C470.055 183.382 470.204 183.761 470.277 184.158C470.282 184.189 470.274 184.221 470.257 184.246C470.239 184.272 470.213 184.29 470.182 184.297C470.152 184.304 470.12 184.3 470.093 184.284C470.066 184.269 470.046 184.244 470.036 184.214L470.034 184.207C469.749 183.531 469.305 182.935 468.741 182.467C468.197 181.961 467.613 181.499 466.995 181.086L467.597 180.951C466.39 183.187 464.621 185.069 462.464 186.411C461.415 187.112 460.312 187.727 459.165 188.25C458.868 188.375 458.579 188.508 458.263 188.615C458.111 188.673 457.951 188.727 457.779 188.775C457.681 188.808 457.581 188.833 457.479 188.851C457.289 188.881 457.096 188.878 456.907 188.843C456.48 188.744 456.076 188.563 455.717 188.31C455.423 188.113 455.157 187.909 454.901 187.703C453.038 186.053 451.308 184.26 449.726 182.338C448.122 180.481 446.625 178.566 445.128 176.616L446.306 177.139C445.522 177.188 444.735 177.103 443.98 176.886C443.236 176.695 442.53 176.38 441.892 175.953C441.5 175.694 441.159 175.366 440.885 174.984C440.529 174.5 440.347 173.909 440.369 173.308C440.376 173.014 440.435 172.724 440.544 172.452L440.685 172.099L440.761 171.929C440.864 171.712 440.962 171.435 441.056 171.171C441.791 168.863 442.4 166.517 442.88 164.144L442.889 164.647C442.373 162.123 442.138 159.549 442.188 156.973C442.292 154.386 442.799 151.83 443.691 149.399C443.91 148.792 444.188 148.207 444.446 147.617C444.756 147.05 445.015 146.46 445.367 145.918C446.017 144.803 446.779 143.757 447.641 142.796C447.864 142.556 448.079 142.322 448.332 142.085C448.587 141.866 448.853 141.661 449.13 141.471C449.648 141.102 450.177 140.755 450.713 140.423C451.785 139.757 452.903 139.178 454.03 138.624C458.554 136.348 463.602 135.316 468.656 135.634C471.208 135.848 473.706 136.488 476.046 137.527C478.39 138.584 480.563 139.987 482.491 141.689C482.528 141.721 482.562 141.756 482.592 141.793L482.601 141.804C483.589 143.069 484.41 144.454 485.046 145.927C485.688 147.374 486.161 148.891 486.454 150.447C486.776 152 486.899 153.587 486.818 155.171C486.748 156.748 486.502 158.313 486.084 159.836L486.11 159.537C486.205 160.787 486.414 162.025 486.734 163.237C487.043 164.466 487.463 165.666 487.988 166.82C488.521 167.973 489.193 169.055 489.989 170.044C490.812 171.034 491.776 171.897 492.852 172.605L492.859 172.61C492.885 172.628 492.903 172.654 492.91 172.684C492.917 172.715 492.912 172.747 492.897 172.774C492.881 172.801 492.856 172.821 492.827 172.83C492.797 172.84 492.765 172.838 492.737 172.825L492.737 172.825Z" fill="#222222"/>
<path d="M447.519 171.424C447.303 171.424 447.091 171.368 446.903 171.261C446.715 171.154 446.559 171 446.449 170.814L443.024 165.005C442.94 164.865 442.885 164.709 442.862 164.548C442.839 164.386 442.848 164.221 442.888 164.063C442.929 163.905 443 163.757 443.098 163.626C443.196 163.496 443.319 163.386 443.46 163.303C443.6 163.22 443.756 163.165 443.918 163.142C444.079 163.12 444.244 163.129 444.402 163.17C444.56 163.211 444.708 163.283 444.839 163.381C444.969 163.479 445.079 163.603 445.161 163.743L448.587 169.552C448.698 169.74 448.758 169.955 448.759 170.174C448.761 170.393 448.705 170.608 448.596 170.798C448.488 170.988 448.331 171.146 448.142 171.256C447.953 171.366 447.738 171.424 447.519 171.424Z" fill="#222222"/>
<path d="M444.845 166.27C444.713 166.27 444.584 166.227 444.478 166.149C444.372 166.071 444.293 165.961 444.253 165.835C444.214 165.709 444.215 165.574 444.258 165.449C444.3 165.324 444.381 165.216 444.49 165.14C446.29 163.884 462.187 152.895 465.568 153.031C465.649 153.034 465.729 153.054 465.803 153.089C465.877 153.123 465.943 153.172 465.998 153.232C466.053 153.292 466.095 153.363 466.123 153.439C466.151 153.516 466.163 153.597 466.159 153.679C466.15 153.843 466.076 153.996 465.955 154.106C465.834 154.217 465.675 154.276 465.511 154.271C465.496 154.27 465.48 154.27 465.464 154.27C463.121 154.27 451.822 161.539 445.199 166.157C445.096 166.23 444.972 166.269 444.845 166.27Z" fill="#222222"/>
<path d="M463.751 156.629C463.729 155.703 464.027 154.797 464.595 154.064C464.767 153.865 464.976 153.702 465.211 153.585C465.447 153.468 465.703 153.4 465.965 153.384L466.365 153.377C466.493 153.392 466.612 153.429 466.737 153.456C466.98 153.503 467.216 153.585 467.436 153.7C467.867 153.898 468.275 154.143 468.651 154.432C468.994 154.735 469.356 155.011 469.685 155.342C470.342 156.012 470.884 156.786 471.291 157.632C472.068 159.335 472.288 161.239 471.92 163.075C471.753 163.988 471.399 164.856 470.881 165.625C470.615 166.025 470.249 166.348 469.819 166.562C469.605 166.67 469.361 166.704 469.125 166.659C468.89 166.613 468.676 166.491 468.517 166.31C468.688 166.421 468.889 166.476 469.093 166.467C469.296 166.459 469.492 166.387 469.652 166.261C469.961 166.007 470.204 165.681 470.358 165.311C470.694 164.558 470.899 163.753 470.963 162.931C471.122 161.297 470.848 159.651 470.167 158.157C469.829 157.423 469.38 156.745 468.835 156.148C468.57 155.842 468.252 155.566 467.962 155.27C467.66 155.01 467.339 154.773 467.001 154.562C466.723 154.334 466.378 154.204 466.018 154.194C465.659 154.183 465.306 154.291 465.014 154.502C464.404 155.08 463.967 155.817 463.751 156.629Z" fill="#222222"/>
<path d="M448.676 179.557C449.626 179.452 450.568 179.274 451.492 179.026C451.915 178.908 452.326 178.748 452.717 178.547C453.139 178.356 453.531 178.086 454.046 177.826C453.962 178.387 453.704 178.908 453.308 179.315C452.912 179.742 452.407 180.053 451.847 180.215C451.297 180.376 450.717 180.403 450.155 180.295C449.599 180.201 449.085 179.944 448.676 179.557Z" fill="#222222"/>
<path d="M444.844 161.956C444.8 161.105 445.078 160.269 445.623 159.614C446.165 158.94 446.879 158.425 447.689 158.123C448.475 157.834 449.309 157.701 450.145 157.73C450.55 157.761 450.953 157.813 451.353 157.886C451.746 157.987 452.131 158.114 452.507 158.268C452.122 158.367 451.731 158.443 451.337 158.495C450.956 158.565 450.585 158.648 450.216 158.696C449.508 158.835 448.812 159.031 448.135 159.281C446.762 159.766 445.6 160.711 444.844 161.956Z" fill="#222222"/>
<path d="M450.05 167.26C450.412 167.247 450.755 167.095 451.007 166.834C451.258 166.574 451.399 166.226 451.399 165.863C451.399 165.501 451.258 165.153 451.007 164.893C450.755 164.632 450.412 164.48 450.05 164.467C449.688 164.48 449.345 164.632 449.093 164.893C448.842 165.153 448.701 165.501 448.701 165.863C448.701 166.226 448.842 166.574 449.093 166.834C449.345 167.095 449.688 167.247 450.05 167.26Z" fill="#222222"/>
<path d="M478.198 202.651C476.778 201.468 475.167 200.536 473.434 199.894C471.724 199.253 469.95 198.799 468.143 198.541C466.325 198.267 464.49 198.116 462.652 198.089L459.865 198.102C458.934 198.144 458 198.191 457.049 198.183C457.954 197.919 458.876 197.709 459.801 197.496C460.734 197.354 461.674 197.211 462.62 197.121C464.526 196.968 466.443 197.033 468.335 197.315C470.242 197.594 472.094 198.167 473.826 199.013C475.572 199.829 477.078 201.082 478.198 202.651Z" fill="#222222"/>
<path d="M408.549 253.568C409.079 251.809 409.784 250.108 410.652 248.489C411.499 246.851 412.491 245.293 413.616 243.831C414.734 242.344 416.04 241.009 417.503 239.859C418.95 238.678 420.664 237.869 422.496 237.502C420.891 238.304 419.419 239.348 418.131 240.596C416.847 241.829 415.665 243.164 414.598 244.589C412.395 247.409 410.511 250.478 408.549 253.568Z" fill="#222222"/>
<path d="M452.506 272.652C453.065 272.793 453.646 272.823 454.216 272.738C454.782 272.675 455.339 272.549 455.877 272.361L456.67 272.048C456.93 271.937 457.174 271.783 457.425 271.653C457.925 271.384 458.404 271.076 458.856 270.732C460.672 269.353 462.289 267.729 463.661 265.907C464.325 264.976 465 264.052 465.636 263.102C466.232 262.122 466.872 261.172 467.431 260.17L469.095 257.155L470.611 254.056C472.615 249.891 474.574 245.681 476.646 241.539L479.747 235.32C480.821 233.267 481.857 231.196 482.964 229.162C482.109 231.322 481.182 233.446 480.293 235.588L477.506 241.953C475.637 246.194 473.718 250.396 471.731 254.59C469.794 258.851 467.331 262.854 464.4 266.504C462.895 268.317 461.142 269.91 459.193 271.234C458.695 271.553 458.173 271.833 457.632 272.07C457.36 272.184 457.098 272.321 456.818 272.416L455.971 272.674C454.84 273.017 453.632 273.009 452.506 272.652Z" fill="#222222"/>
<path d="M451.361 244.677C451.286 244.677 451.212 244.664 451.143 244.637L445.588 242.551C445.434 242.493 445.31 242.376 445.242 242.226C445.175 242.077 445.169 241.906 445.227 241.753C445.285 241.599 445.401 241.474 445.551 241.406C445.7 241.338 445.87 241.332 446.024 241.389L451.579 243.475C451.715 243.526 451.829 243.623 451.901 243.75C451.972 243.876 451.997 244.024 451.971 244.167C451.945 244.31 451.87 244.439 451.759 244.533C451.647 244.626 451.506 244.677 451.361 244.677V244.677Z" fill="#222222"/>
<path d="M405.736 243.131C404.4 243.548 402.985 243.641 401.606 243.404C400.206 243.15 398.866 242.638 397.653 241.896C396.45 241.163 395.342 240.282 394.355 239.276C393.367 238.259 392.489 237.14 391.737 235.938L392.999 236.462C390.436 237.12 387.792 237.405 385.148 237.31C383.795 237.289 382.454 237.061 381.17 236.635C380.484 236.403 379.877 235.984 379.416 235.426C379.176 235.139 378.994 234.81 378.878 234.454C378.793 234.08 378.793 233.691 378.878 233.316C379.064 232.63 379.426 232.005 379.929 231.503C380.375 231.007 380.866 230.551 381.394 230.142C382.416 229.32 383.492 228.567 384.614 227.887C386.823 226.519 389.126 225.309 391.505 224.263C392.703 223.772 393.825 223.199 395.201 222.777C396.542 222.368 397.933 222.151 399.335 222.131C400.72 222.125 402.099 222.311 403.433 222.682C404.753 223.011 406.035 223.474 407.261 224.063C409.648 225.23 411.861 226.725 413.835 228.504C415.801 230.223 417.546 232.18 419.03 234.328C419.047 234.353 419.054 234.384 419.051 234.414C419.047 234.444 419.033 234.471 419.011 234.492C418.988 234.512 418.959 234.523 418.929 234.524C418.899 234.524 418.869 234.514 418.846 234.494L418.84 234.489C415.112 231.111 410.865 228.355 406.262 226.325C405.153 225.852 404 225.492 402.819 225.25C401.678 224.942 400.503 224.781 399.321 224.77C398.155 224.733 396.99 224.856 395.857 225.134C394.761 225.399 393.551 225.92 392.356 226.343C389.982 227.248 387.591 228.109 385.273 229.124C384.125 229.636 383.014 230.227 381.949 230.893C381.436 231.233 380.957 231.62 380.516 232.048C380.093 232.439 379.782 232.934 379.612 233.483C379.544 233.738 379.547 234.007 379.62 234.261C379.694 234.514 379.835 234.743 380.029 234.922C380.404 235.346 380.906 235.637 381.461 235.752C382.657 235.996 383.887 236.028 385.095 235.848C387.558 235.464 390 234.952 392.411 234.315C392.649 234.26 392.899 234.281 393.126 234.375C393.352 234.469 393.544 234.631 393.673 234.839C394.325 235.904 395.07 236.91 395.898 237.844C396.718 238.8 397.634 239.67 398.631 240.439C399.622 241.208 400.724 241.821 401.9 242.256C403.116 242.694 404.402 242.907 405.694 242.886C405.727 242.885 405.759 242.898 405.784 242.921C405.808 242.944 405.822 242.975 405.822 243.009C405.822 243.036 405.814 243.062 405.799 243.084C405.783 243.106 405.761 243.122 405.736 243.131Z" fill="#222222"/>
<path d="M426.724 330.417L429.511 337.226C429.524 337.257 429.527 337.292 429.521 337.325C429.515 337.358 429.499 337.389 429.476 337.413C429.452 337.438 429.422 337.455 429.389 337.463C429.356 337.47 429.322 337.469 429.29 337.457L429.279 337.453C427.88 336.907 426.415 336.55 424.922 336.391C423.437 336.266 421.941 336.378 420.491 336.721C417.608 337.533 414.989 339.089 412.897 341.233C410.779 343.365 408.95 345.767 407.458 348.376C405.927 350.965 404.639 353.69 403.61 356.517L403.608 356.523C403.573 356.62 403.51 356.703 403.426 356.763C403.342 356.822 403.242 356.855 403.14 356.856C403.037 356.857 402.936 356.827 402.851 356.77C402.766 356.712 402.701 356.63 402.664 356.534L397.253 342.553L391.932 328.538L392.92 328.299L394.824 347.681C395.44 354.143 396.109 360.6 396.783 367.056C396.787 367.099 396.778 367.142 396.757 367.179C395.294 369.48 393.082 371.205 390.494 372.062C387.959 372.935 385.309 373.43 382.629 373.532C379.963 373.659 377.291 373.597 374.634 373.346C371.974 373.107 369.331 372.711 366.718 372.16C366.656 372.147 366.599 372.115 366.555 372.069C366.512 372.023 366.483 371.964 366.473 371.901L366.472 371.893C364.951 362.09 363.675 352.256 362.642 342.391C361.639 332.523 360.873 322.624 360.617 312.691C360.596 310.206 360.573 307.721 360.608 305.235L360.733 301.505L360.802 299.64L360.955 297.776L361.27 294.048L361.834 290.335C362.03 289.095 362.302 287.867 362.648 286.66C362.807 286.052 362.946 285.438 363.121 284.835L363.784 283.062L364.457 281.293C364.735 280.726 365.041 280.171 365.332 279.61C365.635 279.055 365.906 278.482 366.234 277.942L367.326 276.385C368.061 275.351 368.881 274.381 369.778 273.485C370.228 273.037 370.704 272.616 371.202 272.224C371.671 271.796 372.175 271.409 372.709 271.066L374.305 270.032L376.008 269.186C376.579 268.915 377.167 268.678 377.767 268.478C378.356 268.248 378.961 268.06 379.576 267.915C382.023 267.245 384.567 267.002 387.096 267.197L386.689 267.429C387.219 266.288 387.874 265.211 388.643 264.216C389.432 263.241 390.323 262.355 391.302 261.572C393.287 260.063 395.521 258.915 397.903 258.178C400.263 257.451 402.697 256.986 405.159 256.792C407.609 256.578 410.074 256.585 412.523 256.815C412.54 256.816 412.555 256.824 412.565 256.837C412.576 256.85 412.581 256.866 412.579 256.882C412.577 256.899 412.569 256.914 412.556 256.924C412.543 256.934 412.527 256.939 412.51 256.938C410.07 256.781 407.621 256.845 405.193 257.129C402.77 257.39 400.384 257.918 398.077 258.703C395.778 259.457 393.627 260.605 391.721 262.097C390.797 262.86 389.958 263.721 389.218 264.664C388.502 265.621 387.895 266.655 387.408 267.746C387.375 267.819 387.32 267.88 387.252 267.922C387.183 267.963 387.104 267.983 387.023 267.979L387.001 267.978C382.121 267.703 377.29 269.085 373.293 271.899C369.393 274.824 366.481 278.871 364.948 283.499L364.312 285.208C364.144 285.793 364.011 286.39 363.859 286.98C363.525 288.155 363.264 289.349 363.076 290.556L362.533 294.192L362.233 297.871L362.087 299.711L362.023 301.559L361.91 305.257C361.877 307.725 361.92 310.196 361.928 312.665C362.11 322.548 362.821 332.428 363.733 342.284C364.627 352.143 365.755 361.98 367.115 371.794L366.868 371.528C369.446 372.113 372.056 372.546 374.685 372.825C377.314 373.123 379.963 373.212 382.606 373.093C385.244 373.009 387.856 372.537 390.358 371.693C392.869 370.889 395.013 369.217 396.404 366.977L396.378 367.1C395.663 360.648 394.944 354.196 394.171 347.751L391.901 328.409C391.886 328.285 391.918 328.161 391.988 328.058C392.059 327.956 392.165 327.883 392.286 327.853C392.407 327.823 392.535 327.838 392.645 327.895C392.756 327.953 392.841 328.048 392.887 328.165L392.889 328.171L398.294 342.154L403.604 356.174L402.658 356.192C403.729 353.308 405.066 350.53 406.653 347.895C408.219 345.239 410.137 342.807 412.355 340.665C414.575 338.476 417.331 336.909 420.348 336.121C421.867 335.79 423.431 335.715 424.975 335.899C426.502 336.109 427.995 336.523 429.414 337.127L429.183 337.355L426.608 330.462C426.603 330.447 426.603 330.43 426.61 330.415C426.616 330.4 426.629 330.388 426.644 330.382C426.659 330.376 426.676 330.377 426.691 330.383C426.706 330.389 426.718 330.401 426.724 330.417H426.724Z" fill="#222222"/>
<path d="M392.412 328.354L393.517 338.581L386.678 299.795L394.149 332.884L392.412 328.354Z" fill="#222222"/>
<path d="M443.071 273.731C429.272 273.731 388.893 268.456 386.969 268.203C386.888 268.193 386.81 268.167 386.739 268.126C386.669 268.086 386.607 268.031 386.557 267.967C386.507 267.902 386.47 267.828 386.449 267.749C386.428 267.671 386.422 267.588 386.433 267.507C386.444 267.426 386.47 267.348 386.511 267.278C386.552 267.207 386.606 267.145 386.671 267.095C386.736 267.046 386.81 267.009 386.888 266.988C386.967 266.967 387.05 266.962 387.13 266.973C387.659 267.041 440.083 273.886 446.611 272.25C446.69 272.23 446.772 272.226 446.853 272.237C446.934 272.249 447.011 272.276 447.081 272.318C447.152 272.36 447.213 272.415 447.262 272.481C447.31 272.546 447.346 272.621 447.366 272.7C447.386 272.779 447.39 272.861 447.378 272.942C447.366 273.023 447.338 273.101 447.296 273.171C447.254 273.241 447.198 273.302 447.133 273.35C447.067 273.399 446.992 273.434 446.913 273.453C445.646 273.682 444.358 273.775 443.071 273.731Z" fill="#222222"/>
<path d="M537.175 205.629C537.175 205.629 492.495 195.209 481.475 248.529C470.455 301.839 467.645 297.969 467.645 297.969C447.535 327.119 408.315 309.239 399.415 304.649C398.404 304.101 397.251 303.874 396.108 303.997C394.965 304.12 393.886 304.588 393.015 305.339C390.625 307.529 390.995 311.069 390.995 311.069L391.165 315.079C391.196 315.725 391.365 316.357 391.662 316.931C391.959 317.506 392.376 318.01 392.885 318.408C407.385 329.928 433.195 332.319 456.555 331.099C457.895 331.029 459.235 330.949 460.555 330.849C480.745 329.439 498.455 325.479 504.415 322.698C517.815 316.439 521.685 319.119 542.535 264.009C563.395 208.908 537.175 205.629 537.175 205.629ZM546.065 220.319L546.055 220.309C540.196 217.116 533.451 215.935 526.855 216.949C520.375 218.039 514.705 221.829 510.365 226.699C508.177 229.161 506.228 231.827 504.545 234.659C502.824 237.5 501.294 240.453 499.965 243.499C497.345 249.649 495.156 255.974 493.415 262.429C492.565 265.669 491.675 268.919 490.915 272.199C490.515 273.839 490.045 275.459 489.625 277.089C489.205 278.719 488.755 280.339 488.295 281.959C486.597 288.501 484.489 294.93 481.985 301.209C481.355 302.779 480.595 304.299 479.865 305.829C479.045 307.329 478.295 308.849 477.365 310.279C475.61 313.229 473.512 315.962 471.115 318.419C468.711 320.931 465.747 322.84 462.465 323.989C461.777 324.212 461.071 324.379 460.355 324.489C459.158 324.677 457.94 324.7 456.735 324.559C455.22 324.373 453.762 323.868 452.455 323.079C452.444 323.072 452.434 323.063 452.426 323.052C452.418 323.041 452.413 323.028 452.41 323.015C452.407 323.002 452.407 322.989 452.41 322.975C452.412 322.962 452.418 322.95 452.425 322.939C452.437 322.919 452.456 322.904 452.478 322.896C452.5 322.889 452.524 322.89 452.545 322.899L452.555 322.909C453.903 323.528 455.362 323.868 456.845 323.909C457.015 323.919 457.185 323.929 457.356 323.929C458.315 323.918 459.271 323.8 460.205 323.579C460.857 323.425 461.498 323.231 462.126 322.999C465.143 321.727 467.836 319.792 470.005 317.339C472.227 314.895 474.185 312.224 475.845 309.369C476.725 307.959 477.475 306.469 478.275 305.019C478.985 303.509 479.805 302.059 480.465 300.529C483.32 294.463 485.726 288.196 487.665 281.779C488.665 278.569 489.435 275.299 490.225 272.039C490.985 268.759 491.615 265.469 492.356 262.169C493.731 255.536 495.699 249.04 498.235 242.759C500.739 236.374 504.306 230.461 508.785 225.269C511.107 222.687 513.82 220.487 516.825 218.749C519.849 217.018 523.175 215.881 526.626 215.399C533.494 214.621 540.416 216.3 546.165 220.138C546.177 220.146 546.186 220.155 546.194 220.166C546.202 220.177 546.207 220.189 546.21 220.202C546.213 220.215 546.213 220.229 546.21 220.242C546.208 220.255 546.203 220.267 546.195 220.279C546.181 220.299 546.161 220.314 546.137 220.321C546.114 220.329 546.088 220.328 546.065 220.319H546.065Z" fill="#D1A00A"/>
<path d="M502.153 399.896C502.132 400.923 501.808 401.921 501.22 402.763C500.642 403.593 499.945 404.332 499.15 404.957C497.569 406.198 495.845 407.245 494.015 408.074C490.36 409.74 486.549 411.039 482.638 411.95C474.825 413.804 466.804 414.637 458.776 414.43C450.776 414.222 442.813 413.268 434.99 411.581C431.065 410.787 427.22 409.644 423.499 408.164C421.612 407.409 419.825 406.428 418.175 405.241C417.322 404.622 416.57 403.873 415.947 403.022C415.277 402.112 414.893 401.024 414.844 399.896C414.844 398.752 415.183 397.635 415.817 396.683C416.411 395.784 417.141 394.982 417.98 394.306C419.591 393.004 421.372 391.929 423.275 391.112C426.988 389.489 430.864 388.265 434.836 387.461C442.709 385.821 450.734 385.019 458.776 385.071C466.813 385.034 474.826 385.952 482.646 387.805C486.556 388.728 490.367 390.033 494.023 391.699C495.854 392.531 497.579 393.58 499.159 394.825C499.953 395.451 500.65 396.193 501.226 397.025C501.812 397.869 502.135 398.868 502.153 399.896ZM501.905 399.896C501.87 397.916 500.464 396.271 498.929 395.112C497.34 393.949 495.596 393.013 493.748 392.332C490.049 390.965 486.218 389.984 482.318 389.405C474.526 388.232 466.655 387.668 458.776 387.719C450.907 387.683 443.051 388.362 435.305 389.749C431.465 390.449 427.699 391.51 424.059 392.918C422.281 393.616 420.595 394.527 419.037 395.631C417.547 396.722 416.264 398.199 416.203 399.896C416.151 401.598 417.381 403.213 418.841 404.406C420.36 405.627 422.04 406.631 423.835 407.39C427.468 408.943 431.264 410.084 435.152 410.793C439.041 411.523 442.976 411.989 446.929 412.187C450.876 412.428 454.831 412.451 458.776 412.364C466.66 412.245 474.528 411.597 482.325 410.424C486.226 409.833 490.056 408.846 493.756 407.479C495.605 406.796 497.349 405.858 498.938 404.691C500.472 403.529 501.875 401.876 501.905 399.896Z" fill="#222222"/>
<path d="M394.325 369.715C394.978 370.908 395.461 372.187 395.759 373.514C396.104 374.824 396.368 376.151 396.595 377.483C397.039 380.148 397.399 382.826 397.65 385.513C397.767 386.87 397.899 388.171 397.964 389.574C397.997 390.992 397.756 392.403 397.254 393.729C397.001 394.398 396.669 395.033 396.265 395.624C395.857 396.194 395.41 396.736 394.928 397.245C393.968 398.262 392.859 399.127 391.64 399.812C389.214 401.139 386.533 401.929 383.776 402.131C382.412 402.25 381.039 402.218 379.683 402.034C379.001 401.952 378.327 401.812 377.668 401.616C377.014 401.414 376.386 401.186 375.749 400.955C370.653 399.103 366.019 396.286 361.007 394.363C356.028 392.379 350.89 390.707 345.956 388.459C343.437 387.38 341.045 386.027 338.821 384.425C337.699 383.585 336.686 382.608 335.808 381.516C335.304 380.901 334.979 380.16 334.867 379.373C334.81 378.968 334.819 378.557 334.895 378.156C334.984 377.768 335.121 377.393 335.305 377.04C336.07 375.764 337.201 374.747 338.55 374.119C339.818 373.488 341.182 373.073 342.587 372.89C343.282 372.797 343.983 372.752 344.684 372.754C345.38 372.782 346.1 372.835 346.737 372.887C348.048 372.998 349.385 372.997 350.719 372.979C356.069 372.871 361.434 372.353 366.783 371.783C366.8 371.781 366.816 371.785 366.829 371.795C366.842 371.805 366.85 371.82 366.853 371.836C366.854 371.852 366.85 371.868 366.841 371.881C366.831 371.893 366.818 371.902 366.802 371.905C361.5 372.922 356.139 373.604 350.751 373.949C349.396 374.005 348.039 374.045 346.664 373.968C345.959 373.93 345.334 373.905 344.686 373.894C344.042 373.91 343.399 373.97 342.763 374.073C341.5 374.275 340.276 374.672 339.135 375.25C338.034 375.772 337.11 376.606 336.48 377.649C336.222 378.135 336.12 378.688 336.186 379.233C336.252 379.779 336.484 380.291 336.85 380.701C337.665 381.704 338.592 382.611 339.613 383.402C341.738 384.98 344.03 386.32 346.446 387.399C351.284 389.684 356.344 391.517 361.274 393.738C363.744 394.829 366.143 396.073 368.543 397.292C370.905 398.566 373.363 399.656 375.894 400.55C377.13 401.039 378.423 401.368 379.742 401.528C381.062 401.646 382.391 401.618 383.705 401.444C386.325 401.133 388.85 400.274 391.115 398.922C392.226 398.254 393.239 397.435 394.124 396.488C395.022 395.577 395.741 394.505 396.241 393.328C396.714 392.137 396.952 390.866 396.943 389.585C396.906 388.299 396.794 386.918 396.701 385.593C396.493 382.917 396.296 380.239 395.951 377.579C395.735 374.912 395.152 372.286 394.218 369.778L394.216 369.772C394.209 369.757 394.209 369.741 394.214 369.726C394.219 369.711 394.23 369.699 394.244 369.692C394.258 369.685 394.274 369.683 394.289 369.687C394.304 369.691 394.317 369.701 394.325 369.715L394.325 369.715Z" fill="#222222"/>
<path d="M371.679 372.725C371.801 374.159 372.011 375.584 372.307 376.993C372.577 378.381 372.984 379.739 373.524 381.047C374.001 382.302 374.825 383.397 375.9 384.202C376.42 384.551 377.018 384.767 377.641 384.833C378.287 384.882 378.936 384.814 379.558 384.633C380.876 384.242 382.121 383.635 383.241 382.837C384.403 382.076 385.441 381.141 386.319 380.064C388.114 377.85 389.142 375.114 389.248 372.266C389.619 375.233 388.848 378.23 387.09 380.649C385.295 383.098 382.769 384.912 379.875 385.832C379.105 386.043 378.303 386.112 377.508 386.037C376.691 385.945 375.909 385.646 375.238 385.17C374.007 384.207 373.097 382.894 372.628 381.403C371.724 378.605 371.401 375.652 371.679 372.725Z" fill="#222222"/>
<path d="M350.262 380.557C349.923 379.771 349.808 378.907 349.93 378.06C350.033 377.188 350.346 376.354 350.841 375.629C351.335 374.905 351.994 374.309 352.764 373.891C353.136 373.684 353.529 373.519 353.936 373.398C354.344 373.295 354.759 373.229 355.178 373.201C354.856 373.489 354.518 373.697 354.208 373.943C353.911 374.207 353.585 374.409 353.321 374.684C353.186 374.816 353.047 374.941 352.906 375.06L352.536 375.47C352.288 375.735 352.064 376.021 351.868 376.326C351.039 377.607 350.492 379.049 350.262 380.557Z" fill="#222222"/>
<path d="M356.963 380.557C356.618 379.785 356.51 378.928 356.653 378.095C356.778 377.258 357.061 376.451 357.488 375.72C357.919 375.004 358.464 374.363 359.101 373.823C359.419 373.562 359.753 373.322 360.102 373.105C360.463 372.906 360.837 372.734 361.223 372.59C361.001 372.927 360.761 373.251 360.504 373.563L359.805 374.489C359.357 375.087 358.941 375.707 358.558 376.348C357.778 377.644 357.237 379.069 356.963 380.557Z" fill="#222222"/>
<path d="M368.644 403.915C366.32 403.159 364.078 402.169 361.954 400.961C358.33 398.888 352 395.326 350.212 394.631C344.578 392.422 337.889 390.139 335.48 386.44C331.373 380.135 335.478 376.879 335.478 376.879C336.778 383.815 344.901 387.706 356.518 392.174C368.135 396.642 369.574 398.752 377.518 401.333C381.737 402.711 391.307 401.892 395.812 395.301C396.133 394.833 396.408 394.334 396.631 393.812L397.456 387.335C403.553 411.515 377.579 406.807 368.644 403.915Z" fill="#222222"/>
<path d="M405.191 385.346C403.95 384.941 402.868 384.156 402.098 383.102C401.327 382.048 400.908 380.779 400.898 379.473C400.787 377.602 401.276 375.745 402.295 374.171C403.313 372.598 404.807 371.391 406.56 370.727C412.85 368.078 415.829 360.386 416.95 356.578C417.888 353.341 419.34 350.276 421.249 347.499C424.381 342.985 429.295 338.47 435.291 341.695C437.37 342.879 438.947 344.779 439.731 347.039C441.232 351.067 443.639 355.044 437.124 363.906C436.067 365.323 434.925 366.674 433.705 367.953C431.816 369.992 430.337 372.375 429.347 374.972C428.442 377.503 419.581 389.923 405.191 385.346Z" fill="#222222"/>
<path d="M406.379 349.304C407.007 352.517 407.003 355.821 406.366 359.032C405.765 362.265 404.649 365.38 403.061 368.259C402.268 369.676 401.397 371.047 400.451 372.367C400.031 373.009 399.699 373.704 399.463 374.433C399.256 375.176 399.171 375.946 399.211 376.716C399.208 378.3 399.491 379.872 400.046 381.356C400.29 382.114 400.727 382.795 401.315 383.332C401.902 383.869 402.62 384.243 403.396 384.418C402.574 384.351 401.794 384.026 401.168 383.489C400.55 382.936 400.052 382.263 399.702 381.511C399.01 380.011 398.612 378.392 398.53 376.742C398.456 375.899 398.504 375.05 398.673 374.221C398.867 373.394 399.176 372.598 399.592 371.857C400.443 370.409 401.285 369.135 402.001 367.696C403.475 364.884 404.592 361.9 405.329 358.812C406.103 355.704 406.456 352.506 406.379 349.304Z" fill="#222222"/>
<path d="M426.691 336.436C427.282 336.474 427.861 336.618 428.401 336.859C428.935 337.084 429.439 337.373 429.902 337.719C430.375 338.071 430.793 338.49 431.143 338.964C431.523 339.443 431.757 340.022 431.817 340.63C431.328 340.258 430.891 339.963 430.456 339.647L429.156 338.71C428.245 338.055 427.417 337.291 426.691 336.436Z" fill="#222222"/>
<path d="M410.664 255.249C410.666 255.268 410.664 255.287 410.659 255.305C410.654 255.324 410.645 255.341 410.633 255.355C410.62 255.37 410.606 255.383 410.589 255.392C410.572 255.401 410.553 255.407 410.534 255.408L370.624 261.009L331.624 266.309L331.884 309.208L332.004 331.119L332.064 353.029C332.066 353.392 331.936 353.744 331.699 354.019C331.462 354.295 331.134 354.476 330.774 354.529H330.764L277.754 362.289L224.714 369.859H224.704C224.417 369.9 224.123 369.851 223.864 369.718L187.394 351.529L150.974 333.239H150.964C150.794 333.153 150.652 333.021 150.553 332.859C150.454 332.696 150.402 332.509 150.404 332.319L150.964 286.839C151.174 271.669 151.194 256.509 151.324 241.349C151.325 241.234 151.369 241.123 151.446 241.038C151.524 240.953 151.63 240.9 151.744 240.888L181.414 237.749L182.644 237.619L182.914 237.589C182.754 237.969 182.594 238.349 182.444 238.739L181.574 238.829L152.254 241.769C152.264 256.799 152.164 271.819 152.254 286.839L152.454 331.689L188.545 349.208L224.734 366.908L277.305 359.158L329.035 351.719L329.094 331.119L329.224 309.209L329.494 265.388V265.379C329.495 265.123 329.588 264.876 329.758 264.685C329.927 264.493 330.161 264.37 330.414 264.339L370.444 259.649L410.504 255.119C410.523 255.117 410.543 255.119 410.561 255.124C410.579 255.129 410.596 255.138 410.611 255.151C410.626 255.163 410.638 255.177 410.648 255.194C410.657 255.211 410.662 255.23 410.664 255.249Z" fill="#222222"/>
<path d="M184.026 237.469C184.166 237.829 184.316 238.189 184.456 238.539C183.916 238.589 183.376 238.649 182.836 238.699C183.046 238.309 183.256 237.919 183.456 237.529L184.026 237.469Z" fill="#222222"/>
<path d="M184.785 237.388C185.675 237.299 186.565 237.209 187.455 237.109C187.295 237.499 187.135 237.899 186.975 238.289C186.415 238.339 185.855 238.399 185.295 238.459C185.125 238.099 184.955 237.749 184.785 237.388Z" fill="#222222"/>
<path d="M188.375 237.489L188.635 238.119C188.455 238.138 188.275 238.158 188.105 238.178C188.195 237.949 188.285 237.719 188.375 237.489Z" fill="#222222"/>
<path d="M191.805 236.638H191.905L191.455 237.849C190.835 237.908 190.215 237.969 189.605 238.029L189.195 236.919C190.065 236.829 190.935 236.729 191.805 236.638Z" fill="#222222"/>
<path d="M192.445 237.138L192.655 237.729C192.515 237.749 192.365 237.759 192.225 237.769L192.445 237.138Z" fill="#222222"/>
<path d="M196.225 236.469L195.815 237.429L193.295 237.669L192.945 236.619C194.035 236.589 195.135 236.539 196.225 236.469Z" fill="#222222"/>
<path d="M196.525 236.569L196.835 237.329C196.625 237.349 196.415 237.369 196.205 237.388L196.525 236.569Z" fill="#222222"/>
<path d="M449.705 227.339C449.696 227.375 449.674 227.407 449.642 227.428C449.611 227.448 449.572 227.456 449.535 227.449L424.195 222.099C415.795 220.319 407.405 218.515 399.025 216.689L368.255 220.138L337.365 223.449L306.465 226.749L275.555 229.879C265.245 230.928 254.935 231.888 244.625 232.859L213.685 235.749C208.925 236.189 204.168 236.635 199.415 237.089C198.645 237.158 197.875 237.229 197.105 237.309L196.785 236.429C197.705 236.359 198.625 236.279 199.555 236.159C199.005 236.089 198.445 236.029 197.895 235.969C198.475 235.909 199.045 235.839 199.615 235.779C204.255 235.259 208.892 234.735 213.525 234.209L244.405 230.739C254.695 229.569 264.985 228.408 275.285 227.349L306.195 224.099L337.115 221.029L368.035 217.969L398.965 215.059H398.985C399.066 215.055 399.146 215.062 399.225 215.079C407.635 217.039 416.035 219.035 424.425 221.069L449.595 227.158C449.614 227.162 449.633 227.17 449.649 227.182C449.665 227.193 449.679 227.208 449.689 227.225C449.699 227.242 449.706 227.26 449.709 227.28C449.712 227.3 449.71 227.32 449.705 227.339Z" fill="#222222"/>
<path d="M239.555 323.579V358.638L318.195 348.509V314.549L239.555 323.579ZM284.235 338.559C278.435 338.559 278.445 329.559 284.235 329.559C290.035 329.559 290.025 338.559 284.235 338.559V338.559Z" fill="#222222"/>
<path d="M239.555 282.229V317.289L318.195 307.158V273.198L239.555 282.229ZM284.235 297.209C278.435 297.209 278.445 288.209 284.235 288.209C290.035 288.209 290.025 297.209 284.235 297.209V297.209Z" fill="#222222"/>
<path d="M413.584 229.398L413.596 229.397C415.247 228.975 416.91 228.628 418.566 228.242C420.228 227.883 421.89 227.531 423.556 227.203C423.645 227.185 423.736 227.195 423.819 227.232L423.842 227.242C427.335 228.781 430.795 230.391 434.241 232.031C437.681 233.681 441.107 235.361 444.5 237.111L444.528 237.125C444.629 237.177 444.705 237.267 444.739 237.375C444.774 237.483 444.764 237.601 444.712 237.702C444.679 237.765 444.63 237.82 444.57 237.86C444.511 237.9 444.442 237.925 444.37 237.932C442.946 238.061 441.524 238.207 440.096 238.307C438.669 238.411 437.245 238.537 435.813 238.607C437.215 238.309 438.624 238.066 440.031 237.802C441.437 237.534 442.849 237.312 444.259 237.073L444.129 237.893C440.629 236.367 437.163 234.771 433.711 233.144C430.264 231.508 426.832 229.84 423.433 228.103L423.718 228.142C422.037 228.389 420.353 228.612 418.667 228.828C416.977 229.017 415.293 229.246 413.597 229.398H413.596L413.584 229.398Z" fill="#222222"/>
<path d="M406.349 242.455L406.337 242.455L398 243.791C395.223 244.244 392.435 244.622 389.653 245.041C386.869 245.442 384.089 245.879 381.3 246.25L372.938 247.385C372.849 247.396 372.758 247.387 372.673 247.358C369.312 246.201 365.938 245.084 362.593 243.881L352.54 240.326C352.473 240.303 352.41 240.266 352.357 240.218C352.303 240.171 352.26 240.113 352.228 240.049C352.197 239.984 352.179 239.914 352.175 239.843C352.171 239.771 352.181 239.7 352.204 239.632C352.237 239.54 352.293 239.458 352.367 239.395C352.442 239.332 352.532 239.29 352.628 239.273C357.129 238.505 361.65 237.851 366.162 237.145C370.675 236.442 375.199 235.807 379.727 235.194C375.252 236.119 370.774 237.023 366.284 237.86C361.794 238.693 357.312 239.578 352.811 240.348L352.899 239.296L362.989 242.74C366.359 243.871 369.699 245.088 373.053 246.264L372.788 246.237L381.163 245.192C383.953 244.836 386.752 244.546 389.546 244.22C392.343 243.912 395.134 243.564 397.935 243.29C400.735 243.005 403.532 242.701 406.337 242.454H406.337L406.349 242.455Z" fill="#222222"/>
<path d="M373.869 224.709C370.859 225.583 367.834 226.38 364.815 227.211C364.058 227.411 363.308 227.638 362.545 227.808L360.25 228.288L355.667 229.279L353.376 229.775C352.543 230.001 351.673 230.053 350.82 229.928C349.915 229.789 349.073 229.38 348.405 228.754C348.067 228.413 347.807 228.002 347.644 227.551C347.48 227.1 347.416 226.618 347.457 226.14C347.648 224.421 348.432 222.822 349.674 221.618C350.269 221.025 350.943 220.518 351.676 220.109C352.037 219.908 352.409 219.727 352.79 219.568C353.139 219.42 353.483 219.261 353.823 219.091C356.568 217.82 358.88 215.771 360.471 213.198C361.219 211.908 361.714 210.487 361.931 209.012C362.127 207.563 362.129 205.954 362.207 204.402L362.972 185.662L362.986 185.82C362.911 185.613 362.805 185.418 362.673 185.242C362.52 185.033 362.346 184.839 362.153 184.666C361.73 184.318 361.276 184.011 360.795 183.749C359.767 183.207 358.667 182.814 357.528 182.583C356.353 182.354 355.163 182.21 353.967 182.152C352.763 182.085 351.553 182.092 350.337 182.113C351.539 181.948 352.745 181.766 353.967 181.711C355.197 181.641 356.429 181.66 357.655 181.767C358.918 181.888 360.156 182.19 361.333 182.664C361.947 182.923 362.511 183.289 362.997 183.746C363.552 184.23 363.967 184.854 364.198 185.554C364.21 185.593 364.216 185.633 364.214 185.673L364.212 185.712L363.447 204.454C363.365 206.023 363.376 207.549 363.158 209.2C362.918 210.828 362.371 212.395 361.546 213.819C359.833 216.604 357.338 218.824 354.373 220.204C354.013 220.383 353.648 220.552 353.278 220.709C352.938 220.851 352.606 221.012 352.283 221.191C351.65 221.544 351.067 221.983 350.553 222.494C349.528 223.485 348.873 224.797 348.696 226.212C348.664 226.514 348.7 226.82 348.8 227.107C348.901 227.394 349.064 227.655 349.278 227.871C349.764 228.315 350.371 228.605 351.023 228.704C351.722 228.803 352.434 228.755 353.113 228.562L355.405 228.066L359.988 227.075L362.276 226.564C363.041 226.404 363.819 226.301 364.59 226.17C367.682 225.679 370.767 225.156 373.869 224.709Z" fill="#222222"/>
<path d="M354.885 168.719C356.215 170.229 357.445 171.829 359.075 173.379L341.645 194.969C341.345 174.419 327.055 173.379 327.055 173.379L350.545 164.439C351.36 165.087 352.138 165.781 352.875 166.519C353.574 167.229 354.225 167.969 354.885 168.719Z" fill="#222222"/>
<path d="M366.525 173.379H359.075C358.97 172.271 358.669 171.191 358.185 170.189C357.721 169.183 357.118 168.247 356.395 167.408C355.663 166.551 354.79 165.824 353.815 165.259C352.826 164.678 351.691 164.393 350.545 164.439L353.865 158.178L366.525 173.379Z" fill="#222222"/>
<path d="M341.647 194.971C339.422 194.285 337.346 193.184 335.529 191.728C333.669 190.289 332.048 188.567 330.724 186.624C330.381 186.146 330.07 185.645 329.794 185.125C329.518 184.605 329.196 184.11 328.959 183.571C328.466 182.505 328.062 181.399 327.752 180.266C327.107 178.03 326.87 175.695 327.051 173.375C327.642 175.543 328.368 177.672 329.224 179.75C330.065 181.772 331.12 183.698 332.373 185.494C333.602 187.314 335.003 189.011 336.557 190.562C338.145 192.153 339.846 193.627 341.647 194.971Z" fill="#222222"/>
<path d="M335.542 188.045C342.729 188.045 342.741 176.875 335.542 176.875C328.354 176.875 328.342 188.045 335.542 188.045Z" fill="#222222"/>
<path d="M283.377 233.629L301.753 230.446C308.013 229.381 314.351 228.287 320.675 227.469L320.695 227.466C320.788 227.454 320.884 227.471 320.967 227.516L328.319 231.48C330.763 232.815 333.232 234.101 335.698 235.392C338.156 236.7 340.652 237.933 343.133 239.196C345.612 240.462 348.121 241.669 350.614 242.908C350.677 242.94 350.729 242.99 350.762 243.053C350.795 243.115 350.807 243.186 350.798 243.256C350.788 243.326 350.756 243.391 350.708 243.441C350.659 243.492 350.595 243.527 350.526 243.54L350.513 243.542C344.241 244.676 337.964 245.783 331.676 246.824C325.391 247.883 319.107 248.947 312.807 249.91L312.801 249.911C312.663 249.932 312.522 249.908 312.399 249.842C307.434 247.177 302.516 244.393 297.649 241.662C292.817 238.906 288.061 236.211 283.377 233.629ZM283.5 233.65C288.571 236.279 293.57 238.794 298.493 241.249C303.382 243.728 308.219 246.154 313.01 248.699L312.602 248.631C318.887 247.574 325.188 246.616 331.489 245.655C337.786 244.676 344.094 243.762 350.407 242.875L350.306 243.509C347.846 242.204 345.404 240.866 342.931 239.589C340.459 238.308 338.003 236.996 335.509 235.76C333.023 234.507 330.54 233.249 328.032 232.039L320.528 228.37L320.819 228.418C314.706 229.498 308.609 230.303 302.432 231.137L293.068 232.361L283.5 233.65Z" fill="#222222"/>
<path d="M305.332 237.55C306.681 237.25 308.043 237.018 309.416 236.856C310.715 237.063 312.021 237.229 313.324 237.417L321.143 238.512L328.962 239.609L332.872 240.156C334.122 240.713 335.375 241.258 336.609 241.934C335.237 242.244 333.883 242.424 332.527 242.615L328.617 242.067L320.798 240.971L312.979 239.875C311.675 239.698 310.374 239.497 309.068 239.339C307.793 238.806 306.546 238.209 305.332 237.55Z" fill="#222222"/>
<path d="M203.744 240.569L222.121 237.386C228.38 236.321 234.718 235.227 241.042 234.409L241.062 234.406C241.156 234.394 241.251 234.412 241.334 234.457L248.686 238.42C251.13 239.755 253.599 241.041 256.065 242.332C258.523 243.64 261.019 244.873 263.5 246.136C265.979 247.403 268.489 248.609 270.981 249.849C271.045 249.88 271.096 249.93 271.129 249.993C271.162 250.055 271.174 250.126 271.165 250.196C271.155 250.266 271.124 250.331 271.075 250.382C271.026 250.433 270.963 250.467 270.893 250.48L270.881 250.482C264.608 251.616 258.331 252.723 252.043 253.764C245.759 254.824 239.474 255.887 233.174 256.85L233.168 256.851C233.03 256.872 232.889 256.848 232.766 256.782C227.801 254.117 222.884 251.333 218.017 248.602C213.184 245.846 208.428 243.151 203.744 240.569ZM203.867 240.59C208.938 243.219 213.938 245.734 218.86 248.189C223.749 250.668 228.586 253.094 233.377 255.639L232.969 255.571C239.254 254.514 245.555 253.557 251.855 252.595C258.153 251.616 264.461 250.702 270.774 249.816L270.673 250.449C268.214 249.144 265.771 247.807 263.298 246.529C260.826 245.248 258.371 243.937 255.876 242.7C253.391 241.447 250.907 240.189 248.399 238.979L240.895 235.311L241.187 235.358C235.074 236.438 228.976 237.244 222.799 238.077L213.435 239.301L203.867 240.59Z" fill="#222222"/>
<path d="M249.198 238.98C251.451 238.52 253.708 238.085 255.969 237.678C258.232 237.284 260.489 236.851 262.757 236.49C267.291 235.756 271.818 234.974 276.374 234.379L276.398 234.376C276.496 234.363 276.596 234.382 276.684 234.43L284.012 238.441C286.454 239.78 288.923 241.065 291.395 242.345C293.88 243.6 296.365 244.856 298.875 246.062L306.388 249.712C306.481 249.757 306.557 249.83 306.605 249.921C306.654 250.012 306.672 250.116 306.658 250.218C306.644 250.32 306.598 250.415 306.527 250.489C306.455 250.564 306.362 250.613 306.261 250.632L306.242 250.635L296.821 252.265C293.68 252.803 290.538 253.335 287.391 253.833C284.242 254.323 281.094 254.815 277.938 255.258C274.782 255.706 271.631 256.178 268.469 256.583L268.447 256.585C268.371 256.595 268.295 256.58 268.229 256.543C265.543 255.023 262.87 253.477 260.212 251.905C260.198 251.897 260.188 251.883 260.184 251.868C260.18 251.853 260.182 251.836 260.189 251.822C260.197 251.808 260.209 251.797 260.224 251.792C260.24 251.787 260.256 251.788 260.271 251.795C263.059 253.123 265.831 254.481 268.587 255.87L268.348 255.83C271.478 255.225 274.619 254.688 277.756 254.127C280.893 253.56 284.037 253.042 287.181 252.522C290.326 252.012 293.477 251.534 296.628 251.062L306.086 249.664L305.939 250.587L298.596 246.604C296.154 245.266 293.686 243.977 291.219 242.688C288.739 241.424 286.256 240.165 283.746 238.959L276.218 235.337L276.527 235.387C272.002 236.179 267.448 236.782 262.901 237.435C260.629 237.767 258.345 238.027 256.068 238.326C253.789 238.614 251.505 238.873 249.217 239.103C249.201 239.104 249.185 239.1 249.173 239.09C249.16 239.08 249.152 239.066 249.149 239.05C249.147 239.035 249.15 239.018 249.16 239.005C249.169 238.992 249.182 238.983 249.198 238.98L249.198 238.98Z" fill="#222222"/>
<path d="M402.585 178.928C402.065 180.399 401.475 181.839 400.885 183.279L398.535 187.239L394.025 194.859H392.285L392.555 194.409L397.245 186.479L399.595 182.509C400.575 181.309 401.545 180.099 402.585 178.928Z" fill="#222222"/>
<path d="M391.606 183.908L391.046 188.809L390.356 194.859H388.846L389.556 188.638L390.106 183.739C390.516 182.129 390.916 180.519 391.416 178.928C391.536 180.599 391.576 182.249 391.606 183.908Z" fill="#222222"/>
<path d="M385.415 194.859H386.365L385.835 191.149L385.405 188.169L384.745 183.489C384.295 181.969 383.855 180.439 383.325 178.929C383.255 180.239 383.235 181.539 383.245 182.839V183.709L383.435 184.999L383.925 188.379L384.855 194.859H385.415Z" fill="#222222"/>
<path d="M382.245 194.859H380.735L379.796 188.379L379.126 183.709C379.115 182.119 379.115 180.529 379.205 178.929C379.735 180.439 380.175 181.969 380.626 183.489L381.286 188.169L381.925 192.629L382.245 194.859Z" fill="#222222"/>
<path d="M383.436 184.119V184.999L383.426 188.719V194.859H381.926V184.119C382.146 182.589 382.366 181.059 382.676 179.519C382.896 180.629 383.086 181.739 383.246 182.839C383.316 183.269 383.376 183.689 383.436 184.119Z" fill="#222222"/>
<path d="M388.054 184.888L387.534 189.459L386.924 194.859H385.414L385.834 191.149L386.044 189.289L386.554 184.719C386.944 183.219 387.334 181.718 387.814 180.238C387.954 181.789 388.004 183.339 388.054 184.888Z" fill="#222222"/>
<path d="M377.615 200.979V206.379C377.875 206.349 378.135 206.329 378.395 206.299L380.645 201.249C379.635 201.179 378.625 201.099 377.615 200.979ZM380.925 201.339L378.515 206.289C379.965 206.139 381.425 206.039 382.875 205.979L380.925 201.339ZM381.245 201.289L383.305 205.729L384.945 201.439C383.715 201.419 382.475 201.359 381.245 201.289L381.245 201.289ZM385.465 201.869L383.775 205.949C384.845 205.909 385.905 205.889 386.975 205.879L385.465 201.869ZM387.595 201.479C387.075 201.469 386.545 201.459 386.025 201.459L387.555 205.229L388.855 201.459C388.435 201.469 388.015 201.469 387.595 201.479L387.595 201.479ZM389.525 202.429L388.215 205.879C389.055 205.889 389.895 205.899 390.735 205.929C390.315 204.759 389.915 203.599 389.525 202.428V202.429ZM390.225 201.439C390.655 202.629 391.065 203.819 391.465 205.009C392.005 203.779 392.535 202.559 393.085 201.339C392.135 201.388 391.185 201.419 390.225 201.439L390.225 201.439ZM393.645 201.899C393.145 203.259 392.626 204.609 392.105 205.969C393.255 206.009 394.405 206.079 395.545 206.179C394.885 204.759 394.265 203.339 393.645 201.899L393.645 201.899ZM377.615 194.859V200.979C380.929 200.617 384.262 200.451 387.595 200.479C388.205 200.479 388.815 200.489 389.425 200.499C389.514 200.474 389.607 200.474 389.695 200.499C390.975 200.519 392.245 200.569 393.515 200.639C393.548 200.627 393.581 200.621 393.615 200.619C393.667 200.619 393.718 200.629 393.765 200.649C395.035 200.729 396.305 200.829 397.575 200.979V194.859L377.615 194.859ZM379.945 199.329C379.556 199.316 379.187 199.152 378.916 198.872C378.646 198.593 378.494 198.218 378.494 197.829C378.494 197.439 378.646 197.065 378.916 196.785C379.187 196.505 379.556 196.342 379.945 196.329C380.334 196.342 380.702 196.506 380.972 196.786C381.243 197.066 381.394 197.44 381.394 197.829C381.394 198.218 381.243 198.591 380.972 198.871C380.702 199.151 380.334 199.315 379.945 199.329L379.945 199.329ZM385.345 199.329C384.956 199.316 384.587 199.152 384.316 198.872C384.045 198.593 383.894 198.218 383.894 197.829C383.894 197.439 384.045 197.065 384.316 196.785C384.587 196.505 384.956 196.342 385.345 196.329C385.734 196.342 386.102 196.506 386.372 196.786C386.643 197.066 386.794 197.44 386.794 197.829C386.794 198.218 386.643 198.591 386.372 198.871C386.102 199.151 385.734 199.315 385.345 199.329L385.345 199.329ZM390.565 199.149C390.176 199.136 389.807 198.972 389.536 198.692C389.266 198.413 389.114 198.038 389.114 197.649C389.114 197.259 389.266 196.885 389.536 196.605C389.807 196.325 390.176 196.162 390.565 196.149C390.954 196.163 391.322 196.327 391.593 196.606C391.863 196.886 392.014 197.26 392.014 197.649C392.014 198.038 391.863 198.412 391.593 198.691C391.322 198.971 390.954 199.135 390.565 199.149L390.565 199.149ZM395.695 199.329C395.306 199.316 394.937 199.152 394.666 198.872C394.396 198.593 394.244 198.218 394.244 197.829C394.244 197.439 394.396 197.065 394.666 196.785C394.937 196.505 395.306 196.342 395.695 196.329C396.084 196.342 396.452 196.506 396.722 196.786C396.993 197.066 397.144 197.44 397.144 197.829C397.144 198.218 396.993 198.591 396.722 198.871C396.452 199.151 396.084 199.315 395.695 199.329L395.695 199.329ZM394.086 201.279C394.645 202.909 395.185 204.539 395.685 206.189C396.315 206.249 396.945 206.299 397.575 206.379V200.979C396.415 201.109 395.255 201.209 394.085 201.279L394.086 201.279ZM380.925 201.339L378.515 206.289C379.965 206.139 381.425 206.039 382.876 205.979L380.925 201.339ZM381.245 201.289L383.305 205.729L384.945 201.439C383.715 201.419 382.475 201.359 381.245 201.289L381.245 201.289ZM385.465 201.869L383.775 205.949C384.845 205.909 385.905 205.889 386.975 205.879L385.465 201.869ZM387.595 201.479C387.075 201.469 386.546 201.459 386.025 201.459L387.555 205.229L388.855 201.459C388.435 201.469 388.015 201.469 387.595 201.479L387.595 201.479ZM389.525 202.429L388.215 205.879C389.056 205.889 389.895 205.899 390.735 205.929C390.315 204.759 389.915 203.599 389.525 202.428L389.525 202.429ZM390.225 201.439C390.655 202.629 391.066 203.819 391.465 205.009C392.005 203.779 392.536 202.559 393.086 201.339C392.135 201.388 391.185 201.419 390.225 201.439L390.225 201.439ZM393.645 201.899C393.145 203.259 392.626 204.609 392.106 205.969C393.255 206.009 394.405 206.079 395.546 206.179C394.885 204.759 394.265 203.339 393.645 201.899L393.645 201.899ZM380.925 201.339L378.515 206.289C379.965 206.139 381.425 206.039 382.876 205.979L380.925 201.339ZM381.245 201.289L383.306 205.729L384.945 201.439C383.715 201.419 382.475 201.359 381.245 201.289L381.245 201.289ZM385.465 201.869L383.776 205.949C384.845 205.909 385.905 205.889 386.976 205.879L385.465 201.869ZM387.595 201.479C387.075 201.469 386.546 201.459 386.026 201.459L387.556 205.229L388.856 201.459C388.435 201.469 388.015 201.469 387.595 201.479L387.595 201.479ZM389.526 202.429L388.215 205.879C389.056 205.889 389.895 205.899 390.735 205.929C390.315 204.759 389.915 203.599 389.525 202.428L389.526 202.429ZM390.226 201.439C390.655 202.629 391.066 203.819 391.466 205.009C392.006 203.779 392.536 202.559 393.086 201.339C392.135 201.388 391.185 201.419 390.225 201.439L390.226 201.439ZM393.645 201.899C393.145 203.259 392.626 204.609 392.106 205.969C393.256 206.009 394.405 206.079 395.546 206.179C394.885 204.759 394.265 203.339 393.645 201.899L393.645 201.899ZM377.615 212.229V213.469C377.615 216.116 378.667 218.654 380.539 220.526C382.41 222.398 384.949 223.449 387.595 223.449C390.242 223.449 392.781 222.398 394.652 220.526C396.524 218.654 397.575 216.116 397.575 213.469V212.229C390.939 212.896 384.252 212.896 377.615 212.229ZM391.675 206.799C391.611 206.842 391.538 206.869 391.462 206.878C391.385 206.886 391.307 206.877 391.236 206.849C391.215 206.837 391.195 206.824 391.175 206.809C389.986 206.849 388.786 206.869 387.595 206.879C384.262 206.897 380.93 206.73 377.615 206.379V212.229C384.252 211.562 390.939 211.562 397.575 212.229V206.379C395.605 206.609 393.645 206.729 391.675 206.799L391.675 206.799ZM380.395 210.849C380.006 210.836 379.637 210.673 379.366 210.393C379.096 210.113 378.944 209.739 378.944 209.349C378.944 208.96 379.096 208.585 379.366 208.306C379.637 208.026 380.006 207.862 380.395 207.849C380.783 207.864 381.151 208.028 381.42 208.308C381.69 208.587 381.84 208.961 381.84 209.349C381.84 209.737 381.689 210.111 381.42 210.39C381.151 210.67 380.783 210.834 380.395 210.849L380.395 210.849ZM384.986 210.759C384.596 210.746 384.227 210.582 383.957 210.303C383.686 210.023 383.534 209.648 383.534 209.259C383.534 208.87 383.686 208.495 383.957 208.215C384.227 207.936 384.596 207.772 384.986 207.759C385.374 207.774 385.741 207.938 386.01 208.218C386.28 208.497 386.43 208.871 386.43 209.259C386.43 209.647 386.28 210.02 386.01 210.3C385.741 210.58 385.373 210.744 384.985 210.759L384.986 210.759ZM390.026 210.759C389.636 210.746 389.267 210.582 388.996 210.303C388.726 210.023 388.574 209.648 388.574 209.259C388.574 208.87 388.726 208.495 388.996 208.215C389.267 207.936 389.636 207.772 390.026 207.759C390.414 207.774 390.781 207.938 391.05 208.218C391.32 208.497 391.47 208.871 391.47 209.259C391.47 209.647 391.32 210.02 391.05 210.3C390.781 210.58 390.413 210.744 390.025 210.759L390.026 210.759ZM395.066 210.579C394.676 210.566 394.307 210.403 394.036 210.123C393.766 209.843 393.614 209.469 393.614 209.079C393.614 208.69 393.766 208.315 394.036 208.036C394.307 207.756 394.676 207.592 395.066 207.579C395.454 207.594 395.821 207.758 396.09 208.038C396.36 208.317 396.51 208.691 396.51 209.079C396.51 209.467 396.36 209.84 396.09 210.12C395.821 210.4 395.453 210.564 395.065 210.579L395.066 210.579ZM395.546 206.179C394.885 204.759 394.266 203.339 393.645 201.899C393.145 203.259 392.626 204.609 392.106 205.969C393.255 206.009 394.405 206.079 395.545 206.178L395.546 206.179ZM393.086 201.339C392.135 201.389 391.185 201.419 390.225 201.439C390.655 202.629 391.066 203.819 391.465 205.009C392.005 203.779 392.535 202.559 393.085 201.339L393.086 201.339ZM390.735 205.929C390.316 204.759 389.915 203.599 389.525 202.429L388.215 205.879C389.055 205.888 389.895 205.899 390.735 205.928L390.735 205.929ZM388.856 201.459C388.435 201.469 388.015 201.469 387.595 201.479C387.075 201.469 386.546 201.459 386.025 201.459L387.555 205.229L388.856 201.459ZM386.975 205.879L385.465 201.869L383.775 205.949C384.845 205.908 385.905 205.888 386.975 205.879L386.975 205.879ZM384.945 201.439C383.715 201.419 382.475 201.359 381.245 201.289L383.305 205.729L384.945 201.439ZM380.925 201.339L378.516 206.289C379.966 206.139 381.425 206.039 382.876 205.979L380.925 201.339ZM393.645 201.899C393.145 203.259 392.626 204.609 392.106 205.969C393.256 206.009 394.405 206.079 395.546 206.179C394.885 204.759 394.265 203.339 393.645 201.899L393.645 201.899ZM390.225 201.439C390.655 202.629 391.066 203.819 391.466 205.009C392.006 203.779 392.536 202.559 393.086 201.339C392.135 201.388 391.185 201.419 390.225 201.439L390.225 201.439ZM389.526 202.429L388.215 205.879C389.056 205.889 389.895 205.899 390.735 205.929C390.315 204.759 389.915 203.599 389.525 202.428L389.526 202.429ZM387.595 201.479C387.075 201.469 386.546 201.459 386.026 201.459L387.556 205.229L388.855 201.459C388.435 201.469 388.015 201.469 387.595 201.479L387.595 201.479ZM385.465 201.869L383.776 205.949C384.845 205.909 385.905 205.889 386.975 205.879L385.465 201.869ZM381.245 201.289L383.306 205.729L384.945 201.439C383.715 201.419 382.475 201.359 381.245 201.289L381.245 201.289ZM380.925 201.339L378.515 206.289C379.965 206.139 381.425 206.039 382.876 205.979L380.925 201.339ZM393.645 201.899C393.145 203.259 392.626 204.609 392.106 205.969C393.255 206.009 394.405 206.079 395.546 206.179C394.885 204.759 394.265 203.339 393.645 201.899L393.645 201.899ZM390.225 201.439C390.655 202.629 391.066 203.819 391.465 205.009C392.005 203.779 392.536 202.559 393.086 201.339C392.135 201.388 391.185 201.419 390.225 201.439L390.225 201.439ZM389.525 202.429L388.215 205.879C389.055 205.889 389.895 205.899 390.735 205.929C390.315 204.759 389.915 203.599 389.525 202.428L389.525 202.429ZM387.595 201.479C387.075 201.469 386.545 201.459 386.025 201.459L387.555 205.229L388.855 201.459C388.435 201.469 388.015 201.469 387.595 201.479L387.595 201.479ZM385.465 201.869L383.775 205.949C384.845 205.909 385.905 205.889 386.975 205.879L385.465 201.869ZM381.245 201.289L383.305 205.729L384.945 201.439C383.715 201.419 382.475 201.359 381.245 201.289L381.245 201.289ZM380.925 201.339L378.515 206.289C379.965 206.139 381.425 206.039 382.876 205.979L380.925 201.339Z" fill="#222222"/>
<path d="M215.175 365.396C215.36 367.866 215.455 370.335 215.586 372.804C215.722 375.274 215.783 377.743 215.873 380.212C215.929 382.682 216.02 385.151 216.047 387.62C216.079 390.09 216.142 392.559 216.142 395.028L215.43 394.095L222.389 395.973L221.892 395.966L228.826 394.322L228.095 395.252C228.155 390.669 228.239 386.086 228.384 381.503C228.471 379.211 228.536 376.92 228.666 374.628C228.785 372.337 228.879 370.045 229.052 367.754C229.225 370.045 229.319 372.337 229.438 374.628C229.568 376.92 229.633 379.211 229.72 381.503C229.865 386.086 229.949 390.669 230.009 395.252C230.012 395.464 229.943 395.671 229.814 395.839C229.684 396.007 229.501 396.127 229.295 396.178L229.278 396.182L222.361 397.899C222.197 397.939 222.026 397.937 221.864 397.892L214.919 395.962C214.715 395.905 214.535 395.783 214.407 395.615C214.278 395.446 214.208 395.24 214.207 395.029C214.208 392.559 214.271 390.09 214.302 387.621C214.33 385.151 214.421 382.682 214.477 380.213C214.566 377.743 214.627 375.274 214.764 372.805C214.894 370.335 214.989 367.866 215.175 365.396Z" fill="#222222"/>
<path d="M222.112 367.639C222.602 372.521 222.716 377.403 222.738 382.285C222.723 387.167 222.614 392.05 222.125 396.932C221.632 392.05 221.518 387.168 221.498 382.286C221.516 377.403 221.626 372.521 222.112 367.639Z" fill="#222222"/>
<path d="M151.63 332.417C151.826 334.886 151.922 337.356 152.062 339.825C152.188 342.294 152.274 344.764 152.349 347.233C152.493 352.172 152.591 357.11 152.606 362.049L151.888 361.108C154.209 361.728 156.531 362.346 158.842 363.004L158.35 362.997C160.663 362.453 162.97 361.889 165.291 361.379L164.588 362.272C164.628 360.291 164.639 358.31 164.703 356.329C164.764 354.348 164.797 352.366 164.883 350.385C164.953 348.404 165.036 346.423 165.152 344.441C165.258 342.46 165.351 340.479 165.508 338.498C165.664 340.479 165.757 342.46 165.864 344.441C165.98 346.423 166.062 348.404 166.132 350.385C166.218 352.366 166.251 354.348 166.313 356.329C166.376 358.31 166.387 360.291 166.427 362.272C166.431 362.473 166.368 362.669 166.248 362.829C166.127 362.989 165.956 363.105 165.762 363.156L165.724 363.166C163.428 363.777 161.119 364.332 158.814 364.909C158.659 364.948 158.497 364.948 158.343 364.908L158.322 364.902C155.999 364.291 153.686 363.639 151.373 362.991L151.364 362.988C151.159 362.93 150.979 362.808 150.851 362.638C150.723 362.468 150.654 362.261 150.654 362.049C150.67 357.11 150.768 352.172 150.911 347.233C150.986 344.764 151.073 342.294 151.199 339.825C151.339 337.356 151.434 334.886 151.63 332.417Z" fill="#222222"/>
<path d="M158.569 334.659C159.059 339.541 159.173 344.423 159.196 349.306C159.18 354.188 159.071 359.07 158.582 363.953C158.089 359.071 157.975 354.188 157.955 349.306C157.973 344.424 158.083 339.542 158.569 334.659Z" fill="#222222"/>
<path d="M316.949 354.822C317.117 357.017 317.211 359.212 317.326 361.407C317.451 363.603 317.521 365.798 317.603 367.993C317.749 372.383 317.837 376.774 317.895 381.164L317.373 380.32L323.649 383.42L322.943 383.35C325.394 382.653 327.862 382.02 330.321 381.351L329.608 382.285C329.609 379.863 329.669 377.44 329.702 375.018C329.729 372.595 329.819 370.173 329.876 367.75C329.964 365.328 330.028 362.905 330.163 360.483C330.295 358.06 330.39 355.638 330.577 353.215C330.764 355.638 330.859 358.06 330.991 360.483C331.126 362.905 331.19 365.328 331.278 367.75C331.335 370.173 331.425 372.595 331.452 375.018C331.485 377.44 331.545 379.863 331.546 382.285C331.545 382.498 331.475 382.704 331.346 382.872C331.218 383.041 331.037 383.163 330.833 383.22C328.377 383.898 325.93 384.611 323.466 385.26L323.451 385.264C323.219 385.325 322.973 385.299 322.76 385.19L316.525 382.009L316.509 382.001C316.355 381.922 316.226 381.802 316.137 381.654C316.048 381.507 316.002 381.337 316.004 381.164C316.062 376.774 316.149 372.383 316.295 367.993C316.377 365.798 316.448 363.603 316.573 361.407C316.688 359.212 316.782 357.017 316.949 354.822Z" fill="#222222"/>
<path d="M323.762 354.013C324.157 359.071 324.177 364.121 324.103 369.17C323.993 374.219 323.788 379.265 323.204 384.305C322.806 379.247 322.788 374.197 322.863 369.147C322.976 364.099 323.182 359.053 323.762 354.013Z" fill="#222222"/>
<path d="M397.587 303.669C396.595 303.612 395.622 303.381 394.711 302.986C391.984 301.883 389.548 300.167 387.592 297.971C388.501 298.32 389.385 298.732 390.236 299.205C391.088 299.649 391.904 300.142 392.726 300.62C393.534 301.124 394.348 301.606 395.146 302.125C395.955 302.63 396.74 303.161 397.587 303.669Z" fill="#222222"/>
<path d="M193.154 186.229C193.964 187.557 194.931 188.783 196.035 189.879C194.916 189.917 193.806 189.677 192.805 189.178C192.081 188.806 191.47 188.246 191.035 187.559C190.61 186.861 190.376 186.065 190.355 185.249C190.334 184.132 190.595 183.028 191.114 182.039C191.619 183.514 192.304 184.921 193.154 186.229Z" fill="#222222"/>
<path d="M196.805 186.669C196.825 187.787 196.56 188.891 196.035 189.879C195.531 188.403 194.846 186.996 193.995 185.689C193.184 184.362 192.217 183.137 191.115 182.039C192.231 181.999 193.339 182.243 194.335 182.749C195.059 183.121 195.673 183.676 196.115 184.359C196.549 185.053 196.787 185.851 196.805 186.669Z" fill="#222222"/>
<path d="M190.485 195.769C191.294 197.1 192.265 198.326 193.375 199.419C192.257 199.459 191.146 199.218 190.145 198.719C189.418 198.346 188.804 197.787 188.365 197.099C187.94 196.401 187.706 195.605 187.685 194.789C187.664 193.672 187.926 192.568 188.445 191.579C188.953 193.052 189.638 194.459 190.485 195.769Z" fill="#222222"/>
<path d="M194.135 196.209C194.155 197.325 193.893 198.429 193.375 199.419C192.862 197.947 192.178 196.54 191.335 195.229C190.52 193.902 189.55 192.677 188.445 191.579C189.562 191.538 190.67 191.782 191.665 192.289C192.396 192.654 193.013 193.212 193.448 193.903C193.884 194.594 194.121 195.392 194.135 196.209L194.135 196.209Z" fill="#222222"/>
<path d="M187.475 206.269C188.287 207.598 189.258 208.823 190.365 209.919C189.245 209.961 188.134 209.716 187.135 209.209C186.407 208.843 185.792 208.286 185.355 207.599C184.931 206.901 184.696 206.105 184.675 205.289C184.654 204.172 184.915 203.067 185.435 202.079C185.944 203.552 186.629 204.959 187.475 206.269Z" fill="#222222"/>
<path d="M191.126 206.699C191.146 207.819 190.885 208.926 190.365 209.919C189.853 208.445 189.165 207.038 188.316 205.729C187.504 204.402 186.537 203.177 185.436 202.079C186.552 202.038 187.66 202.282 188.656 202.789C189.379 203.161 189.993 203.716 190.436 204.399C190.868 205.09 191.106 205.884 191.126 206.699Z" fill="#222222"/>
<path d="M186.006 217.449C186.819 218.78 187.789 220.009 188.896 221.109C187.776 221.151 186.664 220.906 185.666 220.399C184.94 220.028 184.328 219.468 183.895 218.778C183.462 218.088 183.224 217.293 183.206 216.479C183.189 215.362 183.45 214.259 183.966 213.268C184.479 214.737 185.164 216.14 186.006 217.449Z" fill="#222222"/>
<path d="M189.655 217.888C189.68 219.009 189.419 220.118 188.895 221.109C187.839 218.169 186.157 215.494 183.965 213.269C185.081 213.228 186.189 213.472 187.185 213.979C187.913 214.345 188.528 214.901 188.965 215.589C189.403 216.277 189.641 217.073 189.655 217.888Z" fill="#222222"/>
<path d="M185.566 224.282C186.683 224.244 187.791 224.487 188.788 224.99C189.514 225.361 190.129 225.918 190.569 226.605C191.002 227.296 191.24 228.09 191.258 228.905C191.28 230.024 191.016 231.131 190.493 232.12C189.374 232.163 188.263 231.92 187.264 231.416C186.538 231.045 185.925 230.486 185.49 229.797C185.062 229.103 184.827 228.307 184.808 227.492C184.787 226.375 185.048 225.271 185.566 224.282Z" fill="#222222"/>
<path d="M199.844 189.169C198.506 189.8 197.216 190.529 195.984 191.349C196.156 190.286 196.547 189.271 197.134 188.369C197.538 187.758 198.093 187.262 198.744 186.928C199.377 186.619 200.082 186.487 200.784 186.549C201.817 186.652 202.832 186.887 203.804 187.249L199.844 189.169Z" fill="#222222"/>
<path d="M203.244 190.569C202.824 191.31 202.193 191.91 201.43 192.291C200.668 192.672 199.81 192.817 198.964 192.709C197.86 192.554 196.825 192.082 195.984 191.349C196.739 191.281 197.483 191.13 198.204 190.899C198.919 190.67 199.618 190.393 200.294 190.069C200.972 189.734 201.618 189.339 202.224 188.888C202.846 188.442 203.381 187.886 203.804 187.249C204.044 188.386 203.843 189.572 203.244 190.569Z" fill="#222222"/>
<path d="M198.286 198.169C196.635 198.769 194.956 199.299 193.266 200.009C193.75 198.935 194.436 197.964 195.286 197.149C195.908 196.563 196.643 196.11 197.446 195.819C198.207 195.543 199.018 195.434 199.825 195.499C200.939 195.61 202.042 195.808 203.126 196.089C201.578 196.926 199.958 197.622 198.286 198.169Z" fill="#222222"/>
<path d="M201.996 199.689C201.341 200.486 200.485 201.094 199.515 201.447C198.546 201.801 197.5 201.887 196.486 201.699C195.268 201.469 194.146 200.881 193.266 200.009C194.177 200.044 195.09 199.974 195.986 199.799C196.88 199.643 197.76 199.412 198.616 199.109C199.483 198.811 200.314 198.419 201.096 197.939C201.893 197.47 202.585 196.84 203.126 196.089C203.196 196.734 203.132 197.387 202.937 198.007C202.743 198.626 202.422 199.199 201.996 199.689Z" fill="#222222"/>
<path d="M196.405 205.949C194.755 206.549 193.075 207.079 191.385 207.789C191.869 206.712 192.559 205.741 193.415 204.928C194.032 204.341 194.764 203.888 195.565 203.599C196.326 203.323 197.138 203.214 197.945 203.279C199.058 203.39 200.162 203.588 201.245 203.869C199.697 204.706 198.077 205.402 196.405 205.949Z" fill="#222222"/>
<path d="M200.115 207.469C199.46 208.266 198.604 208.873 197.635 209.227C196.666 209.581 195.619 209.667 194.605 209.479C193.387 209.25 192.265 208.661 191.385 207.789C192.297 207.824 193.209 207.754 194.105 207.579C194.999 207.423 195.879 207.192 196.735 206.888C197.602 206.591 198.434 206.199 199.215 205.719C200.013 205.25 200.704 204.62 201.245 203.869C201.315 204.514 201.251 205.167 201.056 205.787C200.862 206.406 200.541 206.979 200.115 207.469Z" fill="#222222"/>
<path d="M194.824 215.479C193.154 216.239 191.404 216.859 189.654 217.638C190.144 216.536 190.832 215.532 191.684 214.678C192.299 214.058 193.02 213.553 193.814 213.189C194.544 212.866 195.328 212.683 196.124 212.649C196.984 212.569 197.864 212.739 199.414 212.529C198.798 213.217 198.071 213.798 197.264 214.249C196.479 214.712 195.664 215.123 194.824 215.479Z" fill="#222222"/>
<path d="M199.704 213.619C199.716 213.973 199.692 214.328 199.634 214.678C199.494 215.325 199.232 215.939 198.864 216.489C198.219 217.455 197.31 218.215 196.244 218.678C195.256 219.116 194.169 219.285 193.094 219.169C191.818 219.021 190.618 218.487 189.654 217.638C190.615 217.638 191.572 217.521 192.504 217.289C193.441 217.076 194.355 216.775 195.234 216.388C196.132 216.006 196.97 215.497 197.724 214.879C198.511 214.283 199.1 213.464 199.414 212.529C199.49 212.704 199.553 212.885 199.605 213.069C199.648 213.25 199.682 213.434 199.704 213.619Z" fill="#222222"/>
<path d="M189.615 229.029C189.67 227.928 189.911 226.845 190.328 225.825C190.601 225.152 191.012 224.544 191.534 224.039C192.003 223.611 192.567 223.302 193.181 223.137C194.149 222.956 195.085 222.633 195.958 222.179C196.103 222.287 196.242 222.404 196.372 222.529C196.489 222.661 196.598 222.801 196.699 222.946C196.869 223.237 197.001 223.548 197.093 223.872C197.241 224.478 197.253 225.109 197.128 225.721C196.928 226.774 196.39 227.733 195.596 228.453C194.881 229.115 193.981 229.543 193.017 229.682C191.842 229.843 190.647 229.614 189.615 229.029Z" fill="#222222"/>
<path d="M199.285 180.079C198.703 181.678 198.307 183.339 198.105 185.029C197.379 184.11 196.898 183.023 196.705 181.869C196.564 180.994 196.636 180.099 196.915 179.259C197.205 178.42 197.7 177.667 198.355 177.069C199.221 176.283 200.269 175.726 201.405 175.449C200.525 176.907 199.814 178.46 199.285 180.079Z" fill="#222222"/>
<path d="M202.595 181.219C202.3 182.054 201.802 182.803 201.145 183.399C200.286 184.189 199.24 184.75 198.105 185.029C198.977 183.566 199.688 182.014 200.225 180.399C200.806 178.799 201.202 177.138 201.405 175.449C202.133 176.367 202.618 177.454 202.815 178.609C202.958 179.483 202.882 180.38 202.595 181.219Z" fill="#222222"/>
<path d="M185.566 224.281C186.672 225.379 187.641 226.605 188.453 227.935C189.301 229.242 189.986 230.647 190.493 232.12C189.385 231.025 188.416 229.798 187.606 228.467C186.76 227.159 186.075 225.754 185.566 224.281Z" fill="white"/>
<path d="M189.615 229.029C190.833 227.907 192.085 226.944 193.227 225.879C193.805 225.369 194.341 224.813 194.828 224.216C195.335 223.618 195.719 222.925 195.958 222.179C196.098 223.031 195.929 223.905 195.481 224.643C195.07 225.384 194.537 226.051 193.904 226.614C193.29 227.173 192.616 227.662 191.895 228.072C191.182 228.493 190.415 228.815 189.615 229.029Z" fill="white"/>
<path d="M184.325 236.449C184.485 236.759 184.635 237.079 184.786 237.388C184.955 237.749 185.126 238.099 185.296 238.459C185.595 239.089 185.895 239.709 186.185 240.339C186.445 239.649 186.715 238.969 186.975 238.289C187.135 237.899 187.295 237.499 187.455 237.109C187.515 236.939 187.586 236.779 187.655 236.609C186.546 236.579 185.435 236.529 184.325 236.449ZM188.635 238.119L188.376 237.489C188.285 237.719 188.195 237.949 188.106 238.178C187.715 239.169 187.325 240.158 186.915 241.138C187.895 241.099 188.876 241.069 189.856 241.059L188.635 238.119ZM191.805 236.638C191.325 236.638 190.845 236.649 190.355 236.658C189.935 236.649 189.515 236.649 189.085 236.638L189.195 236.919L189.606 238.029L190.495 240.399L191.455 237.849L191.905 236.638L191.805 236.638ZM192.655 237.729L192.445 237.138L192.225 237.769L191.095 241.069C192.025 241.079 192.955 241.099 193.895 241.138L192.655 237.729ZM192.945 236.619L193.295 237.669L194.345 240.839L195.815 237.428L196.225 236.468C195.135 236.539 194.036 236.589 192.945 236.619H192.945ZM196.835 237.329L196.525 236.569L196.205 237.388L194.735 241.178C195.995 241.249 197.265 241.359 198.535 241.539L196.835 237.329ZM184.325 236.449C184.485 236.759 184.635 237.079 184.785 237.388C184.955 237.749 185.126 238.099 185.295 238.459C185.595 239.089 185.895 239.709 186.185 240.339C186.445 239.649 186.715 238.969 186.975 238.289C187.135 237.899 187.295 237.499 187.455 237.109C187.515 236.939 187.585 236.779 187.655 236.609C186.546 236.579 185.435 236.529 184.325 236.449L184.325 236.449ZM188.635 238.119L188.375 237.489C188.285 237.719 188.195 237.949 188.105 238.179C187.715 239.169 187.325 240.159 186.915 241.139C187.895 241.099 188.875 241.069 189.855 241.059L188.635 238.119ZM191.805 236.638C191.325 236.638 190.845 236.649 190.355 236.658C189.935 236.649 189.515 236.649 189.085 236.638L189.195 236.919L189.605 238.029L190.495 240.399L191.455 237.849L191.905 236.639L191.805 236.638ZM192.655 237.729L192.445 237.138L192.225 237.769L191.095 241.069C192.025 241.079 192.955 241.099 193.895 241.138L192.655 237.729ZM192.945 236.619L193.295 237.669L194.345 240.839L195.815 237.428L196.225 236.468C195.135 236.539 194.036 236.589 192.945 236.619L192.945 236.619ZM196.835 237.329L196.525 236.569L196.205 237.389L194.735 241.179C195.995 241.249 197.265 241.359 198.535 241.539L196.835 237.329ZM183.795 236.889C183.685 237.099 183.565 237.319 183.455 237.529L184.025 237.469C183.945 237.279 183.876 237.079 183.796 236.888L183.795 236.889ZM184.325 236.449C184.485 236.759 184.635 237.079 184.785 237.389C184.955 237.749 185.125 238.099 185.295 238.459C185.855 238.399 186.415 238.339 186.975 238.289C187.135 237.899 187.295 237.499 187.455 237.109C187.515 236.939 187.585 236.779 187.655 236.609C186.546 236.579 185.435 236.529 184.325 236.449L184.325 236.449ZM188.375 237.489C188.285 237.719 188.195 237.949 188.105 238.179C188.275 238.159 188.455 238.139 188.635 238.119L188.375 237.489ZM190.355 236.659C189.935 236.649 189.515 236.649 189.085 236.639L189.195 236.919C190.065 236.829 190.935 236.729 191.805 236.639C191.325 236.638 190.845 236.649 190.356 236.658L190.355 236.659ZM178.945 221.919L181.165 236.159C182.005 236.049 182.845 235.969 183.675 235.899C183.714 235.871 183.758 235.853 183.805 235.846C183.852 235.839 183.9 235.843 183.945 235.859L183.965 235.879C185.385 235.779 186.795 235.709 188.205 235.679C188.31 235.649 188.421 235.649 188.525 235.679C189.135 235.669 189.745 235.659 190.355 235.659C192.875 235.669 195.385 235.729 197.895 235.969C198.445 236.029 199.005 236.089 199.555 236.159L199.615 235.779L201.765 221.919L178.945 221.919ZM182.475 235.329C182.087 235.314 181.719 235.15 181.45 234.87C181.18 234.591 181.029 234.217 181.029 233.829C181.029 233.44 181.18 233.067 181.45 232.787C181.719 232.507 182.087 232.343 182.475 232.329C182.864 232.343 183.231 232.507 183.501 232.787C183.77 233.067 183.921 233.44 183.921 233.829C183.921 234.217 183.77 234.59 183.501 234.87C183.231 235.15 182.864 235.314 182.475 235.329L182.475 235.329ZM187.875 235.329C187.487 235.314 187.119 235.15 186.85 234.87C186.58 234.591 186.429 234.217 186.429 233.829C186.429 233.44 186.58 233.067 186.85 232.787C187.119 232.507 187.487 232.343 187.875 232.329C188.264 232.343 188.632 232.507 188.902 232.787C189.172 233.066 189.323 233.44 189.323 233.829C189.323 234.217 189.172 234.591 188.902 234.871C188.632 235.15 188.264 235.315 187.876 235.329L187.875 235.329ZM193.095 235.149C192.707 235.135 192.339 234.97 192.069 234.691C191.8 234.411 191.649 234.037 191.649 233.649C191.649 233.26 191.8 232.887 192.069 232.607C192.339 232.327 192.707 232.163 193.095 232.149C193.483 232.163 193.851 232.327 194.121 232.607C194.39 232.887 194.541 233.26 194.541 233.649C194.541 234.037 194.39 234.411 194.121 234.69C193.851 234.97 193.484 235.134 193.095 235.149L193.095 235.149ZM198.225 235.329C197.837 235.314 197.469 235.15 197.2 234.87C196.93 234.591 196.779 234.217 196.779 233.829C196.779 233.44 196.93 233.067 197.2 232.787C197.469 232.507 197.837 232.343 198.225 232.329C198.614 232.343 198.981 232.507 199.251 232.787C199.52 233.067 199.671 233.44 199.671 233.829C199.671 234.217 199.52 234.59 199.251 234.87C198.981 235.15 198.614 235.314 198.225 235.329L198.225 235.329ZM196.835 237.329L196.525 236.569L196.205 237.388L194.735 241.178C195.995 241.249 197.265 241.359 198.535 241.539L196.835 237.329ZM192.945 236.619L193.295 237.669L194.345 240.839L195.815 237.428L196.225 236.468C195.135 236.539 194.036 236.589 192.945 236.619H192.945ZM192.655 237.729L192.445 237.138L192.225 237.769L191.095 241.069C192.025 241.079 192.955 241.099 193.895 241.138L192.655 237.729ZM191.805 236.638C191.325 236.638 190.845 236.649 190.355 236.658C189.935 236.649 189.515 236.649 189.085 236.638L189.195 236.919L189.605 238.029L190.495 240.399L191.455 237.849L191.905 236.638L191.805 236.638ZM188.635 238.119L188.376 237.489C188.285 237.719 188.195 237.949 188.105 238.178C187.715 239.169 187.325 240.158 186.915 241.138C187.895 241.099 188.876 241.069 189.855 241.059L188.635 238.119ZM184.325 236.449C184.485 236.759 184.635 237.079 184.785 237.388C184.955 237.749 185.126 238.099 185.295 238.459C185.595 239.089 185.895 239.709 186.185 240.339C186.445 239.649 186.715 238.969 186.975 238.289C187.135 237.899 187.295 237.499 187.455 237.109C187.515 236.939 187.585 236.779 187.655 236.609C186.546 236.579 185.435 236.529 184.325 236.449H184.325ZM196.836 237.329L196.525 236.569L196.205 237.388L194.735 241.178C195.995 241.249 197.265 241.359 198.535 241.539L196.836 237.329ZM192.945 236.619L193.295 237.669L194.345 240.839L195.815 237.428L196.225 236.468C195.135 236.539 194.036 236.589 192.945 236.619L192.945 236.619ZM192.655 237.729L192.445 237.138L192.225 237.769L191.095 241.069C192.025 241.079 192.955 241.099 193.895 241.138L192.655 237.729ZM191.806 236.638C191.325 236.638 190.845 236.649 190.356 236.658C189.935 236.649 189.515 236.649 189.086 236.638L189.195 236.919L189.606 238.029L190.495 240.399L191.455 237.849L191.905 236.638L191.806 236.638ZM188.635 238.119L188.376 237.489C188.286 237.719 188.196 237.948 188.106 238.178C187.715 239.169 187.325 240.158 186.915 241.138C187.895 241.099 188.876 241.069 189.856 241.059L188.635 238.119ZM184.325 236.448C184.485 236.759 184.635 237.079 184.786 237.388C184.955 237.749 185.126 238.099 185.296 238.458C185.595 239.089 185.895 239.708 186.185 240.339C186.445 239.649 186.715 238.968 186.975 238.289C187.135 237.899 187.296 237.499 187.455 237.109C187.516 236.939 187.586 236.779 187.655 236.609C186.546 236.579 185.435 236.529 184.325 236.449L184.325 236.448ZM191.806 236.638C190.935 236.728 190.066 236.829 189.195 236.919L189.606 238.029C190.215 237.968 190.836 237.908 191.455 237.849L191.905 236.638H191.806ZM192.445 237.138L192.225 237.769C192.365 237.759 192.515 237.749 192.655 237.729L192.445 237.138ZM192.945 236.619L193.296 237.669L195.816 237.428L196.225 236.468C195.135 236.539 194.036 236.589 192.945 236.619L192.945 236.619ZM196.526 236.569L196.205 237.388C196.415 237.369 196.625 237.349 196.836 237.329L196.526 236.569ZM196.786 236.428L197.106 237.309L198.635 241.539V241.549C198.662 241.547 198.69 241.55 198.715 241.559L199.415 237.089L199.556 236.158C198.626 236.279 197.705 236.359 196.786 236.428L196.786 236.428ZM198.626 241.569C198.626 241.579 198.626 241.599 198.606 241.599C198.595 241.603 198.583 241.604 198.572 241.6C198.561 241.596 198.551 241.589 198.546 241.579C195.829 241.913 193.093 242.073 190.356 242.059C189.066 242.049 187.776 242.019 186.486 241.959C186.422 242.006 186.346 242.035 186.267 242.044C186.188 242.053 186.108 242.041 186.036 242.009C185.993 241.985 185.953 241.959 185.915 241.928C184.615 241.849 183.306 241.739 182.005 241.559L182.675 245.859H198.046L198.715 241.559C198.685 241.557 198.655 241.56 198.626 241.569L198.626 241.569ZM185.885 245.479C185.496 245.466 185.127 245.302 184.856 245.022C184.586 244.742 184.434 244.368 184.434 243.979C184.434 243.589 184.586 243.215 184.856 242.935C185.127 242.655 185.496 242.491 185.885 242.479C186.275 242.491 186.644 242.655 186.914 242.935C187.185 243.215 187.337 243.589 187.337 243.979C187.337 244.368 187.185 244.742 186.914 245.022C186.644 245.302 186.275 245.466 185.885 245.479ZM190.925 245.479C190.536 245.466 190.167 245.302 189.896 245.022C189.626 244.742 189.474 244.368 189.474 243.979C189.474 243.589 189.626 243.215 189.896 242.935C190.167 242.655 190.536 242.491 190.925 242.479C191.315 242.491 191.684 242.655 191.954 242.935C192.225 243.215 192.377 243.589 192.377 243.979C192.377 244.368 192.225 244.742 191.954 245.022C191.684 245.302 191.315 245.466 190.925 245.479ZM195.965 245.299C195.576 245.286 195.207 245.122 194.936 244.842C194.666 244.562 194.514 244.188 194.514 243.799C194.514 243.409 194.666 243.035 194.936 242.755C195.207 242.475 195.576 242.311 195.965 242.299C196.355 242.311 196.724 242.475 196.994 242.755C197.265 243.035 197.417 243.409 197.417 243.799C197.417 244.188 197.265 244.562 196.994 244.842C196.724 245.122 196.355 245.286 195.965 245.299H195.965ZM196.835 237.329L196.525 236.569L196.205 237.388L194.735 241.178C195.995 241.248 197.265 241.359 198.535 241.539L196.835 237.329ZM192.945 236.619L193.295 237.669L194.345 240.839L195.815 237.428L196.225 236.468C195.135 236.539 194.036 236.589 192.945 236.619L192.945 236.619ZM192.655 237.728L192.445 237.138L192.225 237.769L191.095 241.069C192.025 241.079 192.955 241.099 193.895 241.138L192.655 237.728ZM191.806 236.638C191.325 236.638 190.845 236.649 190.356 236.658C189.935 236.649 189.515 236.649 189.086 236.638L189.195 236.919L189.606 238.029L190.495 240.399L191.455 237.849L191.905 236.638L191.806 236.638ZM188.635 238.119L188.376 237.488C188.285 237.718 188.195 237.948 188.106 238.178C187.715 239.169 187.325 240.158 186.915 241.138C187.895 241.099 188.876 241.069 189.856 241.059L188.635 238.119ZM184.325 236.448C184.485 236.759 184.635 237.079 184.786 237.388C184.955 237.748 185.126 238.099 185.296 238.458C185.595 239.089 185.895 239.708 186.185 240.339C186.445 239.649 186.715 238.968 186.975 238.289C187.135 237.899 187.295 237.499 187.455 237.109C187.515 236.939 187.586 236.779 187.655 236.609C186.546 236.579 185.435 236.529 184.325 236.449L184.325 236.448ZM184.455 238.539C184.316 238.189 184.165 237.829 184.026 237.468C183.945 237.279 183.876 237.079 183.796 236.888C183.685 237.099 183.566 237.319 183.455 237.529C183.255 237.919 183.046 238.309 182.836 238.698C182.526 239.289 182.206 239.879 181.876 240.468C181.872 240.472 181.867 240.475 181.862 240.477C181.856 240.479 181.851 240.479 181.845 240.478L182.005 241.559C183.185 241.388 184.376 241.289 185.555 241.208C185.195 240.319 184.825 239.428 184.455 238.539L184.455 238.539ZM185.296 238.458C185.595 239.089 185.895 239.708 186.185 240.339C186.445 239.649 186.715 238.968 186.975 238.289C186.415 238.339 185.856 238.399 185.296 238.459L185.296 238.458ZM188.635 238.119C188.455 238.138 188.276 238.158 188.106 238.178C187.715 239.169 187.325 240.158 186.915 241.138C187.895 241.099 188.876 241.069 189.856 241.059L188.635 238.119ZM189.606 238.029L190.495 240.399L191.456 237.849C190.836 237.908 190.215 237.969 189.606 238.029L189.606 238.029ZM192.655 237.729C192.516 237.749 192.365 237.759 192.225 237.769L191.095 241.069C192.026 241.079 192.955 241.099 193.895 241.138L192.655 237.729ZM193.296 237.669L194.345 240.839L195.816 237.428L193.296 237.669ZM196.836 237.329C196.626 237.349 196.416 237.369 196.205 237.388L194.735 241.178C195.995 241.248 197.265 241.359 198.535 241.539L196.836 237.329ZM181.165 236.158L181.415 237.749L181.575 238.829L181.816 240.339C182.026 239.799 182.235 239.269 182.445 238.739C182.595 238.349 182.755 237.969 182.915 237.589C183.075 237.189 183.235 236.789 183.405 236.388C182.655 236.329 181.915 236.249 181.165 236.158Z" fill="#222222"/>
<path d="M191.743 233.885C190.908 233.134 190.29 232.173 189.953 231.103C189.796 230.569 189.592 230.04 189.472 229.494L189.134 227.849C188.858 225.633 188.773 223.397 188.882 221.167C188.921 218.933 189.255 216.732 189.514 214.522C189.919 212.34 190.231 210.133 190.761 207.978C191.258 205.816 191.755 203.653 192.383 201.528C192.988 199.395 193.569 197.258 194.315 195.171C195.036 193.077 195.684 190.96 196.486 188.897C197.297 186.837 198.067 184.764 198.913 182.721C197.737 186.99 196.375 191.187 195.229 195.447L194.338 198.63L193.518 201.83C193.254 202.898 192.934 203.954 192.696 205.027L191.972 208.246C191.422 210.378 191.113 212.553 190.671 214.706C190.347 216.873 190.006 219.043 189.83 221.225C189.615 223.403 189.583 225.594 189.734 227.777L189.929 229.401C190.001 229.943 190.155 230.465 190.264 231.002C190.514 232.069 191.022 233.059 191.743 233.885Z" fill="#222222"/>
<path d="M181.835 240.449L181.815 240.339L181.785 240.428C181.775 240.448 181.785 240.468 181.805 240.489C181.825 240.499 181.835 240.489 181.845 240.479L181.835 240.449Z" fill="#FCFCFC"/>
<path d="M217.223 242.375C220.502 241.473 223.829 240.752 227.188 240.217C230.54 239.638 233.922 239.246 237.317 239.045C234.038 239.95 230.711 240.671 227.352 241.203C224 241.781 220.618 242.172 217.223 242.375Z" fill="#222222"/>
<path d="M256.914 241.937C260.193 241.034 263.52 240.314 266.88 239.779C270.231 239.199 273.613 238.808 277.009 238.607C273.73 239.512 270.403 240.232 267.043 240.765C263.691 241.342 260.309 241.734 256.914 241.937Z" fill="#222222"/>
<path d="M297.615 234.884C300.895 233.981 304.222 233.26 307.581 232.726C310.933 232.146 314.314 231.755 317.71 231.553C314.431 232.458 311.104 233.179 307.744 233.711C304.392 234.289 301.011 234.68 297.615 234.884Z" fill="#222222"/>
<path d="M467.579 298.073C465.49 296.657 463.651 294.904 462.135 292.887C460.58 290.909 459.179 288.815 457.943 286.623C456.7 284.439 455.577 282.191 454.541 279.906C453.505 277.615 452.538 275.314 451.675 272.925L452.626 273.519C447.613 274.168 442.519 273.727 437.692 272.227C435.295 271.524 432.951 270.65 430.679 269.612C428.405 268.602 426.192 267.462 424.05 266.198C419.78 263.687 415.72 260.834 411.91 257.668C408.101 254.52 404.499 251.131 401.125 247.52L401.108 247.502C400.989 247.373 400.924 247.203 400.926 247.027C400.928 246.851 400.997 246.682 401.119 246.556C402.575 245.049 404.083 243.65 405.646 242.288C407.2 240.922 408.841 239.656 410.517 238.438C412.192 237.206 413.975 236.129 415.845 235.219C417.716 234.223 419.784 233.652 421.9 233.549C421.942 233.549 421.983 233.556 422.022 233.569C424.008 234.256 426.011 234.894 428.005 235.559L433.993 237.533C437.979 238.868 441.991 240.124 445.996 241.403L445.225 241.822L450.478 219.833C452.249 212.508 454.053 205.192 455.889 197.885L455.866 198C455.994 197.373 456.191 196.761 456.454 196.177C456.682 195.631 456.953 195.122 457.223 194.611C457.786 193.626 458.416 192.681 459.109 191.783C460.47 190.02 461.987 188.382 463.642 186.891C466.907 183.952 470.458 181.347 474.242 179.115C476.135 177.978 478.096 176.96 480.114 176.065C482.141 175.189 484.219 174.438 486.338 173.816C490.578 172.56 494.973 171.906 499.394 171.874C503.809 171.828 508.208 172.417 512.456 173.623C514.583 174.231 516.653 175.023 518.643 175.991C519.134 176.248 519.613 176.533 520.097 176.803L520.821 177.213L521.511 177.685C521.967 178.003 522.433 178.306 522.879 178.638L524.16 179.71C527.511 182.663 529.891 186.56 530.987 190.89C531.939 195.149 532.061 199.552 531.344 203.857C531.342 203.873 531.336 203.889 531.328 203.903C531.319 203.916 531.308 203.929 531.295 203.938C531.282 203.948 531.267 203.955 531.251 203.959C531.236 203.963 531.219 203.964 531.203 203.961C531.172 203.956 531.144 203.94 531.124 203.915C531.105 203.891 531.095 203.859 531.097 203.828C531.514 199.576 531.143 195.283 530.002 191.166C528.783 187.143 526.394 183.575 523.139 180.915L521.906 179.965C521.476 179.672 521.026 179.407 520.589 179.127L519.929 178.712L519.233 178.356C518.767 178.122 518.31 177.873 517.839 177.651C515.93 176.79 513.952 176.092 511.925 175.565C507.851 174.518 503.647 174.062 499.442 174.211C497.346 174.275 495.256 174.488 493.189 174.847C491.12 175.184 489.075 175.661 487.069 176.274C485.064 176.888 483.099 177.625 481.183 178.478C479.275 179.348 477.414 180.319 475.609 181.387C471.979 183.54 468.552 186.021 465.374 188.799C463.81 190.168 462.372 191.675 461.077 193.302C460.444 194.099 459.866 194.938 459.347 195.814C459.109 196.253 458.867 196.69 458.674 197.135C458.491 197.531 458.344 197.943 458.234 198.365L458.21 198.481C456.297 205.769 454.352 213.049 452.377 220.321L446.385 242.119L446.38 242.138C446.359 242.213 446.324 242.283 446.277 242.344C446.229 242.405 446.17 242.456 446.102 242.494C446.035 242.533 445.961 242.557 445.884 242.567C445.807 242.577 445.729 242.571 445.654 242.55L445.614 242.538C441.651 241.136 437.695 239.711 433.713 238.365L427.749 236.318C425.759 235.643 423.778 234.94 421.78 234.287L421.9 234.306C419.903 234.428 417.957 234.988 416.2 235.946C414.396 236.87 412.682 237.962 411.08 239.206C409.459 240.437 407.907 241.757 406.433 243.16C404.956 244.555 403.51 246.012 402.172 247.513L402.166 246.549C405.623 249.964 409.294 253.157 413.157 256.106C416.981 259.086 420.994 261.814 425.171 264.275C427.26 265.488 429.388 266.629 431.579 267.627C433.753 268.648 435.998 269.511 438.296 270.209C442.833 271.705 447.632 272.242 452.388 271.784L452.422 271.781C452.62 271.76 452.82 271.808 452.986 271.916C453.153 272.025 453.277 272.188 453.338 272.378C454.081 274.705 454.958 277.037 455.89 279.322C456.826 281.611 457.849 283.866 458.989 286.057C460.079 288.273 461.333 290.405 462.74 292.435C464.118 294.485 465.796 296.316 467.718 297.868C467.745 297.887 467.763 297.917 467.768 297.949C467.773 297.982 467.765 298.015 467.746 298.042C467.727 298.067 467.699 298.084 467.668 298.09C467.638 298.095 467.606 298.09 467.579 298.073Z" fill="#222222"/>
</svg>
