<svg width="332" height="278" viewBox="0 0 701 551" fill="none" xmlns="http://www.w3.org/2000/svg">
<path d="M413.403 262.86L439.463 273.76C438.113 274.13 436.783 274.55 435.443 274.94L431.473 276.22C428.823 277.07 426.193 278 423.573 278.93C420.953 279.88 418.333 280.83 415.743 281.86C413.193 282.86 410.633 283.88 408.123 284.99C406.723 276.01 404.623 266.42 401.873 264.19L413.403 262.86Z" fill="#EB6B6B"/>
<path d="M439.463 273.76V292.28C434.643 294.52 423.843 298.06 410.213 302.12C410.213 302.12 409.503 293.86 408.123 285.01C410.773 284.27 413.403 283.44 416.003 282.58C418.653 281.73 421.283 280.8 423.903 279.87C426.523 278.92 429.143 277.97 431.733 276.94L435.613 275.4C436.893 274.85 438.193 274.34 439.463 273.76Z" fill="#EB6B6B"/>
<path d="M252.452 283.55C253.441 283.25 254.412 282.92 255.372 282.53L254.042 287.81C252.748 286.535 251.375 285.342 249.932 284.24C250.771 284.03 251.622 283.81 252.452 283.55Z" fill="#222222"/>
<path d="M340.963 303.77C327.053 301.53 289.003 289.15 282.153 283.94C277.113 280.1 271.343 273.81 270.593 258.81C269.494 265.64 268.364 272.47 267.203 279.3L267.163 279.54C268.014 279.06 268.931 278.706 269.883 278.49C270.954 278.217 272.063 278.129 273.163 278.23C272.226 278.813 271.193 279.229 270.113 279.46C269.14 279.705 268.135 279.799 267.133 279.74L264.403 295.59C266.893 297.28 269.363 298.98 271.803 300.73L275.643 303.47L279.453 306.26C281.993 308.12 284.543 309.96 287.043 311.88C289.543 313.79 292.073 315.65 294.553 317.6L294.563 317.61C294.618 317.661 294.657 317.727 294.673 317.8C296.593 317.25 298.534 316.74 300.463 316.21L306.633 314.63C310.753 313.59 314.883 312.63 319.003 311.63C323.153 310.7 327.284 309.73 331.433 308.85C335.583 307.96 339.733 307.09 343.913 306.33C339.833 307.49 335.713 308.55 331.603 309.59C327.493 310.64 323.353 311.59 319.233 312.6C315.093 313.52 310.963 314.49 306.813 315.38L300.583 316.69C298.613 317.07 296.653 317.47 294.683 317.83C294.683 317.84 294.703 317.85 294.703 317.86C295.063 321.89 295.403 325.92 295.643 329.96C295.013 326.02 294.483 322.07 293.973 318.11C291.443 316.32 288.973 314.46 286.473 312.64C283.923 310.8 281.423 308.88 278.913 306.99L275.143 304.14L271.423 301.24C269.053 299.41 266.713 297.53 264.393 295.63L263.593 300.29C263.573 300.402 263.509 300.502 263.415 300.568C263.322 300.634 263.206 300.659 263.093 300.64C263.069 300.638 263.045 300.631 263.023 300.62L252.183 296.85C252.074 296.809 251.984 296.729 251.928 296.626C251.873 296.523 251.857 296.404 251.883 296.29L254.003 287.95C252.151 286.937 250.374 285.794 248.683 284.53C247.353 285.49 246.043 286.46 244.703 287.41C243.243 288.42 241.803 289.46 240.323 290.46C241.683 289.31 243.063 288.19 244.443 287.06C245.723 286.01 247.023 284.99 248.323 283.96C248.333 283.886 248.357 283.815 248.393 283.75C247.623 280.79 246.943 277.81 246.233 274.83C245.483 271.75 244.793 268.65 244.123 265.55C243.423 262.45 242.753 259.35 242.133 256.23C241.483 253.12 240.883 250.01 240.323 246.88C241.183 249.94 242.003 253.01 242.763 256.09C243.563 259.16 244.303 262.25 245.023 265.34C245.763 268.43 246.483 271.52 247.143 274.62C247.793 277.56 248.453 280.5 249.053 283.45C250.123 283.2 251.193 282.97 252.273 282.78C253.313 282.6 254.353 282.46 255.413 282.37L256.583 277.78L261.343 259.27L261.353 259.24V259.23C261.951 257.612 262.422 255.95 262.763 254.26C263.154 252.615 263.143 250.9 262.733 249.26C262.482 248.48 262.026 247.783 261.413 247.24C261.091 246.97 260.75 246.722 260.393 246.5L259.833 246.13L259.543 245.89C259.503 245.88 259.473 245.85 259.363 245.81C257.685 245.428 255.98 245.177 254.263 245.06C247.303 244.43 240.313 244.06 233.333 243.68C236.823 243.73 240.323 243.83 243.823 243.96C247.323 244.09 250.813 244.23 254.313 244.5C255.183 244.57 256.063 244.65 256.933 244.75C257.832 244.82 258.723 244.974 259.593 245.21C259.738 245.256 259.873 245.327 259.994 245.42L260.213 245.6L260.753 245.94C261.142 246.171 261.513 246.432 261.863 246.72C262.58 247.333 263.119 248.127 263.423 249.02C263.902 250.776 263.953 252.62 263.573 254.4C263.249 256.136 262.781 257.842 262.173 259.5L257.513 278.01L252.893 296.11L262.833 299.63L266.643 279.2C267.933 272.38 269.25 265.563 270.593 258.75C270.371 252.186 270.834 245.618 271.973 239.15L253.663 237.23C251.819 237.061 250.072 236.324 248.663 235.12C247.165 234.901 245.679 234.6 244.213 234.22C243.833 234.13 243.453 234.03 243.073 233.91C242.883 233.85 242.693 233.79 242.493 233.72C242.471 233.71 242.447 233.703 242.423 233.7H242.393C242.326 233.707 242.259 233.721 242.193 233.74C241.487 233.961 240.804 234.249 240.153 234.6C238.773 235.27 237.413 236.01 236.034 236.71C234.663 237.44 233.263 238.13 231.843 238.79C234.282 236.823 236.919 235.117 239.713 233.7C240.443 233.33 241.206 233.032 241.994 232.81C242.122 232.785 242.252 232.771 242.383 232.77C242.541 232.779 242.696 232.813 242.843 232.87C243.003 232.95 243.184 233.01 243.353 233.08L244.443 233.48C245.833 233.97 247.224 234.49 248.603 235.06C247.153 233.68 246.113 231.45 246.724 227.81L247.653 203.12L243.903 202.35C243.903 202.35 241.143 202.97 246.593 187.23L255.303 162.18C255.303 162.18 221.093 166.4 219.853 167.64C218.613 168.88 227.043 252.44 238.704 292.36C238.704 292.36 291.763 330.3 294.983 331.54C296.553 332.13 325.963 325.08 358.093 316.61C358.093 316.61 354.863 306.01 340.963 303.77ZM228.823 186.4C228.013 181.48 227.233 176.56 226.553 171.62C227.633 176.49 228.613 181.38 229.573 186.27C230.534 191.16 231.413 196.07 232.333 200.97C233.173 205.88 234.063 210.79 234.863 215.71L236.053 223.09C236.413 225.56 236.803 228.02 237.133 230.49C236.583 228.06 236.093 225.62 235.563 223.18L234.103 215.84C233.143 210.95 232.273 206.04 231.353 201.14C230.513 196.23 229.623 191.33 228.823 186.4Z" fill="#EB6B6B"/>
<path d="M321.272 128.46C319.452 128.46 317.132 129.45 314.822 129.95C312.512 130.45 307.223 129.45 306.723 127.97C306.223 126.48 303.102 114.2 302.592 114.78C302.092 115.36 301.102 116.39 301.102 116.39C301.102 116.39 300.932 131.35 301.262 132.96C301.602 134.58 307.712 142.68 316.802 141.85C325.892 141.02 327.222 130.28 327.222 130.28C327.222 130.28 323.082 128.46 321.272 128.46ZM322.772 132.9C322.105 133.311 321.324 133.5 320.542 133.44C319.783 133.382 319.047 133.149 318.392 132.76C317.756 132.391 317.212 131.881 316.802 131.27C317.989 131.884 319.276 132.284 320.602 132.45C321.223 132.496 321.847 132.411 322.432 132.2C323.067 131.954 323.673 131.642 324.243 131.27C323.924 131.946 323.412 132.513 322.772 132.9Z" fill="#222222"/>
<path d="M301.101 116.394C301.101 116.394 309.366 108.625 308.705 99.0375C308.705 99.0375 310.854 97.0539 314.325 100.36C314.325 100.36 317.301 101.186 320.772 97.5498C324.243 93.9131 326.062 99.2028 326.062 99.2028C326.062 99.2028 327.88 104.823 328.376 103.335C328.872 101.848 329.698 94.7396 322.26 92.4254C316.475 90.7023 310.429 90.0304 304.407 90.4418C302.424 90.7724 298.291 94.0784 298.291 98.7069C298.291 103.335 296.307 109.121 296.473 110.939C296.638 112.758 301.101 116.394 301.101 116.394Z" fill="#222222"/>
<path d="M308.541 114.411C310.144 113.798 311.865 113.557 313.575 113.705C314.435 113.779 315.282 113.964 316.095 114.255C316.903 114.552 317.649 114.997 318.294 115.568C317.531 115.238 316.743 114.97 315.937 114.769C315.14 114.586 314.331 114.46 313.517 114.391C311.86 114.278 310.197 114.284 308.541 114.411Z" fill="#222222"/>
<path d="M322.592 114.781C323.255 114.054 324.071 113.485 324.981 113.113C325.885 112.686 326.902 112.561 327.882 112.758C326.987 113.043 326.108 113.373 325.248 113.748C324.386 114.102 323.537 114.487 322.592 114.781Z" fill="#222222"/>
<path d="M314.822 117.923C315.09 117.914 315.344 117.801 315.53 117.608C315.716 117.416 315.82 117.158 315.82 116.89C315.82 116.622 315.716 116.365 315.53 116.172C315.344 115.979 315.09 115.866 314.822 115.857C314.554 115.866 314.301 115.979 314.115 116.172C313.928 116.365 313.824 116.622 313.824 116.89C313.824 117.158 313.928 117.416 314.115 117.608C314.301 117.801 314.554 117.914 314.822 117.923Z" fill="#222222"/>
<path d="M325.4 117.262C325.668 117.253 325.922 117.14 326.108 116.947C326.294 116.754 326.399 116.497 326.399 116.229C326.399 115.961 326.294 115.703 326.108 115.511C325.922 115.318 325.668 115.205 325.4 115.196C325.133 115.205 324.879 115.318 324.693 115.511C324.506 115.703 324.402 115.961 324.402 116.229C324.402 116.497 324.506 116.754 324.693 116.947C324.879 117.14 325.133 117.253 325.4 117.262Z" fill="#222222"/>
<path d="M296.473 110.939C296.112 111.089 295.789 111.319 295.528 111.611C295.267 111.902 295.075 112.249 294.966 112.625C294.758 113.368 294.759 114.154 294.97 114.896C295.451 116.414 296.019 117.903 296.669 119.356C297.251 120.876 297.71 122.439 298.041 124.032C298.175 124.78 298.545 125.465 299.096 125.987C299.391 126.244 299.737 126.435 300.111 126.548C300.485 126.661 300.879 126.693 301.267 126.643C300.865 126.76 300.443 126.786 300.031 126.718C299.618 126.65 299.226 126.49 298.884 126.25C298.209 125.712 297.73 124.967 297.52 124.13C297.116 122.59 296.617 121.076 296.025 119.598C295.75 118.847 295.469 118.097 295.169 117.354C294.839 116.598 294.598 115.806 294.452 114.995C294.285 114.163 294.354 113.302 294.652 112.508C294.81 112.121 295.058 111.778 295.374 111.505C295.691 111.232 296.067 111.039 296.473 110.939Z" fill="#222222"/>
<path d="M323.418 122.18C323.813 123.226 323.801 124.381 323.384 125.419C323.155 125.974 322.728 126.425 322.187 126.684C321.654 126.897 321.061 126.902 320.525 126.699C321.022 126.635 321.501 126.469 321.931 126.212C322.298 125.937 322.583 125.566 322.754 125.141C323.099 124.186 323.322 123.191 323.418 122.18Z" fill="#222222"/>
<path d="M328.376 103.335C328.236 105.605 328.231 107.881 328.362 110.152C328.431 111.278 328.561 112.399 328.751 113.511C328.952 114.602 329.27 115.719 329.461 116.858C329.849 119.147 329.824 121.486 329.387 123.766C328.912 126.012 328.184 128.197 327.219 130.28C327.93 128.122 328.48 125.915 328.865 123.676C329.211 121.452 329.184 119.186 328.782 116.972C328.617 115.858 328.327 114.771 328.134 113.616C327.946 112.478 327.846 111.328 327.835 110.174C327.792 107.882 327.973 105.592 328.376 103.335Z" fill="#222222"/>
<path d="M301.266 132.961C301.129 134.284 300.637 135.544 299.84 136.609C299.434 137.15 298.937 137.616 298.37 137.985C297.796 138.34 297.137 138.533 296.463 138.545C297.035 138.285 297.571 137.951 298.054 137.55C298.51 137.14 298.924 136.686 299.29 136.195C299.664 135.696 300.008 135.176 300.32 134.636C300.634 134.091 300.958 133.539 301.266 132.961Z" fill="#222222"/>
<path d="M300.618 134.728C295.595 135.748 290.679 137.241 285.936 139.186C283.478 140.079 280.907 140.625 278.298 140.81C275.762 140.958 273.237 141.248 270.734 141.679C270.17 141.802 269.628 142.013 269.129 142.304C268.555 142.659 267.95 142.962 267.322 143.208C266.178 143.632 265.125 144.268 264.217 145.082C262.483 146.886 261.057 148.963 259.998 151.229C259.397 152.347 258.918 153.532 258.39 154.693C257.912 155.877 257.433 157.063 256.985 158.261C256.563 159.47 256.115 160.67 255.712 161.887L254.565 165.559L254.562 165.568L254.557 165.582C252.166 171.563 249.994 177.628 248.039 183.776C247.071 186.847 246.157 189.936 245.376 193.049C244.991 194.606 244.627 196.168 244.355 197.732C244.217 198.504 244.122 199.283 244.071 200.066C244.048 200.437 244.054 200.809 244.088 201.178C244.096 201.437 244.174 201.689 244.314 201.908L244.029 201.762C249.709 202.879 255.393 203.992 261.085 205.043L269.616 206.634L273.885 207.355C275.27 207.596 276.667 207.767 278.07 207.868L278.485 207.872C278.486 207.849 278.475 207.874 278.5 207.859C278.528 207.83 278.56 207.805 278.594 207.784C278.784 207.564 278.942 207.319 279.064 207.055C279.355 206.435 279.595 205.793 279.783 205.134C280.167 203.763 280.474 202.371 280.703 200.966C281.185 198.139 281.441 195.266 281.641 192.392C281.822 189.515 281.88 186.631 281.817 183.74C281.775 180.852 281.603 177.963 281.28 175.086C281.278 175.069 281.283 175.051 281.294 175.037C281.305 175.023 281.321 175.014 281.338 175.011C281.356 175.009 281.374 175.013 281.388 175.024C281.403 175.034 281.413 175.049 281.416 175.067C281.9 177.926 282.235 180.814 282.439 183.714C282.617 186.615 282.669 189.522 282.597 192.435C282.525 195.351 282.286 198.262 281.88 201.151C281.677 202.61 281.393 204.057 281.028 205.485C280.836 206.224 280.584 206.946 280.273 207.644C280.098 208.042 279.864 208.41 279.578 208.738C279.477 208.832 279.366 208.924 279.254 209.01C279.105 209.101 278.945 209.171 278.777 209.22C278.542 209.243 278.332 209.242 278.107 209.249C276.62 209.161 275.139 208.992 273.671 208.742L269.369 208.038C266.512 207.532 263.656 207.026 260.812 206.465C255.126 205.33 249.45 204.156 243.784 202.941L243.737 202.93C243.646 202.911 243.563 202.863 243.5 202.795C243.135 202.379 242.929 201.848 242.918 201.296C242.887 200.862 242.889 200.426 242.925 199.993C242.998 199.168 243.117 198.348 243.281 197.536C243.596 195.929 244.003 194.358 244.453 192.802C245.353 189.689 246.379 186.626 247.437 183.576C248.513 180.533 249.596 177.494 250.71 174.467L254.085 165.396L254.077 165.419C255.365 160.418 257.038 155.525 259.081 150.783C260.108 148.344 261.576 146.115 263.412 144.21C264.411 143.293 265.573 142.569 266.837 142.075C267.403 141.847 267.951 141.578 268.477 141.27C269.091 140.916 269.757 140.662 270.451 140.518C273.016 140.107 275.602 139.844 278.196 139.73C279.466 139.619 280.73 139.484 281.971 139.256C283.215 139.064 284.439 138.761 285.628 138.35C290.456 136.525 295.479 135.264 300.597 134.592C300.615 134.589 300.633 134.594 300.648 134.605C300.662 134.616 300.672 134.632 300.674 134.65C300.676 134.668 300.672 134.685 300.661 134.7C300.651 134.714 300.636 134.724 300.618 134.728Z" fill="#222222"/>
<path d="M316.835 149.058C316.722 149.659 316.694 150.274 316.75 150.883C316.787 151.5 316.827 152.116 316.886 152.732L317.263 156.421C317.534 158.88 317.857 161.333 318.158 163.789L318.636 167.47C318.938 168.764 318.74 170.124 318.082 171.279C317.866 171.554 317.597 171.783 317.292 171.953C316.987 172.124 316.651 172.232 316.304 172.273C315.957 172.313 315.605 172.285 315.269 172.189C314.932 172.093 314.619 171.932 314.345 171.715C314.07 171.5 313.843 171.232 313.676 170.926C313.51 170.62 313.408 170.283 313.377 169.936L313.177 168.091C312.901 165.633 312.606 163.176 312.231 160.733C312.052 159.513 311.809 158.303 311.502 157.108C311.427 156.817 311.324 156.534 311.193 156.264C311.167 156.203 311.128 156.15 311.078 156.108C311.028 156.065 310.968 156.035 310.905 156.02L310.48 155.836C309.913 155.591 309.338 155.361 308.761 155.138C306.457 154.24 304.135 153.381 301.792 152.594C300.63 152.226 299.423 151.701 298.307 152.069C297.788 152.318 297.357 152.719 297.071 153.219C296.786 153.718 296.658 154.293 296.707 154.867C296.705 154.932 296.679 154.993 296.632 155.039C296.585 155.084 296.523 155.109 296.458 155.108C296.415 155.107 296.374 155.095 296.337 155.073C296.3 155.051 296.27 155.021 296.249 154.984C295.6 153.855 294.869 152.775 294.064 151.752C293.285 150.725 292.374 149.807 291.353 149.02C290.855 148.644 290.297 148.354 289.704 148.16C289.052 147.954 288.426 147.676 287.836 147.332C286.633 146.644 285.616 145.673 284.874 144.502C284.864 144.486 284.856 144.469 284.851 144.451L284.844 144.429C284.659 143.741 284.749 143.008 285.095 142.384C285.414 141.809 285.832 141.295 286.331 140.865C287.287 140.047 288.341 139.351 289.468 138.792C291.678 137.671 293.992 136.768 296.377 136.096C296.437 136.078 296.502 136.079 296.562 136.099C296.621 136.119 296.674 136.157 296.712 136.207C296.75 136.257 296.772 136.318 296.775 136.381C296.778 136.444 296.762 136.506 296.728 136.56L296.719 136.574C296.338 137.219 296.09 137.934 295.992 138.676C295.936 139.054 295.906 139.435 295.9 139.817C295.934 140.199 295.931 140.586 295.999 140.965C296.256 142.505 296.832 143.974 297.691 145.278C298.11 145.941 298.565 146.583 299.052 147.199C299.584 147.779 300.083 148.391 300.638 148.952C301.212 149.494 301.757 150.071 302.357 150.587L304.18 152.113C304.184 152.116 304.187 152.119 304.189 152.123C304.192 152.127 304.193 152.131 304.194 152.136C304.195 152.14 304.194 152.145 304.193 152.149C304.192 152.154 304.19 152.158 304.188 152.161C304.182 152.168 304.174 152.173 304.165 152.174C304.156 152.176 304.146 152.174 304.139 152.168L302.245 150.719C301.621 150.226 301.048 149.671 300.445 149.148C299.855 148.612 299.339 147.997 298.785 147.422C298.273 146.805 297.794 146.161 297.35 145.493C296.427 144.157 295.794 142.642 295.491 141.046C295.41 140.646 295.402 140.234 295.359 139.827C295.354 139.415 295.378 139.004 295.429 138.596C295.519 137.757 295.784 136.947 296.207 136.217L296.549 136.696C294.226 137.414 291.967 138.325 289.796 139.418C288.725 139.954 287.724 140.619 286.815 141.4C286.364 141.71 286.006 142.137 285.78 142.637C285.555 143.136 285.471 143.688 285.538 144.231L285.508 144.158C286.18 145.222 287.096 146.109 288.182 146.746C288.726 147.071 289.304 147.335 289.906 147.532C290.564 147.754 291.18 148.082 291.732 148.504C292.794 149.332 293.733 150.307 294.519 151.4C295.319 152.464 296.04 153.584 296.677 154.753L296.22 154.87C296.237 154.211 296.4 153.565 296.698 152.977C296.845 152.673 297.053 152.401 297.307 152.179C297.562 151.957 297.859 151.789 298.181 151.685C299.518 151.298 300.758 151.904 301.902 152.274C304.24 153.1 306.55 153.996 308.844 154.932L310.564 155.636L310.993 155.816C311.079 155.842 311.158 155.885 311.227 155.943C311.295 156.001 311.351 156.072 311.391 156.151C311.534 156.436 311.648 156.735 311.732 157.042C312.076 158.244 312.29 159.465 312.52 160.684C312.969 163.123 313.336 165.574 313.682 168.028L313.934 169.869C313.961 170.141 314.043 170.404 314.175 170.642C314.307 170.88 314.486 171.089 314.702 171.256C315.13 171.592 315.674 171.744 316.214 171.68C316.755 171.616 317.248 171.341 317.586 170.915C317.886 170.432 318.068 169.886 318.12 169.321C318.182 168.728 318.16 168.13 318.057 167.544L317.619 163.854C317.328 161.394 317.095 158.927 316.887 156.458C316.78 155.223 316.693 153.987 316.645 152.747C316.615 152.128 316.604 151.507 316.595 150.887C316.565 150.261 316.626 149.634 316.775 149.025C316.778 149.017 316.784 149.01 316.791 149.006C316.799 149.002 316.808 149.001 316.817 149.003C316.825 149.006 316.832 149.012 316.837 149.02C316.841 149.027 316.842 149.037 316.839 149.045L316.835 149.058Z" fill="#222222"/>
<path d="M319.934 141.08C320.419 141.765 320.846 142.489 321.213 143.245C321.396 143.625 321.528 144.029 321.689 144.423C321.82 144.832 321.917 145.251 321.979 145.675C322.132 146.546 322.06 147.441 321.77 148.276C321.445 149.132 320.826 149.844 320.025 150.285C319.994 150.302 319.959 150.313 319.924 150.316C319.889 150.32 319.853 150.316 319.819 150.306C319.785 150.296 319.754 150.279 319.726 150.257C319.699 150.234 319.676 150.207 319.659 150.175C319.643 150.145 319.633 150.112 319.629 150.078L319.628 150.069C319.517 148.869 319.261 147.686 318.867 146.548C318.669 145.985 318.358 145.47 317.953 145.033C317.755 144.836 317.499 144.705 317.223 144.66C317.088 144.676 316.958 144.72 316.84 144.788C316.722 144.856 316.619 144.947 316.536 145.056C315.851 146.044 315.356 147.15 315.075 148.318C314.727 149.476 314.435 150.66 314.18 151.837L314.185 151.724L314.497 153.871C314.51 153.963 314.487 154.057 314.432 154.133C314.378 154.209 314.296 154.26 314.204 154.277C314.112 154.293 314.018 154.273 313.94 154.221C313.863 154.169 313.809 154.089 313.789 153.998L313.788 153.99C313.598 152.98 313.488 151.956 313.459 150.928C313.404 149.909 313.429 148.892 313.476 147.878C313.562 145.854 313.772 143.837 314.106 141.838C314.107 141.829 314.112 141.821 314.12 141.815C314.127 141.81 314.136 141.808 314.145 141.809C314.154 141.811 314.161 141.815 314.166 141.822C314.172 141.828 314.175 141.837 314.174 141.845C314.108 143.865 314.075 145.88 314.076 147.89C314.049 149.883 314.188 151.875 314.492 153.846L313.783 153.964L313.533 151.809L313.532 151.798C313.528 151.764 313.53 151.73 313.538 151.696C313.825 150.498 314.182 149.317 314.609 148.161C314.999 146.977 315.59 145.87 316.354 144.886C316.461 144.755 316.594 144.647 316.744 144.569C316.895 144.491 317.059 144.445 317.228 144.433C317.557 144.486 317.861 144.643 318.095 144.88C318.54 145.325 318.887 145.857 319.116 146.443C319.61 147.582 319.967 148.775 320.182 149.998L319.785 149.781C320.43 149.374 320.927 148.769 321.2 148.057C321.479 147.319 321.566 146.522 321.451 145.742C321.43 145.343 321.305 144.952 321.245 144.552C321.12 144.166 321.024 143.767 320.874 143.385C320.71 143.01 320.582 142.616 320.408 142.241L319.875 141.116C319.873 141.112 319.872 141.107 319.871 141.103C319.871 141.098 319.871 141.094 319.873 141.089C319.874 141.085 319.876 141.081 319.879 141.077C319.882 141.074 319.886 141.071 319.89 141.069C319.897 141.065 319.906 141.064 319.914 141.066C319.922 141.068 319.929 141.073 319.934 141.08Z" fill="#222222"/>
<path d="M314.945 157.513C315.213 157.504 315.467 157.391 315.653 157.198C315.839 157.006 315.943 156.748 315.943 156.48C315.943 156.212 315.839 155.955 315.653 155.762C315.467 155.569 315.213 155.456 314.945 155.447C314.677 155.456 314.424 155.569 314.237 155.762C314.051 155.955 313.947 156.212 313.947 156.48C313.947 156.748 314.051 157.006 314.237 157.198C314.424 157.391 314.677 157.504 314.945 157.513Z" fill="#222222"/>
<path d="M315.689 163.216C315.957 163.207 316.211 163.094 316.397 162.901C316.583 162.708 316.687 162.451 316.687 162.183C316.687 161.915 316.583 161.657 316.397 161.465C316.211 161.272 315.957 161.159 315.689 161.15C315.422 161.159 315.168 161.272 314.982 161.465C314.795 161.657 314.691 161.915 314.691 162.183C314.691 162.451 314.795 162.708 314.982 162.901C315.168 163.094 315.422 163.207 315.689 163.216Z" fill="#222222"/>
<path d="M316.311 168.671C316.578 168.662 316.832 168.549 317.018 168.356C317.205 168.163 317.309 167.906 317.309 167.638C317.309 167.37 317.205 167.112 317.018 166.92C316.832 166.727 316.578 166.614 316.311 166.605C316.043 166.614 315.789 166.727 315.603 166.92C315.417 167.112 315.312 167.37 315.312 167.638C315.312 167.906 315.417 168.163 315.603 168.356C315.789 168.549 316.043 168.662 316.311 168.671Z" fill="#222222"/>
<path d="M322.898 139.142C327.029 139.244 331.153 139.518 335.267 139.941C337.326 140.141 339.376 140.429 341.42 140.777C343.5 141.067 345.534 141.621 347.474 142.425C347.728 142.551 347.967 142.707 348.184 142.889C348.384 143.07 348.574 143.263 348.752 143.467C349.093 143.836 349.465 144.189 349.834 144.553C350.598 145.278 351.288 146.077 351.892 146.939C353.049 148.693 353.907 150.625 354.434 152.658C355.472 156.67 356.115 160.774 356.354 164.91C355.854 160.821 355.042 156.776 353.926 152.81C353.362 150.854 352.503 148.995 351.378 147.298C350.788 146.475 350.117 145.713 349.375 145.025C349.006 144.668 348.625 144.314 348.262 143.929C347.961 143.555 347.584 143.25 347.155 143.034C345.283 142.245 343.319 141.694 341.309 141.393C339.289 141.018 337.247 140.746 335.206 140.465C331.118 139.934 327.01 139.528 322.898 139.142Z" fill="#222222"/>
<path d="M266.223 147.88C268.126 147.477 270.109 147.706 271.871 148.532C273.637 149.38 275.145 150.683 276.241 152.307C276.788 153.106 277.265 153.95 277.666 154.832C278.046 155.715 278.378 156.618 278.661 157.536C278.869 158.473 279.125 159.396 279.288 160.336C279.396 161.286 279.527 162.229 279.612 163.175C279.372 162.251 279.176 161.325 278.958 160.406C278.73 159.49 278.42 158.597 278.157 157.696C277.804 156.828 277.493 155.941 277.098 155.097C276.694 154.26 276.219 153.459 275.678 152.703C274.664 151.151 273.275 149.88 271.639 149.006C269.974 148.132 268.098 147.742 266.223 147.88Z" fill="#222222"/>
<path d="M290.688 191.441C291.162 192.706 291.663 193.956 292.244 195.171C292.795 196.398 293.399 197.599 294.039 198.779C295.306 201.142 296.753 203.404 298.369 205.544C299.962 207.696 301.774 209.677 303.775 211.456L305.304 212.76C305.827 213.177 306.393 213.539 306.934 213.935L307.75 214.528C308.032 214.709 308.328 214.869 308.617 215.041L310.358 216.071C307.859 215.006 305.526 213.587 303.431 211.858C301.342 210.111 299.46 208.132 297.82 205.958C296.203 203.775 294.781 201.454 293.57 199.021C292.357 196.598 291.391 194.058 290.688 191.441Z" fill="#222222"/>
<path d="M247.654 203.12C247.624 207.239 247.533 211.356 247.466 215.474C247.411 219.593 247.271 223.708 247.177 227.825L247.174 227.86L247.169 227.898C246.917 229.543 247.127 231.226 247.775 232.759C248.463 234.24 249.698 235.398 251.221 235.989C251.612 236.116 251.995 236.263 252.391 236.378L253.618 236.615C254.467 236.74 255.344 236.832 256.21 236.927C257.949 237.112 259.691 237.277 261.436 237.421C268.415 238.007 275.416 238.308 282.414 238.465C289.408 238.626 296.406 238.395 303.375 237.772C310.299 237.103 317.333 236.042 323.624 233.029C323.685 233 323.756 232.995 323.821 233.014C323.886 233.033 323.943 233.075 323.979 233.132C324.474 233.905 325.161 234.536 325.973 234.965C326.801 235.402 327.715 235.65 328.65 235.692C329.598 235.728 330.547 235.628 331.466 235.395C331.923 235.261 332.381 235.121 332.835 234.971L334.163 234.42L332.864 235.045C332.417 235.221 331.964 235.387 331.509 235.549C330.581 235.839 329.613 235.986 328.64 235.984C327.64 235.997 326.653 235.769 325.761 235.318C324.869 234.866 324.1 234.206 323.518 233.393L323.873 233.496C320.729 235.135 317.383 236.351 313.922 237.114C310.482 237.904 306.999 238.496 303.491 238.887C296.483 239.603 289.439 239.904 282.395 239.789C275.357 239.744 268.332 239.297 261.326 238.672C259.575 238.514 257.824 238.334 256.076 238.132C255.199 238.029 254.33 237.931 253.445 237.794L252.091 237.519C251.646 237.387 251.208 237.218 250.768 237.067C248.993 236.338 247.574 234.944 246.813 233.183C246.121 231.449 245.932 229.555 246.267 227.718L246.258 227.79C246.476 223.678 246.649 219.564 246.906 215.453C247.151 211.342 247.372 207.23 247.654 203.12Z" fill="#222222"/>
<path d="M273.168 207.956C273.283 210.22 273.347 212.485 273.426 214.749L273.271 214.513C281.237 217.369 289.6 218.964 298.058 219.242C302.263 219.369 306.469 219.04 310.602 218.259L313.68 217.593C314.697 217.335 315.683 216.97 316.687 216.664L318.191 216.194C318.681 216.008 319.157 215.786 319.642 215.583L322.543 214.34L322.297 214.713C322.411 214.025 322.68 213.372 323.086 212.805C323.462 212.256 323.931 211.776 324.472 211.387C325.529 210.638 326.744 210.142 328.023 209.937C328.644 209.828 329.271 209.752 329.9 209.709C330.528 209.709 331.155 209.655 331.778 209.701C332.4 209.752 333.025 209.752 333.641 209.847L335.485 210.121L333.628 210.017C333.011 209.986 332.392 210.014 331.777 210.009C331.161 210.006 330.551 210.102 329.94 210.143C329.337 210.226 328.738 210.34 328.146 210.485C326.985 210.762 325.894 211.276 324.941 211.994C324.035 212.674 323.419 213.671 323.216 214.785L323.212 214.816C323.202 214.888 323.175 214.957 323.132 215.016C323.09 215.076 323.034 215.124 322.97 215.158C319.159 217.182 315.083 218.659 310.86 219.546C306.636 220.401 302.325 220.751 298.019 220.589C293.727 220.432 289.46 219.877 285.271 218.931C283.185 218.443 281.115 217.891 279.078 217.237C277.029 216.612 275.021 215.86 273.066 214.986L273.054 214.98C273.01 214.96 272.973 214.927 272.947 214.886C272.921 214.845 272.909 214.797 272.91 214.749C272.989 212.485 273.054 210.22 273.168 207.956Z" fill="#222222"/>
<path d="M253.164 219.965C254.244 218.478 255.62 217.231 257.207 216.304C258.795 215.363 260.514 214.665 262.308 214.23C263.21 214.048 264.123 213.92 265.041 213.849C265.954 213.76 266.874 213.745 267.79 213.805C268.707 213.825 269.609 214.01 270.514 214.107C271.407 214.299 272.293 214.516 273.168 214.749C272.259 214.669 271.368 214.519 270.47 214.442C269.569 214.414 268.674 214.29 267.777 214.334C265.989 214.326 264.207 214.516 262.461 214.901C260.722 215.297 259.043 215.923 257.469 216.762C255.872 217.593 254.419 218.675 253.164 219.965Z" fill="#222222"/>
<path d="M322.756 214.749C323.03 215.349 323.356 215.924 323.728 216.469C324.079 217.001 324.531 217.461 325.058 217.821C325.188 217.898 325.325 217.965 325.466 218.019C325.658 218.091 325.832 218.205 325.975 218.353C326.102 218.518 326.186 218.713 326.219 218.919C326.253 219.125 326.234 219.336 326.166 219.533C325.94 220.207 325.574 220.824 325.092 221.345L325.088 221.349L325.068 221.368C324.554 221.853 324.166 222.457 323.94 223.126C323.835 223.442 323.802 223.777 323.844 224.107C323.886 224.438 324.001 224.754 324.18 225.034C324.514 225.577 325.248 226.107 325.529 226.941C325.616 227.156 325.654 227.387 325.643 227.619C325.631 227.851 325.568 228.078 325.46 228.283C325.224 228.662 324.868 228.953 324.45 229.11L324.542 229.047C324 229.62 323.585 230.301 323.326 231.046C323.199 231.417 323.161 231.813 323.213 232.202C323.299 232.595 323.483 232.96 323.748 233.263C323.424 232.994 323.183 232.639 323.051 232.24C322.947 231.824 322.94 231.389 323.031 230.969C323.119 230.553 323.27 230.152 323.478 229.781C323.677 229.405 323.912 229.049 324.18 228.718C324.197 228.698 324.217 228.682 324.24 228.671L324.273 228.654C324.564 228.519 324.805 228.294 324.96 228.013C325.022 227.877 325.054 227.73 325.054 227.58C325.054 227.431 325.023 227.283 324.962 227.147C324.738 226.503 324.133 226.104 323.629 225.388C323.386 225.031 323.228 224.622 323.165 224.195C323.116 223.766 323.162 223.333 323.3 222.924C323.577 222.148 324.044 221.453 324.659 220.904L324.636 220.927C325.062 220.477 325.398 219.951 325.629 219.377C325.683 219.265 325.708 219.142 325.702 219.018C325.697 218.894 325.661 218.773 325.597 218.667C325.513 218.572 325.409 218.496 325.294 218.443C325.131 218.367 324.975 218.277 324.827 218.175C324.275 217.758 323.826 217.219 323.515 216.6C323.194 216.014 322.939 215.393 322.756 214.749Z" fill="#222222"/>
<path d="M335.071 215.445C335.051 215.865 335.03 216.278 335.009 216.691C334.176 216.685 333.336 216.65 332.502 216.56C331.521 216.481 330.549 216.317 329.596 216.071C330.549 215.826 331.521 215.662 332.502 215.582C333.356 215.493 334.217 215.459 335.071 215.445Z" fill="#222222"/>
<path d="M334.851 220.08C334.823 220.5 334.809 220.913 334.789 221.32C334.024 221.306 333.267 221.272 332.502 221.189C331.521 221.109 330.549 220.946 329.596 220.7C330.549 220.454 331.521 220.291 332.502 220.211C333.287 220.128 334.066 220.094 334.851 220.08Z" fill="#222222"/>
<path d="M334.644 224.543C334.63 224.963 334.61 225.377 334.596 225.783C333.9 225.762 333.198 225.728 332.502 225.652C331.521 225.573 330.549 225.409 329.596 225.163C330.549 224.917 331.521 224.754 332.502 224.674C333.218 224.598 333.935 224.564 334.644 224.543Z" fill="#222222"/>
<path d="M332.502 230.005C333.15 229.936 333.797 229.902 334.438 229.881C334.417 230.301 334.403 230.708 334.389 231.1C333.763 231.086 333.129 231.052 332.502 230.983C331.521 230.904 330.549 230.74 329.596 230.494C330.549 230.248 331.521 230.085 332.502 230.005Z" fill="#222222"/>
<path d="M311.273 240.257C311.273 240.257 298.864 227.992 294.231 235.946C289.598 243.899 292.783 249.733 296.225 253.67C300.418 258.466 300.629 259.902 301.873 261.323C303.118 262.743 317.163 279.915 334.67 278.95C344.882 278.388 344.708 272.946 342.79 268.508C341.396 265.365 339.156 262.672 336.32 260.728C330.728 256.82 318.231 247.768 311.273 240.257Z" fill="#222222"/>
<path d="M307.039 236.752C309.708 236.878 312.369 237.058 315.031 237.231L323.011 237.773C325.668 237.984 328.328 238.138 330.987 238.279C332.317 238.361 333.647 238.41 334.977 238.431C335.64 238.43 336.31 238.478 336.971 238.43L337.967 238.383L338.953 238.227C336.328 238.76 333.645 238.956 330.97 238.809C328.296 238.777 325.629 238.617 322.964 238.459C320.301 238.251 317.64 238.042 314.985 237.757C312.331 237.473 309.679 237.161 307.039 236.752Z" fill="#222222"/>
<path d="M333.597 259.145C333.521 259.145 333.448 259.12 333.388 259.074C333.328 259.028 333.284 258.964 333.264 258.891C333.244 258.818 333.249 258.741 333.277 258.671C333.305 258.601 333.356 258.542 333.421 258.503C333.96 258.186 346.678 250.718 351.437 252.271C351.524 252.3 351.595 252.361 351.636 252.443C351.677 252.524 351.684 252.618 351.655 252.705C351.627 252.791 351.566 252.863 351.484 252.904C351.403 252.946 351.309 252.953 351.222 252.925C346.761 251.463 333.901 259.02 333.771 259.097C333.718 259.128 333.658 259.145 333.597 259.145Z" fill="#222222"/>
<path d="M409.636 208.509L409.643 208.509L409.667 208.513L439.668 219.632L439.694 219.643C442.677 221.037 445.514 222.722 448.165 224.675C450.843 226.629 453.202 228.987 455.158 231.664C456.164 233.014 456.955 234.512 457.502 236.105C458.029 237.674 458.442 239.279 458.737 240.908C459.406 244.219 459.174 247.649 458.068 250.84C457.447 252.428 456.535 253.887 455.379 255.14C454.214 256.374 452.853 257.408 451.352 258.199C449.861 258.986 448.271 259.57 446.625 259.935C445.807 260.108 444.978 260.231 444.145 260.303L441.71 260.569C435.218 261.263 428.728 261.969 422.231 262.601C409.236 263.873 396.238 265.119 383.211 266.078C379.954 266.32 376.696 266.548 373.434 266.734C370.165 266.898 366.922 267.126 363.599 266.979C361.892 266.839 360.27 266.179 358.951 265.088C357.655 264.042 356.515 262.816 355.566 261.447C353.692 258.736 352.184 255.789 351.08 252.683C351.065 252.642 351.06 252.598 351.067 252.555C351.073 252.512 351.091 252.471 351.117 252.436C351.143 252.402 351.178 252.374 351.218 252.356C351.258 252.339 351.302 252.331 351.345 252.335L351.354 252.336C352.749 252.515 354.161 252.511 355.555 252.323C356.21 252.197 356.905 251.934 357.094 251.378C357.212 250.734 357.085 250.07 356.738 249.515C356.053 248.278 355.251 247.11 354.344 246.025C353.458 244.91 352.539 243.815 351.628 242.712C350.717 241.609 349.812 240.499 348.936 239.364C348.105 238.224 347.101 237.222 345.96 236.392C345.425 235.966 344.797 235.673 344.128 235.536C343.458 235.399 342.765 235.422 342.106 235.604C340.824 236.121 339.779 237.093 339.169 238.333L339.162 238.347C339.14 238.388 339.106 238.422 339.064 238.444C339.023 238.466 338.976 238.475 338.929 238.47C338.883 238.466 338.838 238.448 338.802 238.418C338.766 238.389 338.739 238.349 338.725 238.304C338.275 236.917 338.039 235.469 338.027 234.011C338.023 233.267 338.141 232.528 338.375 231.822C338.617 231.089 339.078 230.447 339.694 229.982L339.659 230.012C340.224 229.518 340.872 229.128 341.573 228.861C342.24 228.583 342.921 228.34 343.613 228.133C344.988 227.712 346.379 227.371 347.776 227.061C350.571 226.448 353.386 225.958 356.206 225.511C361.847 224.625 367.512 223.925 373.183 223.288C384.525 222.017 395.889 221.006 407.273 220.168L406.778 220.639C407.496 216.105 408.426 211.729 409.305 207.287L412.041 194.021L417.539 167.493L417.793 168.187C417.178 167.845 416.512 167.605 415.821 167.476C415.068 167.304 414.296 167.162 413.515 167.048C411.955 166.811 410.371 166.65 408.785 166.509C405.611 166.23 402.419 166.065 399.226 165.92C392.838 165.637 386.437 165.505 380.035 165.43C367.231 165.281 354.418 165.394 341.614 165.571L342.077 165.368C341.65 165.903 341.32 166.508 341.102 167.157C340.84 167.847 340.62 168.568 340.422 169.298C340.029 170.761 339.721 172.261 339.443 173.766C338.895 176.781 338.478 179.83 338.109 182.885C337.381 188.998 336.853 195.141 336.396 201.289C335.945 207.439 335.567 213.594 335.261 219.755C334.921 225.907 334.696 232.077 334.465 238.236L334.464 238.243C334.461 238.322 334.427 238.397 334.37 238.451C334.312 238.505 334.235 238.534 334.156 238.532L307.905 237.85C307.887 237.849 307.869 237.842 307.857 237.829C307.844 237.816 307.838 237.798 307.838 237.78C307.838 237.762 307.846 237.745 307.859 237.732C307.872 237.719 307.889 237.712 307.907 237.712L334.166 237.926L333.858 238.221C334.015 232.047 334.193 225.884 334.471 219.712C334.72 213.552 335.04 207.388 335.43 201.222C335.829 195.061 336.3 188.902 336.972 182.754C337.313 179.681 337.703 176.611 338.229 173.55C338.497 172.02 338.794 170.492 339.188 168.971C339.386 168.211 339.608 167.453 339.887 166.697C340.156 165.879 340.575 165.118 341.123 164.453C341.178 164.392 341.245 164.342 341.319 164.307C341.394 164.272 341.475 164.253 341.558 164.251L341.586 164.25C347.998 164.084 354.406 164.025 360.817 163.978C367.227 163.937 373.638 163.945 380.05 163.999C386.462 164.065 392.875 164.186 399.29 164.46C402.498 164.604 405.705 164.794 408.913 165.086C410.518 165.236 412.122 165.405 413.728 165.656C414.532 165.776 415.336 165.927 416.144 166.115C417.029 166.284 417.876 166.614 418.642 167.089C418.746 167.158 418.826 167.257 418.873 167.373C418.92 167.489 418.932 167.616 418.906 167.738L418.896 167.783L413.288 194.279L410.471 207.525C409.555 211.93 408.573 216.384 407.837 220.761L407.832 220.789C407.812 220.908 407.753 221.016 407.664 221.096C407.575 221.176 407.462 221.224 407.342 221.232C395.971 221.964 384.601 222.87 373.264 224.037C367.597 224.636 361.935 225.3 356.304 226.147C353.489 226.574 350.681 227.045 347.901 227.637C346.513 227.935 345.131 228.265 343.776 228.67C343.101 228.867 342.437 229.099 341.786 229.366C341.15 229.602 340.56 229.947 340.042 230.384L340.032 230.393L340.007 230.414C339.474 230.813 339.075 231.366 338.865 231.997C338.646 232.649 338.534 233.331 338.535 234.018C338.539 235.42 338.757 236.814 339.181 238.15L338.737 238.121C339.408 236.771 340.559 235.72 341.964 235.173C342.689 234.974 343.45 234.948 344.186 235.099C344.922 235.25 345.613 235.572 346.201 236.04C347.369 236.905 348.404 237.937 349.27 239.104C350.148 240.229 351.055 241.331 351.97 242.428C352.885 243.525 353.81 244.617 354.708 245.735C355.642 246.841 356.467 248.035 357.173 249.299C357.588 249.969 357.727 250.775 357.56 251.547C357.408 251.94 357.115 252.263 356.737 252.453C356.396 252.627 356.031 252.751 355.654 252.819C354.212 253.025 352.749 253.039 351.304 252.86L351.578 252.513C352.672 255.564 354.18 258.449 356.059 261.089C356.988 262.396 358.099 263.564 359.357 264.557C360.581 265.551 362.081 266.143 363.653 266.253C366.855 266.356 370.137 266.093 373.381 265.889C376.633 265.665 379.884 265.4 383.134 265.12C396.131 263.967 409.123 262.722 422.109 261.383L441.587 259.407C443.199 259.21 444.869 259.135 446.381 258.815C447.928 258.479 449.422 257.938 450.825 257.206C453.657 255.787 455.874 253.384 457.062 250.448C458.112 247.44 458.338 244.206 457.717 241.081C457.441 239.495 457.055 237.931 456.562 236.399C456.061 234.895 455.331 233.478 454.396 232.197C452.522 229.574 450.253 227.256 447.67 225.327C445.082 223.378 442.309 221.688 439.389 220.283L439.415 220.294L409.618 208.642L409.642 208.647L409.636 208.647C409.617 208.647 409.6 208.639 409.587 208.627C409.574 208.614 409.567 208.596 409.567 208.578C409.567 208.56 409.574 208.542 409.587 208.529C409.6 208.516 409.617 208.509 409.636 208.509L409.636 208.509Z" fill="#222222"/>
<path d="M341.601 164.91C336.559 170.613 334.162 238.229 334.162 238.229H338.956C338.956 238.229 336.952 232.292 339.851 230.198C345.12 224.77 407.308 220.7 407.308 220.7C407.446 219.508 408.376 214.77 409.643 208.578C412.853 192.812 418.218 167.638 418.218 167.638C412.763 163.423 341.601 164.91 341.601 164.91ZM376.81 195.905C370.783 195.905 365.9 194.458 365.9 192.681C365.9 190.904 370.783 189.458 376.81 189.458C382.837 189.458 387.72 190.904 387.72 192.681C387.72 194.458 382.837 195.905 376.81 195.905V195.905Z" fill="#222222"/>
<path d="M272.109 238.799C271.311 243.548 270.893 248.353 270.858 253.169C270.783 257.969 271.243 262.763 272.228 267.461C273.282 272.097 275.109 276.677 278.322 280.149C279.962 281.85 281.864 283.279 283.955 284.379L285.517 285.248C286.041 285.532 286.591 285.773 287.127 286.038C288.202 286.563 289.281 287.08 290.392 287.535C294.793 289.442 299.316 291.089 303.882 292.604C308.444 294.131 313.05 295.533 317.671 296.886C326.908 299.624 336.234 302.011 345.586 304.397C347.98 305.034 350.223 306.143 352.183 307.66C354.142 309.177 355.778 311.07 356.995 313.229C357.595 314.304 358.093 315.433 358.48 316.602C358.834 317.773 359.102 318.969 359.28 320.179L360.466 327.314C362.098 336.818 363.677 346.331 365.374 355.824L375.565 412.778L375.088 412.365C382.202 412.468 389.335 412.374 396.436 411.994C399.986 411.805 403.532 411.538 407.04 411.076C408.786 410.852 410.519 410.539 412.232 410.136C413.071 409.939 413.897 409.687 414.704 409.384C415.449 409.125 416.136 408.72 416.724 408.194L416.549 408.673C416.042 396.477 415.435 384.278 414.803 372.085C414.163 359.891 413.373 347.706 412.573 335.523C411.738 323.343 410.78 311.17 409.462 299.035C408.802 292.968 408.028 286.914 407.056 280.893C406.561 277.885 406.013 274.883 405.277 271.928C404.921 270.448 404.477 268.992 403.946 267.566C403.681 266.856 403.355 266.171 402.973 265.517C402.813 265.182 402.588 264.883 402.311 264.635C402.035 264.388 401.712 264.197 401.362 264.075L401.356 264.074C401.339 264.07 401.323 264.06 401.313 264.044C401.303 264.029 401.299 264.011 401.303 263.993C401.306 263.975 401.317 263.959 401.332 263.949C401.347 263.939 401.365 263.935 401.383 263.939C401.758 264.056 402.106 264.247 402.407 264.501C402.708 264.755 402.954 265.066 403.133 265.416C403.537 266.072 403.884 266.761 404.169 267.477C404.737 268.901 405.218 270.358 405.609 271.84C406.417 274.795 407.034 277.794 407.598 280.799C408.712 286.814 409.513 292.878 410.262 298.943C411.728 311.079 412.833 323.251 413.817 335.431C414.82 347.61 415.541 359.809 416.232 372.007C416.922 384.206 417.479 396.412 417.903 408.624L417.904 408.645C417.907 408.73 417.893 408.814 417.863 408.892C417.833 408.971 417.787 409.043 417.729 409.103C417 409.787 416.135 410.309 415.191 410.634C414.327 410.954 413.443 411.219 412.546 411.426C410.784 411.83 409.003 412.143 407.21 412.363C403.643 412.813 400.07 413.063 396.497 413.234C389.349 413.538 382.208 413.547 375.061 413.362C374.946 413.359 374.836 413.316 374.748 413.241C374.661 413.166 374.603 413.063 374.583 412.949L364.925 355.902C363.313 346.394 361.584 336.907 359.908 327.411L358.613 320.295C358.423 319.122 358.146 317.965 357.785 316.833C357.397 315.718 356.903 314.642 356.312 313.62C355.124 311.582 353.542 309.803 351.657 308.385C349.772 306.968 347.623 305.942 345.335 305.367C335.957 303.167 326.598 300.748 317.327 298.064C312.686 296.733 308.084 295.262 303.507 293.714C298.93 292.165 294.392 290.484 289.955 288.531C288.837 288.066 287.745 287.534 286.657 286.995C286.114 286.723 285.56 286.476 285.026 286.183L283.433 285.284C281.257 284.121 279.289 282.606 277.608 280.799C274.284 277.094 272.494 272.352 271.486 267.624C270.541 262.864 270.167 258.008 270.374 253.16C270.524 248.329 271.059 243.518 271.974 238.772C271.978 238.754 271.988 238.738 272.003 238.728C272.018 238.718 272.037 238.714 272.055 238.718C272.073 238.722 272.088 238.732 272.098 238.748C272.108 238.763 272.112 238.781 272.109 238.799Z" fill="#222222"/>
<path d="M386.232 421.666C386.232 421.666 380.281 421.046 380.281 423.898C380.281 426.749 380.777 447.577 383.257 448.197C385.736 448.817 458.387 473.86 477.727 453.528C477.727 453.528 491.116 446.089 465.825 437.411C440.534 428.733 424.665 420.054 424.665 420.054C424.665 420.054 400.613 420.798 400.117 423.278C399.622 425.757 403.341 434.684 403.341 434.684C403.341 434.684 387.472 438.403 386.232 421.666Z" fill="#222222"/>
<path d="M386.233 422.011C386.204 422.011 386.175 422.007 386.147 422C386.059 421.977 385.983 421.92 385.936 421.842C385.89 421.763 385.876 421.669 385.899 421.58C386.226 420.148 386.268 418.664 386.021 417.215C385.775 415.766 385.245 414.38 384.463 413.136C384.437 413.099 384.418 413.057 384.408 413.013C384.399 412.969 384.398 412.923 384.406 412.879C384.414 412.834 384.43 412.792 384.454 412.754C384.479 412.715 384.51 412.682 384.547 412.657C384.585 412.631 384.626 412.612 384.67 412.603C384.715 412.593 384.76 412.592 384.805 412.6C384.849 412.608 384.892 412.624 384.93 412.649C384.968 412.673 385.001 412.704 385.027 412.742C385.876 414.063 386.45 415.542 386.715 417.09C386.979 418.638 386.929 420.224 386.566 421.752C386.547 421.826 386.504 421.892 386.444 421.939C386.383 421.986 386.309 422.011 386.233 422.011Z" fill="#222222"/>
<path d="M421.689 420.399L421.677 420.398C414.181 420.148 406.853 412.328 406.545 411.996C406.514 411.963 406.49 411.924 406.475 411.882C406.459 411.84 406.452 411.794 406.453 411.749C406.455 411.704 406.466 411.66 406.484 411.618C406.503 411.577 406.53 411.54 406.563 411.51C406.596 411.479 406.635 411.455 406.678 411.439C406.72 411.423 406.765 411.416 406.81 411.418C406.856 411.419 406.9 411.43 406.941 411.449C406.982 411.468 407.019 411.494 407.05 411.528C407.124 411.608 414.493 419.469 421.7 419.71C421.791 419.713 421.876 419.752 421.938 419.817C422.001 419.883 422.035 419.97 422.033 420.06C422.031 420.151 421.995 420.237 421.93 420.3C421.866 420.363 421.779 420.399 421.689 420.399V420.399Z" fill="#222222"/>
<path d="M248.812 235.14C248.761 235.13 248.711 235.13 248.662 235.12L248.602 235.06C248.673 235.082 248.743 235.109 248.812 235.14Z" fill="white"/>
<path d="M270.592 258.75V258.81C270.622 258.63 270.652 258.46 270.682 258.28C270.652 258.44 270.622 258.59 270.592 258.75Z" fill="white"/>
<path d="M408.122 284.99V285.01C408.082 285.02 408.052 285.03 408.012 285.04C408.052 285.02 408.082 285.01 408.122 284.99Z" fill="white"/>
<path d="M238.804 292.355L239.982 313.064L241.056 333.778C241.422 340.682 241.907 347.581 242.027 354.495C242.08 357.952 242.133 361.408 242.096 364.869L242.039 370.059C241.979 371.791 241.957 373.521 241.862 375.254C241.861 375.28 241.85 375.304 241.831 375.322C241.813 375.34 241.788 375.351 241.763 375.352C241.737 375.353 241.711 375.344 241.692 375.327C241.672 375.31 241.659 375.287 241.656 375.261C241.434 373.54 241.285 371.816 241.097 370.094L240.657 364.922C240.366 361.474 240.164 358.022 239.962 354.571C239.572 347.668 239.547 340.751 239.404 333.838L238.949 313.102L238.598 292.362C238.597 292.335 238.607 292.309 238.626 292.29C238.645 292.27 238.67 292.258 238.697 292.257C238.724 292.256 238.751 292.266 238.771 292.284C238.791 292.302 238.803 292.328 238.804 292.355V292.355Z" fill="#222222"/>
<path d="M295.088 331.534L295.667 352.624L296.142 373.715C296.309 380.745 296.594 387.775 296.514 394.807C296.467 398.323 296.42 401.839 296.284 405.356L296.076 410.631C295.966 412.39 295.894 414.148 295.75 415.907C295.747 415.933 295.736 415.957 295.717 415.975C295.698 415.992 295.673 416.002 295.647 416.002C295.621 416.003 295.596 415.993 295.577 415.976C295.557 415.959 295.545 415.935 295.543 415.909C295.371 414.152 295.271 412.395 295.133 410.638L294.843 405.367C294.652 401.853 294.55 398.338 294.448 394.823C294.257 387.793 294.433 380.76 294.489 373.728L294.634 352.632L294.882 331.536C294.882 331.509 294.893 331.483 294.912 331.464C294.931 331.445 294.957 331.434 294.984 331.434C295.011 331.434 295.037 331.444 295.057 331.463C295.076 331.482 295.087 331.507 295.088 331.534L295.088 331.534Z" fill="#222222"/>
<path d="M241.759 375.375C246.598 375.375 250.52 374.634 250.52 373.722C250.52 372.809 246.598 372.069 241.759 372.069C236.92 372.069 232.998 372.809 232.998 373.722C232.998 374.634 236.92 375.375 241.759 375.375Z" fill="#222222"/>
<path d="M295.316 416.245C300.154 416.245 304.077 415.505 304.077 414.592C304.077 413.679 300.154 412.939 295.316 412.939C290.477 412.939 286.555 413.679 286.555 414.592C286.555 415.505 290.477 416.245 295.316 416.245Z" fill="#222222"/>
<path d="M353.58 317.894L354.351 327.569L355.018 337.249C355.227 340.476 355.614 343.696 355.582 346.932C355.605 350.183 355.414 353.432 355.01 356.657C355.007 356.682 354.995 356.704 354.977 356.721C354.958 356.737 354.935 356.747 354.91 356.748C354.886 356.749 354.861 356.741 354.842 356.726C354.822 356.71 354.809 356.689 354.804 356.665C354.163 353.478 353.733 350.252 353.517 347.008C353.246 343.784 353.396 340.543 353.366 337.31L353.318 327.608L353.374 317.901C353.374 317.875 353.384 317.849 353.403 317.83C353.422 317.811 353.447 317.8 353.473 317.799C353.5 317.798 353.526 317.807 353.546 317.825C353.566 317.842 353.578 317.867 353.58 317.894Z" fill="#222222"/>
<path d="M430.556 295.736L431.133 316.58L431.606 337.425C431.772 344.373 432.057 351.32 431.976 358.27C431.929 361.745 431.882 365.22 431.745 368.696L431.537 373.91C431.427 375.648 431.355 377.386 431.21 379.125C431.208 379.15 431.196 379.174 431.177 379.192C431.158 379.21 431.133 379.22 431.107 379.22C431.081 379.22 431.056 379.211 431.037 379.193C431.018 379.176 431.006 379.152 431.003 379.126C430.831 377.39 430.732 375.654 430.594 373.917L430.305 368.707C430.114 365.234 430.012 361.76 429.91 358.286C429.72 351.338 429.896 344.388 429.953 337.438L430.1 316.588L430.35 295.738C430.35 295.711 430.361 295.685 430.38 295.666C430.399 295.646 430.425 295.636 430.452 295.635C430.479 295.635 430.505 295.646 430.525 295.664C430.544 295.683 430.556 295.709 430.556 295.736V295.736Z" fill="#222222"/>
<path d="M354.908 356.778C359.746 356.778 363.669 356.038 363.669 355.125C363.669 354.212 359.746 353.472 354.908 353.472C350.069 353.472 346.146 354.212 346.146 355.125C346.146 356.038 350.069 356.778 354.908 356.778Z" fill="#222222"/>
<path d="M430.775 379.463C435.613 379.463 439.536 378.723 439.536 377.81C439.536 376.897 435.613 376.157 430.775 376.157C425.936 376.157 422.014 376.897 422.014 377.81C422.014 378.723 425.936 379.463 430.775 379.463Z" fill="#222222"/>
<path d="M338.955 238.572H334.163C334.072 238.571 333.985 238.535 333.921 238.47C333.856 238.405 333.82 238.318 333.82 238.227C333.82 238.136 333.856 238.048 333.921 237.984C333.985 237.919 334.072 237.883 334.163 237.882H338.955C339.046 237.883 339.133 237.919 339.197 237.984C339.261 238.048 339.298 238.136 339.298 238.227C339.298 238.318 339.261 238.405 339.197 238.47C339.133 238.535 339.046 238.571 338.955 238.572Z" fill="#222222"/>
</svg>
