<svg width="24" height="24" viewBox="0 0 24 24" fill="none" xmlns="http://www.w3.org/2000/svg">
<path fill-rule="evenodd" clip-rule="evenodd" d="M11.6692 12.3285C10.3318 12.3228 9.05087 11.7807 8.10522 10.8201C7.15957 9.85953 6.62585 8.55832 6.62031 7.19986C6.62381 5.83415 7.15467 4.52434 8.09878 3.55199C9.0429 2.57965 10.3249 2.02239 11.6692 2.00001C12.3384 1.99898 13.0012 2.1333 13.6188 2.39515C14.2364 2.65699 14.7965 3.04111 15.2664 3.52511C15.7364 4.00911 16.1068 4.58331 16.356 5.21421C16.6052 5.84513 16.7283 6.52012 16.7181 7.19986C16.7265 7.87574 16.6017 8.54651 16.351 9.17262C16.1003 9.79876 15.7287 10.3676 15.2582 10.8455C14.7876 11.3235 14.2277 11.7009 13.6113 11.9556C12.9949 12.2103 12.3346 12.3371 11.6692 12.3285ZM11.6692 5.06293C11.3869 5.06277 11.1075 5.12031 10.8476 5.23213C10.5877 5.34395 10.3526 5.50774 10.1563 5.7138C9.96 5.91983 9.80655 6.16388 9.70503 6.43143C9.60354 6.69897 9.55608 6.98453 9.56549 7.27108C9.56132 7.54961 9.61344 7.82602 9.7186 8.08328C9.82377 8.34054 9.97974 8.57314 10.1769 8.76676C10.3741 8.96035 10.6082 9.11082 10.8649 9.20887C11.1216 9.3069 11.3953 9.35045 11.6692 9.33677C11.9414 9.3434 12.2121 9.295 12.4657 9.19443C12.7193 9.09384 12.9506 8.94308 13.1464 8.75088C13.3421 8.55868 13.4983 8.32889 13.6059 8.07486C13.7134 7.82081 13.7702 7.54761 13.7729 7.27108C13.7823 6.98453 13.7348 6.69897 13.6333 6.43143C13.5318 6.16388 13.3784 5.91983 13.1821 5.7138C12.9858 5.50774 12.7507 5.34395 12.4908 5.23213C12.2309 5.12031 11.9515 5.06277 11.6692 5.06293ZM13.7028 16.6023L16.5778 19.4515C16.7114 19.5871 16.8174 19.7482 16.8897 19.9254C16.962 20.1026 16.9992 20.2926 16.9992 20.4844C16.9992 20.6762 16.962 20.8662 16.8897 21.0434C16.8174 21.2206 16.7114 21.3816 16.5778 21.5172C16.4534 21.6684 16.2979 21.7899 16.1222 21.8733C15.9465 21.9568 15.755 22 15.561 22C15.3671 22 15.1755 21.9568 14.9998 21.8733C14.8242 21.7899 14.6686 21.6684 14.5442 21.5172L11.6692 18.668L8.86427 21.5172C8.72784 21.6589 8.56382 21.77 8.3827 21.8436C8.20159 21.9172 8.00736 21.9516 7.81241 21.9446C7.42371 21.9299 7.05202 21.7789 6.76056 21.5172C6.62699 21.3816 6.52102 21.2206 6.44872 21.0434C6.37643 20.8662 6.33921 20.6762 6.33921 20.4844C6.33921 20.2926 6.37643 20.1026 6.44872 19.9254C6.52102 19.7482 6.62699 19.5871 6.76056 19.4515L9.70574 16.6023C8.65352 16.2684 7.64196 15.8144 6.69044 15.2489C6.36548 15.0325 6.13386 14.6984 6.04268 14.3147C5.9515 13.931 6.0076 13.5264 6.19958 13.1832C6.30658 13.0108 6.44701 12.8623 6.61231 12.7467C6.77761 12.6311 6.96433 12.5508 7.16112 12.5109C7.3579 12.4709 7.56064 12.472 7.75699 12.5141C7.95334 12.5562 8.1392 12.6385 8.30328 12.7558C9.32966 13.3847 10.5056 13.7171 11.7043 13.7171C12.9029 13.7171 14.0788 13.3847 15.1052 12.7558C15.2693 12.6385 15.4552 12.5562 15.6515 12.5141C15.8479 12.472 16.0506 12.4709 16.2474 12.5109C16.4442 12.5508 16.6309 12.6311 16.7962 12.7467C16.9615 12.8623 17.1019 13.0108 17.2089 13.1832C17.4077 13.5181 17.4749 13.9169 17.3969 14.2998C17.3189 14.6827 17.1015 15.0217 16.7882 15.2489C15.8122 15.8147 14.7774 16.2686 13.7028 16.6023Z" fill="#222222"/>
</svg>
