<svg width="18" height="18" viewBox="0 0 18 18" fill="none" xmlns="http://www.w3.org/2000/svg" xmlns:xlink="http://www.w3.org/1999/xlink">
	<path id="Vector" d="M18 9C18 10.18 17.76 11.35 17.31 12.44C16.86 13.53 16.19 14.52 15.36 15.36C14.52 16.19 13.53 16.86 12.44 17.31C11.35 17.76 10.18 18 9 18C7.81 18 6.64 17.76 5.55 17.31C4.46 16.86 3.47 16.19 2.63 15.36C1.8 14.52 1.13 13.53 0.68 12.44C0.23 11.35 0 10.18 0 9C0 6.61 0.94 4.32 2.63 2.63C4.32 0.94 6.61 0 9 0C11.38 0 13.67 0.94 15.36 2.63C17.05 4.32 18 6.61 18 9Z" fill="#61AEF2" fill-opacity="1.000000" fill-rule="evenodd"/>
	<path id="Vector" d="M5.22 6C5.77 4.83 7.25 4 9 4C11.21 4 13 5.34 13 7C13 8.39 11.72 9.57 9.99 9.9C9.45 10.01 9 10.44 9 11M9 14L9.01 14M17.31 12.44C16.86 13.53 16.19 14.52 15.36 15.36C14.52 16.19 13.53 16.86 12.44 17.31C11.35 17.76 10.18 18 9 18C7.81 18 6.64 17.76 5.55 17.31C4.46 16.86 3.47 16.19 2.63 15.36C1.8 14.52 1.13 13.53 0.68 12.44C0.23 11.35 0 10.18 0 9C0 6.61 0.94 4.32 2.63 2.63C4.32 0.94 6.61 0 9 0C11.38 0 13.67 0.94 15.36 2.63C17.05 4.32 18 6.61 18 9C18 10.18 17.76 11.35 17.31 12.44Z" stroke="#FFFFFF" stroke-opacity="1.000000" stroke-width="1.500000" stroke-linejoin="round"/>
</svg>
