<svg width="332" height="278" viewBox="0 0 332 279" fill="none" xmlns="http://www.w3.org/2000/svg">
<g clip-path="url(#clip0_187_9428)">
<path d="M128.167 207.234L126.818 179.585C126.399 177.138 126.024 174.691 125.627 172.245L124.505 164.895C123.759 159.992 123.069 155.085 122.375 150.173C121.699 145.261 121.026 140.349 120.402 135.432L119.468 128.05C119.198 125.701 118.905 123.357 118.652 121.008C118.429 120.938 118.211 120.868 117.993 120.789L117.984 120.864L117.927 121.552C117.888 122.008 117.875 122.468 117.858 122.929C117.81 123.845 117.797 124.766 117.77 125.687C117.74 127.525 117.727 129.367 117.722 131.209C117.7 134.888 117.705 138.571 117.735 142.256C117.775 149.62 117.81 156.983 117.888 164.346L118.032 186.446L118.085 197.493V208.541C126.325 207.755 128.167 207.234 128.167 207.234ZM142.461 129.744C141.908 128.932 141.466 128.041 141.148 127.097C140.807 126.167 140.515 125.218 140.249 124.259C139.716 122.348 139.293 120.408 138.909 118.464C138.533 116.51 138.197 114.556 137.927 112.589C137.643 110.621 137.423 108.646 137.267 106.663C137.267 106.663 134.029 104.63 133.13 103.672C132.497 102.997 131.34 102.923 130.707 102.941C130.519 102.952 130.33 102.92 130.155 102.846C129.979 102.772 129.821 102.658 129.69 102.513C129.613 102.444 129.554 102.356 129.517 102.256C129.48 102.156 129.467 102.048 129.48 101.942C129.493 101.835 129.53 101.734 129.589 101.647C129.648 101.56 129.726 101.49 129.817 101.443C130.06 101.261 130.354 101.174 130.651 101.197C131.423 101.244 133.134 101.402 133.942 101.964C133.667 101.728 133.377 101.514 133.073 101.323C123.776 98.8712 108.495 100.699 108.495 100.699C108.495 100.699 108.22 102.844 107.806 106.765C108.225 105.941 108.69 105.144 109.198 104.379C109.447 104.002 109.696 103.625 109.953 103.253C110.214 102.867 110.494 102.496 110.791 102.141C110.732 102.624 110.605 103.094 110.416 103.537C110.237 103.978 110.018 104.398 109.761 104.793C109.505 105.187 109.214 105.555 108.893 105.89C108.572 106.237 108.206 106.531 107.806 106.765C106.239 121.445 102.633 161.03 103.703 205.922C108.202 208.112 113.159 209.015 118.085 208.541C117.949 204.861 117.862 201.177 117.753 197.498L117.513 186.451C117.364 179.087 117.29 171.719 117.207 164.356C117.177 156.988 117.142 149.62 117.207 142.252C117.247 138.568 117.299 134.888 117.391 131.204C117.443 129.362 117.51 127.52 117.591 125.678C117.644 124.762 117.679 123.841 117.753 122.92C117.788 122.459 117.818 122.003 117.879 121.543L117.958 120.859L117.971 120.78C117.775 120.71 117.578 120.64 117.382 120.566C116.797 120.329 116.216 120.082 115.649 119.794C115.074 119.514 114.518 119.191 113.986 118.826C114.611 118.928 115.23 119.074 115.837 119.264C116.439 119.445 117.028 119.664 117.618 119.882C118.198 120.12 118.779 120.361 119.35 120.636C119.922 120.906 120.481 121.203 121.039 121.534C120.407 121.482 119.781 121.36 119.171 121.171C119.001 121.124 118.835 121.068 118.669 121.017C119.062 123.338 119.42 125.669 119.8 127.995L120.922 135.344C121.668 140.247 122.358 145.154 123.052 150.066C123.724 154.978 124.4 159.89 125.024 164.812L125.954 172.194C126.242 174.654 126.552 177.115 126.818 179.585L131.122 206.969C131.122 206.969 145.015 210.248 154.237 207.099C154.237 207.099 146.32 160.23 142.461 129.744ZM117.565 109.146C117.513 110.212 117.452 111.272 117.347 112.333C117.251 113.393 117.129 114.454 116.941 115.505C116.845 114.435 116.819 113.37 116.814 112.305C116.81 111.24 116.845 110.174 116.884 109.114C116.941 108.049 117.002 106.988 117.102 105.927C117.203 104.867 117.325 103.811 117.513 102.755C117.604 103.825 117.631 104.89 117.635 105.955C117.639 107.021 117.609 108.086 117.565 109.146ZM117.513 102.164C117.38 102.159 117.254 102.099 117.162 101.997C117.07 101.896 117.018 101.759 117.018 101.618C117.018 101.476 117.07 101.34 117.162 101.238C117.254 101.136 117.38 101.077 117.513 101.071C117.646 101.077 117.771 101.136 117.863 101.238C117.956 101.34 118.007 101.476 118.007 101.618C118.007 101.759 117.956 101.896 117.863 101.997C117.771 102.099 117.646 102.159 117.513 102.164ZM135.578 110.84C135.1 110.742 134.628 110.615 134.164 110.458C133.225 110.125 132.348 109.62 131.572 108.965C130.807 108.282 130.187 107.433 129.751 106.477C129.309 105.541 129.103 104.499 129.153 103.453C129.364 104.428 129.724 105.36 130.218 106.211C130.703 107.039 131.307 107.78 132.008 108.407C132.363 108.714 132.74 108.992 133.134 109.24C133.526 109.498 133.935 109.728 134.356 109.928C134.566 110.038 134.782 110.134 135.002 110.216L135.661 110.491C136.111 110.644 136.565 110.784 137.023 110.965C136.543 110.942 136.063 110.9 135.578 110.84ZM140.401 107.76C140.393 107.049 140.406 106.435 140.445 105.923L139.764 106.393C138.983 106.776 138.105 106.871 137.267 106.663C137.682 108.602 138.075 110.543 138.446 112.486L139.576 118.315C139.947 120.254 140.343 122.188 140.764 124.115C140.982 125.073 141.204 126.036 141.462 126.985C141.692 127.943 142.028 128.869 142.461 129.744C141.244 120.12 140.432 112.128 140.401 107.76H140.401Z" fill="#222222"/>
<path d="M139.139 99.8853C139.088 98.4096 138.505 97.0117 137.511 95.9826C135.879 95.0057 136.996 97.7873 137.058 97.9455C137.036 97.9222 136.944 97.8199 136.791 97.6758C136.695 97.1687 136.608 96.6337 136.525 96.0849L136.512 96.0012C136.276 94.4197 136.075 92.6892 135.914 90.8798C135.915 90.8626 135.913 90.8454 135.91 90.8286C135.764 87.3944 136.139 83.9575 137.023 80.6511C137.669 77.9904 139.113 77.9019 139.113 77.9019L147.843 88.2516L139.48 98.7362C139.259 99.0733 139.14 99.4742 139.139 99.8853Z" fill="#D1EFC9"/>
<path d="M241.289 154.68C241.289 154.68 234.406 173.947 221.617 171.328C220.317 171.068 218.992 170.979 217.671 171.063C215.074 169.528 212.508 167.951 209.937 166.384C207.371 164.802 204.826 163.197 202.321 161.518C199.802 159.862 197.336 158.123 194.953 156.271C194.355 155.806 193.748 155.355 193.181 154.853C192.609 154.36 192.011 153.894 191.457 153.378L189.79 151.815C189.283 151.248 188.765 150.683 188.236 150.122C189.964 152.718 192.221 154.862 194.538 156.848C195.119 157.346 195.699 157.848 196.31 158.304L198.122 159.7C199.357 160.588 200.592 161.472 201.858 162.309C204.39 163.979 206.969 165.56 209.61 167.016C212.246 168.486 214.926 169.849 217.671 171.063C205.878 171.766 193.434 184.753 192.107 187.576C190.632 190.721 161.367 157.178 154.662 136.032C152.676 129.771 147.478 118.877 140.49 107.919C140.457 107.868 140.428 107.816 140.403 107.76C140.254 107.481 140.023 106.974 139.766 106.393L140.446 105.923C140.865 105.561 141.203 105.105 141.437 104.588C141.664 104.862 141.817 105.025 141.817 105.025C141.817 105.025 153.868 95.5919 156.574 92.1823C159.28 88.7773 156.574 85.3677 156.574 85.3677C156.574 85.3677 148.582 72.134 144.523 67.8127C143.218 66.5071 141.611 65.5952 139.866 65.1707C149.154 67.0964 171.013 75.1762 194.076 109.132C224.568 154.034 241.289 154.68 241.289 154.68Z" fill="#D1EFC9"/>
<path d="M100.5 235.036C100.814 235.022 101.129 235.013 101.439 234.985C97.4143 235.422 92.4909 234.841 91.0156 229.924C91.3573 229.291 91.8091 228.734 92.3468 228.282C92.4512 228.178 92.5749 228.099 92.7098 228.05C92.8447 228.001 92.9879 227.983 93.1299 227.996C93.272 228.01 93.4097 228.055 93.5343 228.129C93.6588 228.203 93.7673 228.304 93.8527 228.426C94.2636 228.979 94.6041 229.588 94.8652 230.236C95.1751 230.896 95.4895 231.571 95.8517 232.241C96.2276 232.939 96.7237 233.556 97.3139 234.059C97.9321 234.538 98.6547 234.84 99.4132 234.938C99.7732 234.996 100.136 235.029 100.5 235.036Z" fill="#222222"/>
<path d="M123.037 221.882C122.644 221.333 122.29 220.346 122.207 218.57C121.998 214.137 118.969 216.621 118.969 216.621C113.814 219.528 112.4 215.025 112.016 214.313C111.632 213.606 108.415 213.206 107.136 215.327C106.671 216.008 106.096 216.594 105.438 217.058C106.018 217.133 106.584 217.299 107.118 217.551C107.656 217.79 108.167 218.093 108.642 218.453C109.131 218.815 109.562 219.259 109.916 219.77C110.314 220.27 110.517 220.914 110.484 221.57C110.206 221.065 109.844 220.618 109.414 220.253C109.008 219.886 108.576 219.542 108.131 219.207L106.787 218.183C106.333 217.835 105.883 217.476 105.438 217.062C104.448 217.798 103.408 218.454 102.326 219.025C102.898 219.022 103.464 219.144 103.989 219.384C104.519 219.614 105.013 219.931 105.451 220.323C105.898 220.714 106.272 221.191 106.555 221.728C106.848 222.257 107.02 222.851 107.057 223.463C106.673 223.002 106.377 222.551 106.001 222.156C105.653 221.757 105.281 221.383 104.888 221.035C104.107 220.323 103.251 219.719 102.326 219.025C101.505 219.467 100.916 219.742 100.916 219.742C100.248 219.965 99.6243 220.198 99.0438 220.43C99.6182 220.575 100.168 220.815 100.672 221.142C101.184 221.458 101.656 221.843 102.077 222.286C102.513 222.733 102.874 223.257 103.142 223.835C103.427 224.413 103.535 225.072 103.452 225.719C103.209 225.186 102.911 224.683 102.562 224.221C102.221 223.772 101.853 223.346 101.462 222.947C100.698 222.114 99.8513 221.356 99.0394 220.43C89.6946 224.175 90.7465 228.812 90.7465 228.812C90.8121 229.188 90.8995 229.56 91.0083 229.924C91.2054 229.179 91.5694 228.496 92.069 227.933C92.3571 227.612 92.7482 227.417 93.1645 227.389C93.5951 227.4 94.0062 227.583 94.3167 227.901C94.6023 228.173 94.848 228.49 95.0456 228.84C95.2465 229.175 95.4123 229.496 95.5912 229.826C95.9318 230.487 96.2459 231.147 96.5995 231.761C96.91 232.37 97.3227 232.912 97.8173 233.361C97.9438 233.455 98.0617 233.566 98.197 233.655L98.616 233.896C98.9176 234.031 99.2284 234.142 99.5457 234.227C100.898 234.507 102.276 234.624 103.653 234.576C105.69 234.003 107.611 233.038 109.323 231.729C113.762 228.412 118.72 228.589 122.046 226.696C122.116 226.654 122.185 226.612 122.255 226.575C122.622 226.345 122.937 226.034 123.18 225.662C123.423 225.29 123.587 224.866 123.661 224.42C123.735 223.974 123.718 223.516 123.61 223.078C123.502 222.64 123.307 222.231 123.037 221.882ZM116.804 222.463C116.267 222.9 115.713 223.314 115.141 223.696C114.569 224.077 113.98 224.431 113.377 224.751C112.769 225.087 112.136 225.367 111.483 225.589C111.956 225.061 112.468 224.576 113.015 224.138C113.552 223.7 114.106 223.286 114.678 222.905C115.246 222.523 115.835 222.175 116.442 221.849C117.049 221.512 117.683 221.232 118.336 221.012C117.864 221.541 117.352 222.026 116.804 222.463Z" fill="#222222"/>
<path d="M101.438 234.985C101.542 234.976 101.647 234.962 101.752 234.952C101.691 234.957 101.634 234.966 101.573 234.976C101.529 234.98 101.481 234.985 101.438 234.985Z" fill="white"/>
<path d="M102.795 234.78C102.743 234.794 102.686 234.803 102.63 234.818C102.516 234.841 102.403 234.859 102.289 234.873C102.459 234.845 102.63 234.818 102.795 234.78Z" fill="white"/>
<path d="M112.02 214.316C112.057 213.356 112.124 212.418 112.146 211.478C112.183 210.537 112.14 209.594 112.02 208.66C112.381 209.551 112.541 210.519 112.487 211.488C112.466 212.45 112.309 213.404 112.02 214.316Z" fill="#222222"/>
<path d="M121.232 216.07C121.072 215.411 120.958 214.744 120.854 214.075C120.747 213.406 120.671 212.733 120.604 212.059C120.546 211.383 120.493 210.707 120.482 210.027C120.46 209.348 120.477 208.668 120.534 207.99L120.744 210.009L120.944 212.023C121.002 212.695 121.069 213.366 121.114 214.041C121.163 214.715 121.212 215.39 121.232 216.07Z" fill="#222222"/>
<path d="M116.689 48.0757C116.664 49.1538 116.543 50.2269 116.328 51.2806C116.205 51.7896 116.126 52.3096 116.093 52.834C116.063 53.3655 116.065 53.8986 116.101 54.4297C115.933 53.9146 115.841 53.375 115.827 52.8298C115.812 52.282 115.868 51.7345 115.995 51.2033C116.209 50.1626 116.407 49.1142 116.689 48.0757Z" fill="#222222"/>
<path d="M115.774 51.4633C115.774 51.4633 118.297 50.6686 119.288 52.3527C119.288 52.3527 120.399 52.1165 120.92 52.6874C121.465 52.2767 122.119 52.0622 122.787 52.0753C123.454 52.0884 124.1 52.3284 124.631 52.7602C124.631 52.7602 124.79 55.58 122.695 55.6792C122.695 55.6792 120.561 55.2282 120.878 53.1348C120.878 53.1348 120.498 52.3525 119.247 52.7993C119.247 52.7993 118.343 55.3448 116.819 54.5062C115.296 53.6675 115.774 51.4633 115.774 51.4633Z" fill="#222222"/>
<path d="M119.067 66.4641C119.874 66.5488 120.675 66.683 121.468 66.866C122.288 67.034 123.098 67.2603 123.89 67.5432L124.323 67.7081L124.011 68.0034C123.467 68.5171 122.896 69.0024 122.385 69.5499C121.874 70.0984 121.388 70.6742 120.932 71.275L120.845 71.3858L120.695 71.31C120.273 71.0973 119.85 70.8873 119.437 70.6578L118.204 69.9585C117.793 69.7261 117.384 69.49 116.983 69.2398C116.58 68.992 116.184 68.7303 115.789 68.4677L115.25 68.1089L115.807 67.8425C116.871 67.3237 117.959 66.8636 119.067 66.4641ZM119.074 66.5365C118.059 67.2712 117.087 67.8947 116.105 68.4776L116.122 67.8524C116.533 68.0849 116.944 68.3182 117.347 68.5654C117.752 68.8102 118.149 69.0691 118.543 69.3318L119.729 70.1175C120.122 70.383 120.505 70.668 120.889 70.9503L120.653 70.9853C121.204 70.4826 121.731 69.9504 122.232 69.3909C122.732 68.832 123.172 68.2108 123.639 67.618L123.76 68.0781C122.97 67.9248 122.19 67.7133 121.428 67.4449C120.654 67.1856 119.879 66.9016 119.074 66.5365Z" fill="#222222"/>
<path d="M123.826 67.8107L120.793 71.13L123.066 73.8382L127.992 69.8739L123.826 67.8107Z" fill="#222222"/>
<path d="M117.707 58.7097C118.03 59.2984 118.298 59.919 118.509 60.5628C118.727 61.2049 118.899 61.8639 119.023 62.534C119.152 63.2039 119.226 63.8843 119.246 64.5677C119.273 65.2495 119.233 65.9324 119.128 66.6055C119.097 66.2647 119.11 65.9283 119.07 65.5921C119.053 65.256 119.027 64.9215 118.984 64.5886C118.908 63.9232 118.818 63.2605 118.688 62.6051C118.57 61.9476 118.42 61.2963 118.259 60.6466C118.095 59.9975 117.909 59.3545 117.707 58.7097Z" fill="#222222"/>
<path d="M126.112 58.8371C126.147 59.3995 126.208 59.9532 126.279 60.5009C126.347 61.0455 126.455 61.5837 126.601 62.1106C126.735 62.634 126.939 63.134 127.208 63.5948C127.488 64.056 127.858 64.4471 128.294 64.7411C127.777 64.5604 127.323 64.2185 126.991 63.7598C126.662 63.2979 126.418 62.7732 126.274 62.214C126.123 61.6654 126.036 61.0993 126.015 60.5281C125.985 59.9623 126.017 59.3947 126.112 58.8371Z" fill="#222222"/>
<path d="M115.966 68.1949C115.162 68.5205 114.364 68.8524 113.592 69.2447C112.814 69.617 112.054 70.0318 111.316 70.4873C109.834 71.3694 108.45 72.4275 107.191 73.6414C104.638 76.0723 102.384 78.8386 100.484 81.8739C100.015 82.6353 99.59 83.426 99.2103 84.2419C99.1203 84.4387 99.0462 84.6432 98.9887 84.8534C98.9393 85.0684 98.9035 85.2868 98.8815 85.5069C98.8365 85.9452 98.8479 86.3879 98.9153 86.8228C98.9489 87.0387 98.9957 87.252 99.0554 87.4614C99.0854 87.5681 99.1174 87.6649 99.1523 87.7642L99.2877 88.0764L99.8137 89.3314C100.168 90.1666 100.498 91.0112 100.841 91.851C102.216 95.2074 103.448 98.6219 104.583 102.083L104.45 101.988C104.778 102.014 105.103 102.065 105.424 102.139L106.368 102.351L107.308 102.563C107.619 102.637 107.934 102.688 108.251 102.717V102.79C107.928 102.784 107.605 102.754 107.286 102.702L106.333 102.544L105.385 102.387C105.076 102.334 104.764 102.303 104.45 102.295L104.36 102.295L104.317 102.2C102.837 98.8875 101.452 95.5281 100.211 92.1104C99.8991 91.2565 99.5754 90.4077 99.2756 89.5493L98.8203 88.2641L98.7106 87.9413C98.6765 87.8238 98.6437 87.7022 98.6185 87.5876C98.4604 86.8902 98.4341 86.1663 98.5411 85.458C98.5757 85.2241 98.6252 84.993 98.6891 84.7663C98.7616 84.5398 98.8527 84.3205 98.9611 84.111C99.3721 83.2927 99.8267 82.514 100.304 81.7485C101.261 80.2224 102.246 78.7165 103.298 77.256C104.339 75.7788 105.505 74.4063 106.781 73.1557C107.429 72.5335 108.116 71.9585 108.837 71.4345C109.561 70.9216 110.313 70.4556 111.089 70.0391C111.864 69.6244 112.657 69.2523 113.468 68.9244C114.279 68.6072 115.106 68.3403 115.946 68.1252L115.966 68.1949Z" fill="#222222"/>
<path d="M113.2 72.4042C112.885 74.781 112.51 77.1443 112.114 79.5031C111.712 81.8604 111.304 84.2158 110.797 86.5515C110.308 88.8908 109.812 91.2305 109.475 93.5993C109.29 94.7806 109.136 95.9675 109.004 97.1556C108.938 97.7494 108.878 98.3441 108.831 98.9373C108.773 99.5136 108.752 100.093 108.767 100.673L108.487 100.409C110.543 100.309 112.597 100.257 114.653 100.204C116.709 100.148 118.765 100.137 120.822 100.161C122.879 100.185 124.936 100.252 126.993 100.364C128.021 100.431 129.048 100.508 130.074 100.619C130.587 100.677 131.099 100.749 131.61 100.84C132.129 100.902 132.635 101.058 133.105 101.302L133.067 101.362C132.837 101.253 132.593 101.182 132.343 101.152C132.091 101.109 131.838 101.077 131.583 101.054C131.075 101.004 130.563 100.982 130.051 100.959C129.028 100.911 128.002 100.896 126.977 100.892C124.926 100.864 122.873 100.89 120.821 100.906L108.502 100.991L108.229 100.993L108.223 100.728C108.222 100.109 108.272 99.4904 108.373 98.8805C108.455 98.2834 108.553 97.6917 108.649 97.0998L109.251 93.5586C109.67 91.2031 109.989 88.829 110.331 86.458C110.656 84.0837 111.102 81.7337 111.568 79.3885C112.043 77.0451 112.549 74.7085 113.133 72.3896L113.2 72.4042Z" fill="#222222"/>
<path d="M106.676 118.808C106.127 118.359 105.675 117.79 105.349 117.139C105.182 116.816 105.031 116.484 104.897 116.144L104.7 115.632L104.543 115.106C104.147 113.7 103.919 112.246 103.865 110.779C103.836 110.05 103.85 109.321 103.861 108.594C103.922 107.87 103.941 107.143 104.04 106.425C104.138 105.708 104.232 104.99 104.369 104.282C104.523 103.576 104.674 102.871 104.863 102.176C104.865 102.904 104.828 103.621 104.794 104.337L104.719 106.48L104.687 108.613C104.702 109.321 104.694 110.031 104.736 110.735L104.79 111.792C104.808 112.144 104.865 112.49 104.891 112.841C104.914 113.194 104.967 113.54 105.022 113.886C105.071 114.233 105.123 114.58 105.199 114.921C105.416 116.317 105.92 117.644 106.676 118.808Z" fill="#222222"/>
<path d="M106.969 114.222C106.547 114.21 106.145 114.029 105.843 113.715C105.56 113.417 105.361 113.039 105.27 112.626C105.13 111.849 105.107 111.053 105.203 110.269L105.473 105.639L105.435 110.276C105.381 111.03 105.434 111.788 105.594 112.525C105.683 112.866 105.86 113.173 106.105 113.412C106.337 113.632 106.636 113.754 106.947 113.757L106.969 114.222Z" fill="#222222"/>
<path d="M132.108 236.715C131.745 236.751 131.38 236.759 131.016 236.739C130.252 236.724 129.504 236.501 128.843 236.092C128.209 235.656 127.658 235.095 127.219 234.441C126.791 233.813 126.416 233.175 126.041 232.552C125.721 231.934 125.325 231.364 124.862 230.859C124.664 230.651 124.402 230.527 124.124 230.51C123.833 230.526 123.557 230.657 123.352 230.878C122.862 231.389 122.465 231.993 122.182 232.659C124.12 237.371 129.039 237.432 132.989 236.576C132.701 236.627 132.404 236.669 132.108 236.715ZM153.276 221.198C152.836 220.691 152.39 219.746 152.137 217.993C151.504 213.606 148.728 216.397 148.728 216.397C143.879 219.849 142.042 215.523 141.592 214.858C141.147 214.192 137.904 214.146 136.835 216.393C136.437 217.117 135.923 217.761 135.316 218.295C135.897 218.308 136.474 218.413 137.027 218.607C137.584 218.787 138.121 219.032 138.628 219.337C139.15 219.645 139.622 220.041 140.025 220.509C140.467 220.966 140.73 221.584 140.763 222.24C140.436 221.77 140.032 221.366 139.571 221.049C139.13 220.728 138.672 220.43 138.196 220.147L136.76 219.272C136.276 218.974 135.796 218.667 135.311 218.3C134.397 219.137 133.427 219.902 132.409 220.588C132.974 220.526 133.546 220.586 134.089 220.765C134.639 220.939 135.16 221.203 135.634 221.547C136.115 221.889 136.533 222.321 136.869 222.821C137.209 223.317 137.435 223.89 137.528 224.496C137.105 224.077 136.765 223.658 136.354 223.309C135.97 222.95 135.565 222.618 135.141 222.314C134.294 221.691 133.391 221.179 132.404 220.593C131.627 221.123 131.069 221.458 131.069 221.458C130.427 221.756 129.825 222.049 129.266 222.347C129.853 222.428 130.425 222.607 130.96 222.877C131.498 223.137 132.004 223.468 132.465 223.863C132.943 224.26 133.351 224.743 133.67 225.291C134.01 225.834 134.181 226.476 134.159 227.128C133.867 226.623 133.521 226.155 133.129 225.733C132.747 225.325 132.342 224.943 131.916 224.589C131.073 223.844 130.161 223.179 129.266 222.347C120.327 227.077 121.816 231.58 121.816 231.58C121.915 231.948 122.037 232.309 122.182 232.659C122.307 231.896 122.604 231.176 123.046 230.561C123.301 230.21 123.67 229.975 124.081 229.901C124.512 229.867 124.939 230.005 125.281 230.287C125.589 230.529 125.863 230.817 126.093 231.143C126.324 231.454 126.516 231.757 126.726 232.064C127.132 232.682 127.507 233.31 127.917 233.882C128.283 234.454 128.745 234.95 129.279 235.343C129.414 235.422 129.545 235.52 129.685 235.594L130.126 235.79C130.44 235.888 130.759 235.964 131.082 236.017C132.457 236.148 133.842 236.113 135.211 235.915C137.179 235.124 138.995 233.958 140.571 232.473C144.674 228.696 149.623 228.333 152.748 226.091C152.818 226.045 152.884 225.993 152.945 225.947C153.288 225.68 153.573 225.337 153.779 224.941C153.986 224.545 154.109 224.106 154.141 223.654C154.172 223.202 154.111 222.749 153.962 222.325C153.813 221.9 153.579 221.516 153.276 221.198ZM147.131 222.449C146.638 222.942 146.126 223.41 145.594 223.854C145.062 224.296 144.512 224.705 143.94 225.096C143.368 225.494 142.765 225.841 142.138 226.133C142.557 225.558 143.02 225.019 143.521 224.523C144.015 224.03 144.527 223.562 145.058 223.119C145.59 222.677 146.142 222.263 146.712 221.877C147.285 221.474 147.889 221.125 148.519 220.835C148.099 221.413 147.635 221.953 147.131 222.449Z" fill="#222222"/>
<path d="M133.368 236.492C133.302 236.506 133.232 236.525 133.167 236.543C133.119 236.553 133.075 236.562 133.027 236.566C133.141 236.543 133.254 236.52 133.368 236.492Z" fill="white"/>
<path d="M132.409 220.588L132.406 220.593C132.406 220.593 132.406 220.592 132.406 220.591C132.405 220.591 132.405 220.59 132.405 220.59C132.405 220.589 132.404 220.589 132.404 220.589C132.403 220.588 132.403 220.588 132.402 220.588H132.409Z" fill="white"/>
<path d="M135.316 218.295L135.312 218.3C135.312 218.299 135.312 218.299 135.312 218.298C135.312 218.297 135.311 218.297 135.311 218.296C135.311 218.296 135.31 218.296 135.31 218.295C135.31 218.295 135.309 218.295 135.309 218.295H135.316Z" fill="white"/>
<path d="M140.762 216.07L140.967 214.177C141.031 213.548 141.1 212.921 141.149 212.293C141.209 211.666 141.234 211.039 141.245 210.412C141.267 209.782 141.204 209.153 141.057 208.542C141.331 209.12 141.485 209.754 141.507 210.401C141.553 211.042 141.547 211.685 141.489 212.325C141.436 212.962 141.348 213.595 141.226 214.221C141.11 214.848 140.955 215.466 140.762 216.07Z" fill="#222222"/>
<path d="M150.927 217.056C150.719 216.333 150.554 215.601 150.397 214.866C150.237 214.132 150.106 213.392 149.981 212.651C149.863 211.909 149.75 211.165 149.674 210.415C149.586 209.666 149.534 208.912 149.52 208.157C149.667 208.897 149.8 209.634 149.934 210.372C150.071 211.109 150.192 211.849 150.317 212.589C150.433 213.33 150.555 214.07 150.654 214.815C150.757 215.559 150.858 216.304 150.927 217.056Z" fill="#222222"/>
<path d="M115.745 48.2065C115.745 48.2065 116.619 49.2016 117.349 46.5731C117.349 46.5731 117.775 45.4103 119.093 46.3559C119.093 46.3559 120.032 46.9714 120.487 45.9889C120.592 45.8626 120.719 45.7606 120.863 45.6893C121.006 45.618 121.161 45.579 121.319 45.5746C121.477 45.5703 121.634 45.6007 121.78 45.664C121.926 45.7272 122.059 45.822 122.169 45.9424C122.169 45.9424 122.472 46.2645 123.169 45.9199C123.866 45.5753 125.002 44.7458 125.474 45.3598C125.945 45.9738 125.293 46.3231 125.847 47.0264C126.4 47.7297 127.053 47.5414 126.872 48.3436C126.691 49.1459 127.278 49.6593 127.189 50.4393C127.101 51.2192 126.829 55.7328 126.246 56.1539C125.655 56.6917 125.13 57.3069 124.684 57.9851C124.441 58.3136 122.726 58.5499 122.244 57.8865C121.896 57.4467 121.467 57.0884 120.983 56.8341C120.983 56.8341 120.001 56.0208 119.273 56.5233C119.273 56.5233 117.783 55.6559 116.864 56.9112C116.864 56.9112 116.153 56.9161 116.075 56.2957C116.037 55.674 116.045 55.0501 116.099 54.4297C116.099 54.4297 115.737 54.2623 115.725 56.645C115.713 59.0278 116.866 63.0165 117.074 63.2158C117.282 63.4151 119.044 64.6174 122.727 63.3824C126.41 62.1475 126.989 59.8412 127.165 59.2479C127.354 58.0344 127.469 56.809 127.509 55.5796C127.521 55.1298 127.383 53.0533 128.61 51.8952C128.61 51.8952 129.415 51.0466 129.825 51.5091C129.825 51.5091 130.684 49.8583 130.441 46.9105C130.418 46.6288 130.339 46.3554 130.21 46.1083C130.081 45.8612 129.905 45.6459 129.692 45.4764C129.653 45.4455 129.614 45.4146 129.575 45.3843C129.213 45.0939 128.971 44.6662 128.897 44.1901C128.877 44.0322 128.828 43.8802 128.753 43.7426C128.677 43.6051 128.577 43.4848 128.458 43.3886C128.339 43.2925 128.203 43.2224 128.058 43.1823C127.914 43.1423 127.763 43.1331 127.615 43.1553C125.981 43.1747 124.975 42.6208 124.473 42.807C123.972 42.9932 121.733 41.724 119.71 43.3128C118.796 44.1031 117.756 44.7125 116.64 45.1122C116.256 45.3292 114.443 46.6182 115.745 48.2065Z" fill="#222222"/>
<path d="M129.824 51.5091C130.043 51.6735 130.193 51.923 130.241 52.2038C130.283 52.4929 130.245 52.7887 130.132 53.0554C129.952 53.5523 129.798 54.0593 129.67 54.5743C129.51 55.1079 129.253 55.6027 128.914 56.0305C128.733 56.2503 128.496 56.4095 128.232 56.4888C127.97 56.5484 127.697 56.4982 127.469 56.3485C127.702 56.4262 127.954 56.4158 128.181 56.3189C128.392 56.2122 128.575 56.0498 128.711 55.8471C128.986 55.4189 129.201 54.9497 129.347 54.4547C129.435 54.2048 129.494 53.9612 129.576 53.6911C129.66 53.4291 129.766 53.1757 129.893 52.9338C130.023 52.7187 130.086 52.4654 130.074 52.2097C130.062 51.9541 129.974 51.709 129.824 51.5091Z" fill="#222222"/>
<path d="M117.926 52.7696C118.023 52.766 118.116 52.7222 118.183 52.6474C118.251 52.5727 118.289 52.4728 118.289 52.3688C118.289 52.2649 118.251 52.165 118.183 52.0903C118.116 52.0155 118.023 51.9717 117.926 51.9681C117.828 51.9717 117.736 52.0155 117.668 52.0903C117.6 52.165 117.562 52.2649 117.562 52.3688C117.562 52.4728 117.6 52.5727 117.668 52.6474C117.736 52.7222 117.828 52.766 117.926 52.7696Z" fill="#222222"/>
<path d="M122.578 53.426C122.676 53.4224 122.768 53.3786 122.836 53.3039C122.903 53.2291 122.941 53.1292 122.941 53.0253C122.941 52.9213 122.903 52.8215 122.836 52.7467C122.768 52.672 122.676 52.6282 122.578 52.6246C122.481 52.6282 122.388 52.672 122.32 52.7467C122.253 52.8215 122.215 52.9213 122.215 53.0253C122.215 53.1292 122.253 53.2291 122.32 53.3039C122.388 53.3786 122.481 53.4224 122.578 53.426Z" fill="#222222"/>
<path d="M116.32 50.4033C116.858 50.2628 117.419 50.2569 117.959 50.3862C118.231 50.4501 118.494 50.5493 118.744 50.6818C118.994 50.8167 119.215 51.0055 119.392 51.2363C118.907 51.0189 118.402 50.8532 117.886 50.7416C117.376 50.6216 116.858 50.5357 116.32 50.4033Z" fill="#222222"/>
<path d="M121.039 51.4114C121.619 51.2044 122.233 51.1256 122.843 51.18C123.461 51.2087 124.059 51.4189 124.571 51.7873C123.992 51.668 123.406 51.5863 122.817 51.5427C122.233 51.494 121.648 51.4743 121.039 51.4114Z" fill="#222222"/>
<path d="M118.588 54.9737C118.669 55.0957 118.764 55.2066 118.87 55.3037C118.966 55.3906 119.07 55.4678 119.179 55.5342C119.397 55.676 119.643 55.7789 119.917 55.9528C119.769 56.0065 119.611 56.0247 119.455 56.0061C119.296 55.9865 119.143 55.9324 119.005 55.847C118.862 55.7576 118.743 55.6301 118.661 55.4771C118.575 55.3261 118.549 55.1451 118.588 54.9737Z" fill="#222222"/>
<path d="M129.086 51.5158C128.379 51.8461 127.649 52.1131 126.901 52.3139C126.156 52.5305 125.397 52.6798 124.629 52.7602C125.335 52.4291 126.066 52.1621 126.814 51.9621C127.558 51.7462 128.318 51.5969 129.086 51.5158Z" fill="#222222"/>
<path d="M123.063 73.8383C123.063 73.8383 116.392 88.2521 116.316 91.7901L118.565 95.1725L122.852 92.3142C122.852 92.3142 123.983 76.8521 123.063 73.8383Z" fill="#222222"/>
<path d="M137.044 97.9524C136.76 97.5188 136.571 97.0226 136.492 96.5007C136.473 96.3588 136.477 96.2143 136.505 96.0741C136.519 95.9895 136.553 95.9101 136.605 95.8444C136.657 95.7786 136.724 95.7288 136.8 95.7C136.938 95.672 137.08 95.6935 137.206 95.7611C137.323 95.8116 137.43 95.874 137.539 95.9337L137.543 95.936L137.547 95.9393C137.815 96.1801 138.062 96.4456 138.286 96.7327C138.502 97.03 138.685 97.3524 138.832 97.6937C139.111 98.3833 139.224 99.1356 139.164 99.8835L139.161 99.8747L139.163 99.9131H139.129L139.121 99.8959L139.119 99.887C139.068 99.7093 139.029 99.5327 138.985 99.3585C138.931 99.1862 138.896 99.0118 138.842 98.8428C138.745 98.5012 138.617 98.1753 138.499 97.8464C138.376 97.5174 138.232 97.1982 138.066 96.8913C137.916 96.5709 137.718 96.2787 137.48 96.026L137.487 96.0314C137.295 95.9122 137.026 95.8062 136.869 95.8965C136.741 95.9723 136.777 96.2335 136.796 96.4605C136.853 96.938 136.989 97.4272 137.075 97.9386L137.044 97.9524Z" fill="#222222"/>
<path d="M134.628 100.228C134.081 99.7026 133.544 99.1645 132.981 98.6812C132.845 98.5618 132.701 98.4541 132.549 98.3591C132.483 98.3168 132.41 98.2867 132.335 98.27L132.07 98.2158C131.716 98.1458 131.359 98.0992 131 98.0763C130.639 98.0531 130.268 98.0668 129.894 98.026C129.792 98.0271 129.692 98.0025 129.601 97.9541C129.51 97.9057 129.431 97.8349 129.371 97.7477C129.313 97.6582 129.279 97.5541 129.271 97.446C129.263 97.3378 129.283 97.2294 129.327 97.1316C129.503 96.7618 129.809 96.4807 130.178 96.3489C130.53 96.2047 130.899 96.1089 131.274 96.064L131.161 96.2413C131.11 96.0635 131.098 95.8752 131.129 95.692C131.144 95.5927 131.177 95.4977 131.228 95.4125C131.278 95.3273 131.343 95.2537 131.421 95.1959C131.719 95.0153 132.068 94.9509 132.406 95.0138C133.021 95.1092 133.619 95.3054 134.178 95.5953C134.731 95.8775 135.256 96.218 135.745 96.6116C136.231 97.0027 136.677 97.447 137.076 97.9373L137.051 97.963C136.592 97.5525 136.107 97.1752 135.6 96.8337C135.101 96.4903 134.577 96.1907 134.032 95.9381C133.498 95.6839 132.938 95.4951 132.364 95.3754C132.106 95.3154 131.837 95.3478 131.598 95.4676C131.504 95.5484 131.435 95.6583 131.401 95.7824C131.367 95.9064 131.369 96.0386 131.408 96.161L131.445 96.331L131.295 96.3385C130.936 96.3465 130.579 96.4046 130.234 96.5114C130.063 96.5549 129.902 96.6367 129.763 96.7514C129.624 96.8662 129.509 97.0112 129.426 97.1769C129.39 97.2567 129.375 97.3453 129.383 97.4334C129.39 97.5214 129.42 97.6057 129.469 97.6773C129.517 97.7489 129.583 97.8052 129.66 97.8402C129.736 97.8752 129.819 97.8876 129.902 97.8761C130.263 97.8777 130.627 97.8251 131.002 97.8113C131.378 97.7923 131.755 97.8203 132.125 97.8947C132.218 97.9095 132.309 97.9353 132.4 97.9572C132.504 97.9849 132.603 98.0301 132.694 98.091C132.856 98.2007 133.009 98.324 133.152 98.4599C133.704 98.9886 134.207 99.5723 134.654 100.203L134.628 100.228Z" fill="#222222"/>
<path d="M134.63 100.233L134.625 100.229L134.628 100.232C133.73 99.803 132.798 99.4598 131.843 99.2058C131.371 99.0563 130.885 98.9638 130.393 98.93C130.148 98.9142 129.901 98.9274 129.658 98.9693C129.546 98.976 129.436 99.0063 129.334 99.0586C129.232 99.1108 129.142 99.184 129.067 99.2739C128.979 99.4396 129.121 99.6778 129.271 99.8285C129.434 99.9808 129.639 100.073 129.855 100.09C130.363 100.099 130.868 100.179 131.356 100.327C132.332 100.635 133.222 101.192 133.95 101.95L133.929 101.979C133.104 101.411 132.204 100.98 131.257 100.7C130.788 100.561 130.306 100.47 129.82 100.431C129.537 100.395 129.274 100.254 129.079 100.032C128.98 99.9219 128.906 99.7899 128.861 99.6456C128.833 99.5674 128.823 99.4832 128.831 99.3999C128.839 99.3166 128.866 99.2366 128.909 99.1664C129.105 98.9618 129.367 98.8457 129.642 98.8424C129.892 98.8158 130.144 98.8057 130.395 98.8121C130.9 98.7979 131.404 98.8307 131.903 98.91C132.899 99.108 133.838 99.5494 134.647 100.199L134.65 100.202L134.651 100.202L134.654 100.207L134.63 100.233Z" fill="#222222"/>
<path d="M141.45 104.595C141.128 105.445 140.526 106.14 139.758 106.55C139.367 106.748 138.946 106.871 138.515 106.912C138.087 106.948 137.657 106.912 137.239 106.805L137.211 106.798L137.197 106.787L134.24 104.687C133.995 104.509 133.747 104.334 133.507 104.146C133.265 103.965 133.039 103.721 132.819 103.567C132.321 103.275 131.762 103.122 131.193 103.122C131.05 103.114 130.906 103.115 130.762 103.12C130.6 103.13 130.438 103.116 130.279 103.08C129.942 103.008 129.643 102.8 129.447 102.499C129.331 102.332 129.278 102.125 129.297 101.919C129.331 101.719 129.431 101.538 129.577 101.408C129.828 101.164 130.154 101.026 130.494 101.022C131.095 101.053 131.693 101.136 132.282 101.268C132.875 101.374 133.442 101.605 133.949 101.949L133.957 101.964C133.958 101.959 133.949 101.949 133.944 101.951V101.987C133.935 101.99 133.921 101.975 133.922 101.965L133.93 101.98C133.397 101.721 132.828 101.559 132.245 101.501C131.669 101.421 131.089 101.377 130.508 101.37C130.012 101.393 129.421 101.882 129.748 102.28C129.894 102.501 130.112 102.656 130.359 102.717C130.489 102.751 130.623 102.766 130.756 102.761C130.908 102.76 131.06 102.765 131.212 102.777C131.832 102.796 132.435 102.996 132.956 103.355C133.214 103.571 133.385 103.802 133.616 104C133.842 104.198 134.07 104.398 134.31 104.579C135.274 105.307 136.285 105.961 137.335 106.538L137.292 106.52C138.081 106.689 138.899 106.61 139.647 106.294C140.015 106.12 140.353 105.883 140.649 105.592C140.951 105.298 141.211 104.957 141.418 104.581L141.45 104.595Z" fill="#222222"/>
<path d="M131.309 96.0217C131.73 96.1153 132.144 96.2392 132.549 96.3926C132.953 96.5413 133.346 96.7222 133.724 96.9338C134.497 97.3267 135.145 97.953 135.587 98.7349C135.106 97.9981 134.432 97.4286 133.649 97.0974C133.268 96.918 132.875 96.7694 132.472 96.653C132.074 96.5336 131.668 96.4429 131.258 96.3815L131.309 96.0217Z" fill="#222222"/>
<path d="M136.512 96.21L136.488 96.0945L136.487 96.0914C136.311 95.2292 136.153 94.3578 136.034 93.4811C135.973 93.0429 135.919 92.6033 135.873 92.1623L135.81 91.5002L135.762 90.8676L135.758 90.8365C135.613 88.4845 135.729 86.1227 136.101 83.7994C136.287 82.634 136.536 81.4981 136.825 80.3504C136.975 79.7509 137.223 79.1842 137.558 78.6762C137.735 78.3975 137.962 78.1587 138.226 77.9735C138.49 77.7884 138.785 77.6605 139.095 77.5972L139.221 77.5764L139.325 77.698C140.79 79.4127 142.255 81.1286 143.696 82.8665L145.868 85.4645L148.016 88.0842L148.153 88.2517L148.02 88.4139L143.769 93.5925L139.557 98.8072L139.563 98.7995C139.417 99.0411 139.319 99.3112 139.273 99.5939C139.227 99.8766 139.234 100.166 139.294 100.446C139.408 101.023 139.606 101.578 139.883 102.089C140.438 103.125 141.12 104.077 141.912 104.921L141.732 104.906C145.184 102.11 148.611 99.2697 151.925 96.299C152.75 95.5527 153.569 94.7988 154.367 94.027C154.77 93.644 155.159 93.2494 155.538 92.8468C155.735 92.6509 155.906 92.4384 156.085 92.2319C156.172 92.1272 156.268 92.0268 156.348 91.9185L156.575 91.5889C156.874 91.1532 157.105 90.669 157.26 90.1548C157.394 89.6403 157.447 89.1053 157.416 88.5722C157.31 87.4944 156.921 86.4702 156.294 85.6168L156.274 85.5889L156.266 85.5764C155.103 83.6601 153.917 81.756 152.71 79.8639C151.506 77.9718 150.266 76.108 149.019 74.2513C147.762 72.4044 146.481 70.5685 145.078 68.8611C144.714 68.4533 144.368 68.0121 143.982 67.6483C143.595 67.2755 143.174 66.9436 142.726 66.6572C141.817 66.0841 140.838 65.647 139.817 65.3583L139.863 65.3644L139.854 65.3643L139.828 65.3639L139.808 65.358C138.608 65.0206 137.381 64.8081 136.142 64.7237C134.898 64.6314 133.649 64.6514 132.408 64.7834L132.398 64.7114C133.642 64.5218 134.897 64.4447 136.153 64.4809C137.415 64.5039 138.671 64.6723 139.899 64.9832L139.854 64.977L139.863 64.9769L139.883 64.9766L139.908 64.9832C140.974 65.2497 142 65.6712 142.958 66.236C143.44 66.5242 143.895 66.8615 144.316 67.2431C144.744 67.6281 145.093 68.0645 145.477 68.4775C146.934 70.1874 148.249 72.0065 149.545 73.839C150.841 75.6712 152.068 77.5556 153.289 79.4419C154.505 81.3332 155.7 83.2389 156.875 85.1589L156.847 85.1186C157.564 86.0998 158 87.2798 158.105 88.518C158.137 89.1411 158.069 89.7655 157.905 90.3644C157.724 90.9516 157.456 91.5036 157.109 91.9992L156.851 92.3647C156.762 92.4825 156.662 92.5846 156.569 92.6952C156.378 92.911 156.192 93.1358 155.991 93.332C155.597 93.7419 155.196 94.1387 154.786 94.5224C153.974 95.3005 153.13 96.0332 152.287 96.7651C148.897 99.6696 145.415 102.432 141.896 105.144L141.797 105.221L141.716 105.13C141.324 104.687 140.956 104.222 140.611 103.737C140.264 103.253 139.952 102.742 139.677 102.208C139.392 101.672 139.19 101.091 139.078 100.486C139.015 100.177 139.011 99.8569 139.065 99.5456C139.119 99.2343 139.231 98.9377 139.395 98.673L139.397 98.6687L139.4 98.6652L143.551 93.3954L147.662 88.0895L147.667 88.4189L145.45 85.864L143.257 83.2872C141.789 81.5752 140.343 79.8412 138.899 78.106L139.128 78.2068C138.91 78.2501 138.704 78.3452 138.525 78.4851C138.326 78.6389 138.15 78.823 138.002 79.0315C137.702 79.4801 137.478 79.981 137.34 80.5116C137.045 81.6171 136.798 82.7608 136.58 83.893C136.159 86.1735 135.984 88.4978 136.059 90.8207L136.054 90.7898C136.061 90.8555 136.065 90.9216 136.066 90.9877L136.071 91.1502L136.085 91.4797L136.121 92.1386C136.149 92.5777 136.185 93.0164 136.229 93.4547C136.317 94.3314 136.431 95.2038 136.56 96.0782L136.56 96.0753L136.579 96.1922L136.512 96.21Z" fill="#222222"/>
<path d="M128.305 64.776C127.597 65.4168 126.89 65.9943 126.172 66.5359C125.465 67.0843 124.732 67.5916 123.974 68.0556L123.941 67.5463C124.614 67.9382 125.274 68.3613 125.956 68.7331C126.641 69.0995 127.344 69.4273 128.061 69.7152L127.871 69.7556L128.894 68.3952C129.238 67.945 129.598 67.5104 129.958 67.0754C130.672 66.2001 131.404 65.3416 132.153 64.4999L132.404 65.1099L128.305 64.776ZM128.286 64.7061L132.405 64.3819L133.218 64.3179L132.656 64.9919C131.933 65.8589 131.194 66.7098 130.438 67.5445C130.062 67.9641 129.687 68.3842 129.296 68.7888L128.113 69.9923L128.017 70.0894L127.922 70.0328C127.253 69.6342 126.565 69.2733 125.861 68.9515C125.154 68.6355 124.426 68.3709 123.71 68.0749L123.266 67.8909L123.677 67.5656C124.408 67.007 125.167 66.4896 125.949 66.0157C126.721 65.5341 127.503 65.0885 128.286 64.7062L128.286 64.7061Z" fill="#222222"/>
<path d="M110.804 85.2492C110.43 85.5967 110.04 85.9225 109.634 86.225C109.242 86.5059 108.888 86.842 108.581 87.2242C108.25 87.5954 107.997 88.0373 107.84 88.5207C107.693 89.0138 107.666 89.5387 107.763 90.0457C107.998 91.0299 108.302 92.0586 108.512 93.0769C108.726 94.106 108.883 95.1476 108.982 96.1963L108.939 96.2069C108.591 95.2206 108.297 94.2132 108.059 93.1902C107.941 92.6803 107.846 92.1645 107.749 91.6495C107.637 91.1306 107.562 90.6034 107.525 90.0724C107.513 89.535 107.573 88.9984 107.703 88.4791C107.814 87.9473 108.014 87.4414 108.295 86.986C108.597 86.5391 108.994 86.1742 109.453 85.9204C109.883 85.6581 110.326 85.4209 110.78 85.2099L110.804 85.2492Z" fill="#222222"/>
</g>
<defs>
<clipPath id="clip0_187_9428">
<rect width="332" height="278" fill="white" transform="translate(0 0.75)"/>
</clipPath>
</defs>
</svg>
