<svg width="47" height="46" viewBox="0 0 47 46" fill="none" xmlns="http://www.w3.org/2000/svg">
<path d="M23.5 46C36.2027 46 46.5 35.7027 46.5 23C46.5 10.2973 36.2027 0 23.5 0C10.7973 0 0.5 10.2973 0.5 23C0.5 35.7027 10.7973 46 23.5 46Z" fill="#D6001D"/>
<path fill-rule="evenodd" clip-rule="evenodd" d="M13.4401 19.7716V11.96H9.69922V32.2H13.4363L13.4401 25.0677C13.4363 23.8707 13.5506 22.9665 13.7792 22.3541C14.004 21.7427 14.3586 21.2853 14.8528 20.9791C15.3363 20.6748 15.8924 20.5218 16.5125 20.5218C17.0541 20.5218 17.5027 20.6404 17.8631 20.8806C18.2159 21.1064 18.4806 21.4437 18.614 21.8374C18.7565 22.2393 18.8243 23.1846 18.8243 24.6773V32.2H22.5662V23.8477C22.5662 22.5694 22.5022 21.6269 22.3743 21.0212C22.2455 20.4127 22.0071 19.8606 21.6544 19.3563C21.3037 18.8569 20.7844 18.4454 20.0897 18.1249C19.3969 17.8024 18.6247 17.6398 17.7624 17.6398C16.0881 17.6398 14.6445 18.3536 13.4401 19.7716ZM28.1748 19.7716V11.96H24.4377V32.2H28.1748V25.0677C28.1748 23.8707 28.2891 22.9665 28.5139 22.3541C28.7416 21.7427 29.0981 21.2853 29.5855 20.9791C30.0699 20.6748 30.6261 20.5218 31.2452 20.5218C31.7868 20.5218 32.2393 20.6404 32.5958 20.8806C32.9497 21.1057 33.2152 21.4432 33.3487 21.8374C33.4911 22.2393 33.5618 23.1846 33.5618 24.6773V32.2H37.2998V23.8477C37.2998 22.5694 37.2359 21.6269 37.107 21.0212C36.9841 20.4237 36.7391 19.8572 36.3871 19.3563C36.0383 18.8569 35.519 18.4454 34.8272 18.1249C34.1335 17.8024 33.3555 17.6398 32.496 17.6398C30.8228 17.6398 29.3801 18.3536 28.1748 19.7716Z" fill="white"/>
</svg>
